<svg id="Layer_1" data-name="Layer 1" xmlns="http://www.w3.org/2000/svg" xmlns:xlink="http://www.w3.org/1999/xlink" viewBox="0 0 83.47 160.86"><defs><style>.cls-1{fill:none;}.cls-2{opacity:0.5;}.cls-3{clip-path:url(#clip-path);}.cls-4{clip-path:url(#clip-path-2);}.cls-5{fill:#e9f4ff;}.cls-6{clip-path:url(#clip-path-3);}.cls-7{clip-path:url(#clip-path-5);}.cls-8{clip-path:url(#clip-path-7);}.cls-9{clip-path:url(#clip-path-9);}.cls-10{clip-path:url(#clip-path-11);}.cls-11{clip-path:url(#clip-path-13);}.cls-12{clip-path:url(#clip-path-15);}.cls-13{clip-path:url(#clip-path-17);}.cls-14{clip-path:url(#clip-path-18);}.cls-15{clip-path:url(#clip-path-19);}.cls-16{clip-path:url(#clip-path-21);}.cls-17{clip-path:url(#clip-path-23);}.cls-18{clip-path:url(#clip-path-25);}.cls-19{clip-path:url(#clip-path-27);}.cls-20{clip-path:url(#clip-path-29);}.cls-21{clip-path:url(#clip-path-31);}.cls-22{clip-path:url(#clip-path-33);}.cls-23{clip-path:url(#clip-path-34);}.cls-24{clip-path:url(#clip-path-35);}.cls-25{clip-path:url(#clip-path-37);}.cls-26{clip-path:url(#clip-path-39);}.cls-27{clip-path:url(#clip-path-41);}.cls-28{clip-path:url(#clip-path-43);}.cls-29{clip-path:url(#clip-path-45);}.cls-30{clip-path:url(#clip-path-47);}.cls-31{clip-path:url(#clip-path-49);}.cls-32{clip-path:url(#clip-path-50);}.cls-33{clip-path:url(#clip-path-51);}.cls-34{clip-path:url(#clip-path-53);}.cls-35{clip-path:url(#clip-path-55);}.cls-36{clip-path:url(#clip-path-57);}.cls-37{clip-path:url(#clip-path-59);}.cls-38{clip-path:url(#clip-path-61);}.cls-39{clip-path:url(#clip-path-63);}.cls-40{clip-path:url(#clip-path-65);}.cls-41{clip-path:url(#clip-path-66);}.cls-42{clip-path:url(#clip-path-67);}.cls-43{clip-path:url(#clip-path-69);}.cls-44{clip-path:url(#clip-path-71);}.cls-45{clip-path:url(#clip-path-73);}.cls-46{clip-path:url(#clip-path-75);}.cls-47{clip-path:url(#clip-path-77);}.cls-48{clip-path:url(#clip-path-79);}</style><clipPath id="clip-path"><circle class="cls-1" cx="51.72" cy="9.08" r="3.94"/></clipPath><clipPath id="clip-path-2"><rect class="cls-1" x="3.68" y="-57.85" width="74.02" height="165.36"/></clipPath><clipPath id="clip-path-3"><circle class="cls-1" cx="51.72" cy="24.83" r="3.94"/></clipPath><clipPath id="clip-path-5"><circle class="cls-1" cx="7.62" cy="9.08" r="3.94"/></clipPath><clipPath id="clip-path-7"><circle class="cls-1" cx="7.62" cy="24.83" r="3.94"/></clipPath><clipPath id="clip-path-9"><circle class="cls-1" cx="73.76" cy="9.08" r="3.94"/></clipPath><clipPath id="clip-path-11"><circle class="cls-1" cx="73.76" cy="24.83" r="3.94"/></clipPath><clipPath id="clip-path-13"><circle class="cls-1" cx="29.67" cy="9.08" r="3.94"/></clipPath><clipPath id="clip-path-15"><circle class="cls-1" cx="29.67" cy="24.83" r="3.94"/></clipPath><clipPath id="clip-path-17"><circle class="cls-1" cx="51.72" cy="40.91" r="3.94"/></clipPath><clipPath id="clip-path-18"><rect class="cls-1" x="3.68" y="-26.02" width="74.02" height="165.36"/></clipPath><clipPath id="clip-path-19"><circle class="cls-1" cx="51.72" cy="56.66" r="3.94"/></clipPath><clipPath id="clip-path-21"><circle class="cls-1" cx="7.62" cy="40.91" r="3.94"/></clipPath><clipPath id="clip-path-23"><circle class="cls-1" cx="7.62" cy="56.66" r="3.94"/></clipPath><clipPath id="clip-path-25"><circle class="cls-1" cx="73.76" cy="40.91" r="3.94"/></clipPath><clipPath id="clip-path-27"><circle class="cls-1" cx="73.76" cy="56.66" r="3.94"/></clipPath><clipPath id="clip-path-29"><circle class="cls-1" cx="29.67" cy="40.91" r="3.94"/></clipPath><clipPath id="clip-path-31"><circle class="cls-1" cx="29.67" cy="56.66" r="3.94"/></clipPath><clipPath id="clip-path-33"><circle class="cls-1" cx="51.72" cy="72.75" r="3.94"/></clipPath><clipPath id="clip-path-34"><rect class="cls-1" x="3.68" y="5.82" width="74.02" height="165.36"/></clipPath><clipPath id="clip-path-35"><circle class="cls-1" cx="51.72" cy="88.5" r="3.94"/></clipPath><clipPath id="clip-path-37"><circle class="cls-1" cx="7.62" cy="72.75" r="3.94"/></clipPath><clipPath id="clip-path-39"><circle class="cls-1" cx="7.62" cy="88.5" r="3.94"/></clipPath><clipPath id="clip-path-41"><circle class="cls-1" cx="73.76" cy="72.75" r="3.94"/></clipPath><clipPath id="clip-path-43"><circle class="cls-1" cx="73.76" cy="88.5" r="3.94"/></clipPath><clipPath id="clip-path-45"><circle class="cls-1" cx="29.67" cy="72.75" r="3.94"/></clipPath><clipPath id="clip-path-47"><circle class="cls-1" cx="29.67" cy="88.5" r="3.94"/></clipPath><clipPath id="clip-path-49"><circle class="cls-1" cx="51.72" cy="104.58" r="3.94"/></clipPath><clipPath id="clip-path-50"><rect class="cls-1" x="3.68" y="37.65" width="74.02" height="165.36"/></clipPath><clipPath id="clip-path-51"><circle class="cls-1" cx="51.72" cy="120.33" r="3.94"/></clipPath><clipPath id="clip-path-53"><circle class="cls-1" cx="7.62" cy="104.58" r="3.94"/></clipPath><clipPath id="clip-path-55"><circle class="cls-1" cx="7.62" cy="120.33" r="3.94"/></clipPath><clipPath id="clip-path-57"><circle class="cls-1" cx="73.76" cy="104.58" r="3.94"/></clipPath><clipPath id="clip-path-59"><circle class="cls-1" cx="73.76" cy="120.33" r="3.94"/></clipPath><clipPath id="clip-path-61"><circle class="cls-1" cx="29.67" cy="104.58" r="3.94"/></clipPath><clipPath id="clip-path-63"><circle class="cls-1" cx="29.67" cy="120.33" r="3.94"/></clipPath><clipPath id="clip-path-65"><circle class="cls-1" cx="51.72" cy="136.42" r="3.94"/></clipPath><clipPath id="clip-path-66"><rect class="cls-1" x="3.68" y="69.49" width="74.02" height="165.36"/></clipPath><clipPath id="clip-path-67"><circle class="cls-1" cx="51.72" cy="152.17" r="3.94"/></clipPath><clipPath id="clip-path-69"><circle class="cls-1" cx="7.62" cy="136.42" r="3.94"/></clipPath><clipPath id="clip-path-71"><circle class="cls-1" cx="7.62" cy="152.17" r="3.94"/></clipPath><clipPath id="clip-path-73"><circle class="cls-1" cx="73.76" cy="136.42" r="3.94"/></clipPath><clipPath id="clip-path-75"><circle class="cls-1" cx="73.76" cy="152.17" r="3.94"/></clipPath><clipPath id="clip-path-77"><circle class="cls-1" cx="29.67" cy="136.42" r="3.94"/></clipPath><clipPath id="clip-path-79"><circle class="cls-1" cx="29.67" cy="152.17" r="3.94"/></clipPath></defs><title>dots_3</title><g class="cls-2"><g class="cls-3"><g class="cls-4"><rect class="cls-5" x="43.84" y="1.2" width="15.75" height="15.75"/></g></g><g class="cls-6"><g class="cls-4"><rect class="cls-5" x="43.84" y="16.95" width="15.75" height="15.75"/></g></g><g class="cls-7"><g class="cls-4"><rect class="cls-5" x="-0.25" y="1.2" width="15.75" height="15.75"/></g></g><g class="cls-8"><g class="cls-4"><rect class="cls-5" x="-0.25" y="16.95" width="15.75" height="15.75"/></g></g><g class="cls-9"><g class="cls-4"><rect class="cls-5" x="65.89" y="1.2" width="15.75" height="15.75"/></g></g><g class="cls-10"><g class="cls-4"><rect class="cls-5" x="65.89" y="16.95" width="15.75" height="15.75"/></g></g><g class="cls-11"><g class="cls-4"><rect class="cls-5" x="21.8" y="1.2" width="15.75" height="15.75"/></g></g><g class="cls-12"><g class="cls-4"><rect class="cls-5" x="21.8" y="16.95" width="15.75" height="15.75"/></g></g></g><g class="cls-2"><g class="cls-13"><g class="cls-14"><rect class="cls-5" x="43.84" y="33.04" width="15.75" height="15.75"/></g></g><g class="cls-15"><g class="cls-14"><rect class="cls-5" x="43.84" y="48.79" width="15.75" height="15.75"/></g></g><g class="cls-16"><g class="cls-14"><rect class="cls-5" x="-0.25" y="33.04" width="15.75" height="15.75"/></g></g><g class="cls-17"><g class="cls-14"><rect class="cls-5" x="-0.25" y="48.79" width="15.75" height="15.75"/></g></g><g class="cls-18"><g class="cls-14"><rect class="cls-5" x="65.89" y="33.04" width="15.75" height="15.75"/></g></g><g class="cls-19"><g class="cls-14"><rect class="cls-5" x="65.89" y="48.79" width="15.75" height="15.75"/></g></g><g class="cls-20"><g class="cls-14"><rect class="cls-5" x="21.8" y="33.04" width="15.75" height="15.75"/></g></g><g class="cls-21"><g class="cls-14"><rect class="cls-5" x="21.8" y="48.79" width="15.75" height="15.75"/></g></g></g><g class="cls-2"><g class="cls-22"><g class="cls-23"><rect class="cls-5" x="43.84" y="64.87" width="15.75" height="15.75"/></g></g><g class="cls-24"><g class="cls-23"><rect class="cls-5" x="43.84" y="80.62" width="15.75" height="15.75"/></g></g><g class="cls-25"><g class="cls-23"><rect class="cls-5" x="-0.25" y="64.87" width="15.75" height="15.75"/></g></g><g class="cls-26"><g class="cls-23"><rect class="cls-5" x="-0.25" y="80.62" width="15.75" height="15.75"/></g></g><g class="cls-27"><g class="cls-23"><rect class="cls-5" x="65.89" y="64.87" width="15.75" height="15.75"/></g></g><g class="cls-28"><g class="cls-23"><rect class="cls-5" x="65.89" y="80.62" width="15.75" height="15.75"/></g></g><g class="cls-29"><g class="cls-23"><rect class="cls-5" x="21.8" y="64.87" width="15.75" height="15.75"/></g></g><g class="cls-30"><g class="cls-23"><rect class="cls-5" x="21.8" y="80.62" width="15.75" height="15.75"/></g></g></g><g class="cls-2"><g class="cls-31"><g class="cls-32"><rect class="cls-5" x="43.84" y="96.71" width="15.75" height="15.75"/></g></g><g class="cls-33"><g class="cls-32"><rect class="cls-5" x="43.84" y="112.46" width="15.75" height="15.75"/></g></g><g class="cls-34"><g class="cls-32"><rect class="cls-5" x="-0.25" y="96.71" width="15.75" height="15.75"/></g></g><g class="cls-35"><g class="cls-32"><rect class="cls-5" x="-0.25" y="112.46" width="15.75" height="15.75"/></g></g><g class="cls-36"><g class="cls-32"><rect class="cls-5" x="65.89" y="96.71" width="15.75" height="15.75"/></g></g><g class="cls-37"><g class="cls-32"><rect class="cls-5" x="65.89" y="112.46" width="15.75" height="15.75"/></g></g><g class="cls-38"><g class="cls-32"><rect class="cls-5" x="21.8" y="96.71" width="15.75" height="15.75"/></g></g><g class="cls-39"><g class="cls-32"><rect class="cls-5" x="21.8" y="112.46" width="15.75" height="15.75"/></g></g></g><g class="cls-2"><g class="cls-40"><g class="cls-41"><rect class="cls-5" x="43.84" y="128.54" width="15.75" height="15.75"/></g></g><g class="cls-42"><g class="cls-41"><rect class="cls-5" x="43.84" y="144.29" width="15.75" height="15.75"/></g></g><g class="cls-43"><g class="cls-41"><rect class="cls-5" x="-0.25" y="128.54" width="15.75" height="15.75"/></g></g><g class="cls-44"><g class="cls-41"><rect class="cls-5" x="-0.25" y="144.29" width="15.75" height="15.75"/></g></g><g class="cls-45"><g class="cls-41"><rect class="cls-5" x="65.89" y="128.54" width="15.75" height="15.75"/></g></g><g class="cls-46"><g class="cls-41"><rect class="cls-5" x="65.89" y="144.29" width="15.75" height="15.75"/></g></g><g class="cls-47"><g class="cls-41"><rect class="cls-5" x="21.8" y="128.54" width="15.75" height="15.75"/></g></g><g class="cls-48"><g class="cls-41"><rect class="cls-5" x="21.8" y="144.29" width="15.75" height="15.75"/></g></g></g></svg>