<?xml version="1.0" encoding="UTF-8"?>
<svg width="14px" height="14px" viewBox="0 0 14 14" version="1.1" xmlns="http://www.w3.org/2000/svg" xmlns:xlink="http://www.w3.org/1999/xlink">
    <!-- Generator: Sketch 57.1 (83088) - https://sketch.com -->
    <title>Group 10</title>
    <desc>Created with Sketch.</desc>
    <defs>
        <polygon id="path-1" points="7.76040325e-05 0.0427048635 17.9722742 0.0427048635 17.9722742 17.9999866 7.76040325e-05 17.9999866"></polygon>
    </defs>
    <g id="Page-1" stroke="none" stroke-width="1" fill="none" fill-rule="evenodd">
        <g id="Landing-page" transform="translate(-968.000000, -45.000000)">
            <g id="Group-10" transform="translate(966.000000, 43.000000)">
                <g id="Group-3">
                    <mask id="mask-2" fill="white">
                        <use xlink:href="#path-1"></use>
                    </mask>
                    <g id="Clip-2"></g>
                    <path d="M4.4735371,12.8349 C4.66369839,12.2439484 4.81321452,11.4978194 5.13968226,10.8396581 C5.50142419,10.1106581 5.24550484,9.74165806 4.67981129,9.30036774 C3.25374677,8.18799677 1.87848871,7.01073871 0.479714516,5.86338387 C0.214504839,5.6457871 -0.0750919355,5.44096452 0.0178112903,5.03872258 C0.103891935,4.66493226 0.450391935,4.61281935 0.744779032,4.53283548 C6.16408548,3.05538387 11.5846984,1.58272258 17.0060371,0.112383871 C17.8138597,-0.106519355 18.1217468,0.191496774 17.9048758,0.990319355 C16.42815,6.43444839 14.94765,11.8775613 13.461779,17.3193677 C13.3878919,17.5896581 13.3244565,17.9013194 12.9791177,17.9817387 C12.6127306,18.0670935 12.3984726,17.8390452 12.1926339,17.5880613 C10.9531016,16.0779484 9.69542419,14.5824968 8.48042419,13.0530774 C8.16992419,12.6624484 7.90239194,12.5876903 7.45181129,12.7668194 C6.76084355,13.0417548 6.05027903,13.2731419 5.33594032,13.4810129 C4.76690806,13.6466419 4.48355323,13.4515452 4.4735371,12.8349" id="Fill-1" mask="url(#mask-2)"></path>
                </g>
                <path d="M2,5.03177265 C6.4096506,4.00246866 10.6972669,3.00179448 14.9901133,2 C15.0469173,2.2086242 14.8449797,2.23849878 14.7400883,2.31131809 C12.0963028,4.1484807 9.44162135,5.97431587 6.8077148,7.82193458 C6.45526818,8.06902231 6.25202299,8.05371159 5.916574,7.8086155 C4.65221169,6.88461942 3.35821248,5.99024898 2,5.03177265" id="Fill-4" fill="#FEFEFE"></path>
                <path d="M12.4733088,16 C11.3148698,14.5868527 10.241335,13.2659081 9.15139501,11.9590037 C8.96446181,11.7349381 8.94100522,11.595838 9.13527759,11.3562847 C11.3712807,8.59686237 13.5950519,5.82730785 15.8244353,3.06224043 C15.8464529,3.03488359 15.9008491,3.03372563 16,3 C14.8264509,7.32599958 13.6625435,11.6163918 12.4733088,16" id="Fill-6" fill="#FEFEFE"></path>
                <path d="M5,13 C5.1729703,11.6691274 5.86772714,10.7624713 6.92395308,9.99090965 C8.64531668,8.73363431 10.2697709,7.34667399 11.9531759,6 C12.09854,6.28527851 11.8680567,6.37994428 11.768703,6.50236919 C10.4264938,8.1599455 9.07263815,9.80798406 7.72597164,11.4618592 C6.82603723,12.5670998 6.58031301,12.7105932 5,13 L1,10.3650615" id="Fill-8" fill="#FDFCFC"></path>
            </g>
        </g>
    </g>
</svg>