<svg id="Layer_1" data-name="Layer 1" xmlns="http://www.w3.org/2000/svg" viewBox="0 0 367.35 345.48"><defs><style>.cls-1{fill:#d6d6d5;}.cls-2{fill:#e0ecf5;}.cls-3{fill:#e7ebf3;}.cls-4{fill:#ffe0d1;stroke-width:0.75px;}.cls-4,.cls-5,.cls-7{stroke:#2649b8;stroke-miterlimit:10;}.cls-5,.cls-7{fill:none;}.cls-5{stroke-linecap:round;}.cls-6{fill:#2649b8;}</style></defs><title>images</title><circle class="cls-1" cx="192.58" cy="179.24" r="125.48"/><circle class="cls-2" cx="184.74" cy="182.95" r="120.32"/><circle class="cls-3" cx="334.27" cy="95.28" r="1.91"/><rect class="cls-4" x="100.2" y="235.59" width="25.85" height="39.77"/><rect class="cls-4" x="133.68" y="181.4" width="25.85" height="93.96"/><rect class="cls-4" x="167.16" y="207.02" width="25.85" height="68.34"/><rect class="cls-4" x="200.65" y="171.55" width="25.85" height="103.81"/><path class="cls-5" d="M83.33,184.63s9.51-30.49,53.34-43.76c15.57-4,30.85,9.95,30.85,9.95s16.3,20.76,33-3.89,17.73-28.84,30-28.55"/><circle class="cls-6" cx="106.74" cy="155.64" r="7.57"/><circle class="cls-6" cx="145.08" cy="139.9" r="7.57"/><circle class="cls-6" cx="175.93" cy="155.98" r="7.57"/><circle class="cls-6" cx="214.35" cy="126.26" r="7.57"/><circle class="cls-7" cx="168.1" cy="201.5" r="123.27"/></svg>