<svg id="Layer_1" data-name="Layer 1" xmlns="http://www.w3.org/2000/svg" xmlns:xlink="http://www.w3.org/1999/xlink" viewBox="0 0 228.83 221.59"><defs><style>.cls-1{fill:#fff;}.cls-1,.cls-3{fill-rule:evenodd;}.cls-2{mask:url(#mask);}.cls-3{fill:#3e6eb4;}.cls-4{mask:url(#mask-2);}</style><mask id="mask" x="107.19" y="47.29" width="58.63" height="121.82" maskUnits="userSpaceOnUse"><g id="mask0"><path class="cls-1" d="M107.19,47.29h58.62V169.1H107.19Z"/></g></mask><mask id="mask-2" x="65.94" y="82.27" width="3.82" height="21.74" maskUnits="userSpaceOnUse"><g id="mask1"><path class="cls-1" d="M65.94,82.27h3.82V104H65.94Z"/></g></mask></defs><title>images</title><g class="cls-2"><path class="cls-3" d="M127.29,157.77c0-3.25.08-6.5,0-9.74-.05-1.25.38-1.41,1.46-1.4,4.79.06,9.59,0,14.38,0,5.36,0,8.48-3.18,8.48-8.64s0-11.12,0-16.68c0-1.24.36-1.43,1.46-1.4,2.68.08,5.36,0,8.05,0,1.53,0,2-.71,1.32-2.12-3.44-7.46-6.86-14.93-10.32-22.38a4.77,4.77,0,0,1-.48-2.16,73.5,73.5,0,0,0-.74-13.42c-2.54-14-14.24-25.89-28.11-28.54a68.32,68.32,0,0,0-14.06-.73c-1.28,0-1.6-.41-1.43-1.55a5.36,5.36,0,0,0,0-1.06c0-.43.08-.63.57-.65,8.34-.22,16.63-.13,24.3,3.87C145,57.92,152.58,68.39,154.51,83a80.76,80.76,0,0,1,.22,9.46,5.05,5.05,0,0,0,.49,2.16c3.32,7.18,6.53,14.41,9.95,21.53,2,4.08-.9,7.44-4.5,7.08-1.61-.15-3.26,0-4.88,0-.91,0-1.07.29-1.06,1.12,0,4.76,0,9.52,0,14.28a11.29,11.29,0,0,1-11,11.3q-6.08.07-12.14,0c-.92,0-1.18.2-1.17,1.16.05,5.6,0,11.21.05,16.81,0,1.09-.33,1.31-1.31,1.27-1.88-.07-1.88,0-1.89-2Z"/></g><path class="cls-3" d="M115.31,56.1A31,31,0,0,1,145.7,83.31c.06.49.05,1,.09,1.48.25,2.71.51,2.22-2.18,2.31-.87,0-1-.34-1-1.1a27.17,27.17,0,0,0-27-26.65,13.1,13.1,0,0,0-2.26,0c-1.14.15-1.4-.3-1.35-1.4.1-1.86,0-1.87,1.91-1.87Z"/><path class="cls-3" d="M82.5,123.45c.44.27.45.7.45,1.18,0,3,0,6,0,9a2.33,2.33,0,0,0,.7,1.84c1.59,1.61,3.1,3.3,4.67,4.93a2.1,2.1,0,0,1,.62,1.61c0,8,0,15.95,0,23.93,0,1.09-.35,1.2-1.19,1.17-1.82,0-1.83,0-1.83-1.92,0-7.18,0-14.37,0-21.55a2.55,2.55,0,0,0-.74-2c-1.59-1.6-3.11-3.29-4.68-4.93a1.8,1.8,0,0,1-.57-1.37c0-3.61,0-7.23,0-10.84,0-.34-.21-.86.43-.85A1.49,1.49,0,0,1,82.5,123.45Z"/><path class="cls-3" d="M81.91,155.59c0,3.43,0,6.86,0,10.29,0,1-.22,1.35-1.14,1.19a2.48,2.48,0,0,0-.86,0c-.81.14-1-.21-1-1.05,0-4.56,0-9.12,0-13.68,0-2.38,0-4.77,0-7.16,0-.85.2-1.08,1-1.07,2,.05,2,0,2,2.11Z"/><g class="cls-4"><path class="cls-3" d="M67.42,104c-.76.2-1.1-.07-1.19-1-.27-3-.26-6.07-.29-9.11,0-3.48.15-7,.17-10.44,0-1,.36-1.3,1.44-1.12,2.18.38,2.08.34,2,2.47a166.31,166.31,0,0,0,.14,17.44C69.85,103.77,69.8,103.83,67.42,104Z"/></g><path class="cls-3" d="M93.94,53.45a.38.38,0,0,1-.29.37c-1,.4-2.07.82-3.1,1.23a.49.49,0,0,1-.66-.2c-1.46-1.75-1.29-2.49.83-3.34s3-.39,3.18,1.82A.28.28,0,0,0,93.94,53.45Z"/><path class="cls-3" d="M98.2,52.05c-.43.17-.55-.08-.68-.43-1-2.62-.88-2.88,2-3.28a4,4,0,0,0,1-.1c1-.41,1.22.16,1.32,1,.29,2.15.31,2.15-1.92,2.56Z"/><path class="cls-3" d="M80.94,61.68c-.14.16-.26.32-.4.47l-1,1c-1.35,1.32-1.31,1.27-3,.25-.87-.52-.87-.91-.17-1.48a9.28,9.28,0,0,0,.71-.69c1.49-1.49,2.19-1.45,3.55.22Z"/><path class="cls-3" d="M74.94,68.69c-.67,1.15-1.1,2.54-2.07,3.29-.62.48-1.81-.58-2.69-1-.59-.29.06-.78.18-1.16a3.76,3.76,0,0,1,.57-1.06c.41-.58.68-1.71,1.23-1.64a8,8,0,0,1,2.55,1.29C74.81,68.46,74.87,68.6,74.94,68.69Z"/><path class="cls-3" d="M86.94,57.11c-.06.28-.33.36-.54.5-.36.24-.73.46-1.08.7-1.67,1.13-1.62,1.09-2.92-.37-.64-.71-.67-1.13.25-1.55a7.12,7.12,0,0,0,.86-.57c1.77-1.21,2.7-.91,3.33,1.07C86.87,57,86.91,57,86.94,57.11Z"/><path class="cls-3" d="M66.94,78.9l1-3.39c.14-.45.44-.45.85-.35,2.32.55,2.46.76,1.85,3.06a5.5,5.5,0,0,0-.29,1.18c0,.75-.47.78-1,.63s-1.22-.36-1.84-.48C67.08,79.46,66.9,79.31,66.94,78.9Z"/><path class="cls-3" d="M99.88,150.14c0,1.78-.69,2.25-2.56,1.81-.43-.1-.38-.33-.38-.59,0-.52,0-1,0-1.55,0-1.68,0-1.62,1.7-1.7,1-.05,1.45.18,1.25,1.2A5.73,5.73,0,0,0,99.88,150.14Z"/><path class="cls-3" d="M99.94,157.06c0,2-.33,2.25-2.5,1.92-.5-.07-.48-.31-.48-.64,0-.8.05-1.6,0-2.39s.24-.84.91-.85C99.93,155.1,99.93,155.07,99.94,157.06Z"/><path class="cls-3" d="M97.05,166.43c-.49-1.64.75-1.16,1.62-1.29,1.6-.25,1.1.87,1.23,1.69.26,1.61-.87,1.1-1.67,1.24C96.78,168.3,96.94,167.39,97.05,166.43Z"/><path class="cls-3" d="M106.2,48.1c.62,1,1.14,2,.3,3A3,3,0,0,1,106.2,48.1Z"/><path class="cls-3" d="M116.59,133.84c-3.06,0-5-2.1-5-5.28a4.85,4.85,0,0,1,5.17-5.14c3,0,5,2.11,5,5.28A4.82,4.82,0,0,1,116.59,133.84Zm8.22-6.78a8.85,8.85,0,0,0-7.85-6.94c-3.58-.25-7.41,2.76-8.39,6.59a8.34,8.34,0,0,0,4.77,9.55c1.75.72,2,1.65,1.93,3.27a4,4,0,0,1-1.26,3.1c-1.83,1.75-3.54,3.64-5.34,5.41a2.3,2.3,0,0,0-.73,1.85c0,2.83,0,5.66,0,8.49v7.56c0,2.17,0,2.12,2.06,2.16.83,0,1.09-.18,1.08-1.07-.06-3.45,0-6.9,0-10.35,0-2.17-.54-4.58.21-6.43s2.69-3.3,4.33-4.64a6.75,6.75,0,0,0,2.72-6.85c-.22-1.27.25-1.86,1.47-2.37A8.52,8.52,0,0,0,124.81,127.06Z"/><path class="cls-3" d="M81.41,119.75a5.21,5.21,0,1,1,5.23-5.19A4.89,4.89,0,0,1,81.41,119.75Zm8.51-5.52a8.91,8.91,0,0,0-7.19-8,8.72,8.72,0,0,0-9.31,5.64,8.41,8.41,0,0,0,3.7,9.94c1,.61,2.08.83,3.07,1.34.76,0,1.47-.4,2.24-.22C86.47,122.61,90.18,118.33,89.92,114.23Z"/><path class="cls-3" d="M98.48,81.1a4.5,4.5,0,1,0-.06,9,4.5,4.5,0,0,0,.06-9Z"/><path class="cls-3" d="M98,97.37a12.5,12.5,0,1,1,0-25,12.5,12.5,0,1,1,0,25Zm-2.86-28C87.87,70.66,81.6,78,82,85.16a16.2,16.2,0,0,0,13,15.17c.95.2,1.08.51,1.08,1.34,0,6.69,0,13.39,0,20.09s0,13.39,0,20.09c0,.38-.2,1,.15,1.1a7.65,7.65,0,0,0,2.82,0c.59-.12.27-.92.27-1.41q0-19.89,0-39.77c0-1,.28-1.27,1.24-1.39,6.77-.87,12.86-7.3,13.44-14C114.79,75.78,104.86,67.58,95.13,69.34Z"/></svg>