<svg id="Layer_1" data-name="Layer 1" xmlns="http://www.w3.org/2000/svg" viewBox="0 0 367.35 345.48"><defs><style>.cls-1{fill:#d6d6d5;}.cls-2{fill:#e0ecf5;}.cls-3{fill:#ffe0d1;}.cls-3,.cls-4,.cls-8{stroke:#020202;stroke-miterlimit:10;}.cls-3,.cls-4{stroke-width:0.5px;}.cls-4{fill:#2649b8;}.cls-5{fill:#fdfdfd;}.cls-6{fill:#fcfdfd;}.cls-7{fill:#232a64;}.cls-8{fill:none;stroke-linecap:round;stroke-width:1.5px;}</style></defs><title>images</title><circle class="cls-1" cx="178.39" cy="166.24" r="97.71"/><circle class="cls-2" cx="166.85" cy="161.3" r="97.71"/><g id="aRK1bt.tif"><path class="cls-3" d="M183.81,265.18c.07-3.77-1-7.32-2.13-10.83-3.22-10.32-7.75-20.1-12.24-29.9-2.92-6.36-7-12.06-9.92-18.39a60,60,0,0,1-5.45-30.85c1.62-18.91,10.14-34.16,25.36-45.34,14-10.29,29.81-14,47-11.11,16.49,2.78,29.6,11.16,39.71,24.34a82.25,82.25,0,0,1,5.07,8,68.79,68.79,0,0,0,4.84,6.29q9.66,12.63,19.29,25.29a11.26,11.26,0,0,1,1.67,3.6,6.24,6.24,0,0,1-4.82,8.17c-4.5,1.08-9.09.55-13.64.51-1.5,0-2.17.34-2.52,1.79a53.39,53.39,0,0,1-3.13,8.78c-.53,1.2-1.24,1.37-2.39,1.38-9.31,0-18.62-.34-27.92.17a27.84,27.84,0,0,0-9.13,1.78c-4.17,1.7-6.15,4.89-6.46,9.2a20.92,20.92,0,0,0,4.74,14.82c5.19,6.58,12.23,10,20.31,11.44,1.62.29,1.71.77,1.18,2.17a84.18,84.18,0,0,0-4.51,15.06,18.45,18.45,0,0,0-.36,4.13,6,6,0,0,1-3.46,6.32,9.1,9.1,0,0,1-3.72.71H191c-3.21,0-5.59-1.21-6.92-4.22A4.13,4.13,0,0,1,183.81,265.18Z"/><path class="cls-4" d="M183.81,265.18a20.51,20.51,0,0,0,.36,2.37,6.2,6.2,0,0,0,6.27,4.73q25.67,0,51.33,0c3.84,0,6-2.22,6.63-6.57,14.08,7.21,23.37,18.48,28.13,33.48a66.67,66.67,0,0,1,3,18.93c0,1.15-.36,1.61-1.47,1.52-.35,0-.7,0-1.05,0H153.87c-2.44,0-2.45,0-2.35-2.33a65.8,65.8,0,0,1,5.94-25.8A54,54,0,0,1,183.81,265.18Z"/><path class="cls-5" d="M182.69,199.77a24.2,24.2,0,0,1,8-17.36,14.48,14.48,0,0,1,9.7-4c1.08,0,2,.27,2.07,1.56s-.79,1.7-1.9,1.76c-5.4.3-9,3.39-11.43,7.86a25,25,0,0,0,0,24.68c2.38,4.48,6,7.58,11.38,7.88,1.15.07,2.1.57,2,1.9s-1.16,1.63-2.31,1.53c-5.37-.43-9.46-3.15-12.54-7.39C184.07,213.34,182.61,207.78,182.69,199.77Z"/><path class="cls-6" d="M231.14,181c-5.56-.27-11-3.32-14.52-9.47a7.22,7.22,0,0,1-.63-1.42c-.32-.94-.37-1.9.75-2.32a1.71,1.71,0,0,1,2.36,1.09A14.89,14.89,0,0,0,226,176c6.93,3.64,16.3.64,19.74-6.4.15-.31.28-.63.43-.94.52-1.06,1.3-1.73,2.48-1.16s1,1.49.61,2.53C246.76,176.45,239.89,181,231.14,181Z"/></g><path class="cls-7" d="M225,141.15c-4.07,3.8-8,3.89-12.42.24C206,136,197.91,136.51,191,139.24c-7.24,2.88-8.63,10.43-8.51,17.95.09,5.19.48,10.4-1.06,15.58-2,6.66-3.89,7.54-9.78,4.09-3.39-2-6.29-6.14-11.15-3.13s-4.4,7.68-4.7,12.47c-.53,8.44,4.1,12.76,6.06,20.91.8,3.37,4.59,9.84,3,10.38-2.47.83-10.69-4.07-12.35-5.37-12.59-9.9-16.15-25.85-25.81-37.58-7.81-9.5-4.75-19.62-3.69-29.81a3.34,3.34,0,0,1,1.73-2.44c8.52-2.42,7.74-9,7.39-15.62-.39-7.26,4.24-11.21,10.59-12.5,11.17-2.28,20.73-5.82,29.18-14.81,5.74-6.12,16.48-3.55,24.69-1.21s15.41,5.07,24.11,1.54c6.78-2.75,11.12,2.55,14.26,8,3.93,6.88,3,14.69-2.29,20.19C229,131.72,223.34,134.3,225,141.15Z"/><line class="cls-8" x1="269.16" y1="248.48" x2="280.66" y2="259.97"/><line class="cls-8" x1="299.75" y1="237.13" x2="316.8" y2="244.31"/><line class="cls-8" x1="300.38" y1="222.86" x2="319.54" y2="222.86"/></svg>