<svg id="Layer_1" data-name="Layer 1" xmlns="http://www.w3.org/2000/svg" viewBox="0 0 228.83 221.59"><defs><style>.cls-1{fill:#3e6eb5;}.cls-2{fill:#406eb6;}.cls-3{fill:#d5e7f7;}.cls-4{fill:#d6e7f7;}.cls-5{fill:#fdfeff;}.cls-6{fill:#94bde5;}.cls-7{fill:#fcfdfe;}.cls-8{fill:#95bde5;}.cls-9{fill:#f8fafd;}.cls-10{fill:#3e6eb6;}.cls-11{fill:#406fb6;}.cls-12{fill:#fefeff;}</style></defs><title>images</title><path class="cls-1" d="M103,130.89c1,2.13,2.16,3.77,4.56,4.05.89.09.93,1.06,1.18,1.73.82,2.16,1.63,4.33,2.41,6.51a4.8,4.8,0,0,0,5.12,3.48,29.12,29.12,0,0,0,13.1-3.48,5,5,0,0,0,2.71-5.81c-.25-1.3-.55-2.58-.81-3.88-.42-2.06-1.05-4,1.46-5.52,1.55-.94,1.47-3,1-5.21,2.16,1,3.93,1.79,5.68,2.63,4.71,2.25,9.38,4.59,14.13,6.76,3.6,1.65,7.46-1,6.82-4.66-1.93-11.06-6-21.11-14.44-29-4.25-4-9.53-6.3-14.51-9-2.21-1.21-2.91-2.67-3.16-5C126,63.82,117.09,47,99.71,35c-4.58-3.16-6.89-2.57-9.47,2.41C81.07,55.1,80.15,73.31,87.57,91.72c1.9,4.73,1.9,8.27-1.14,12.38a39.88,39.88,0,0,0-8,25.3c.15,6.35,1.77,12.4,3.75,18.37a4.49,4.49,0,0,0,3.77,3.2,4.75,4.75,0,0,0,4.84-2.39q5.35-7.77,10.69-15.55C101.93,132.36,102.42,131.71,103,130.89Z"/><path class="cls-2" d="M159.51,140.47c-1.11,1.61-2.1,3-3,4.39-.55.87-1.15,2,.12,2.65,1.06.59,1.63-.35,2.12-1.19A16.54,16.54,0,0,1,170,138.05c10.67-2.31,20.94,7.46,19.64,18.72,0,.17,0,.34-.07.52,0,1-.71,2.49.91,2.75,1.78.28,1.64-1.45,1.76-2.51a20,20,0,0,0-4.12-15,18.68,18.68,0,0,0-23.65-5.33,5.14,5.14,0,0,1-3.26.58c-8.65-1.1-15.89,6.39-15.22,15.79.13,1.82-.17,2.65-1.88,3.42-4,1.8-6.17,6.27-5.61,10.85.12,1,.21,2.27,1.57,2.2s1.15-1.27,1.06-2.33c-.39-4.4,1.8-7.84,5.59-8.93s7.25.85,9,4.94c.42.94.81,1.91,1.92,1.48,1.3-.52.87-1.67.5-2.65a9.82,9.82,0,0,0-7.51-6.51,2.25,2.25,0,0,1-2.14-2.26A11.72,11.72,0,0,1,159.51,140.47Z"/><path class="cls-2" d="M59.4,180.75c.07,4.49,2.56,9.47,7.45,13.24.81.63,1.82,1.67,2.79.53s-.21-1.85-1.06-2.51c-5.79-4.51-7.93-11.2-5.72-17.75a16.1,16.1,0,0,1,30.43-.14c.37,1,.53,2.34,2.06,1.75,1.34-.49.74-1.66.44-2.55A14.85,14.85,0,0,0,92.05,167c-1.18-1.11-1.08-1.95-.21-3.11a12.42,12.42,0,0,1,21.32,1.82c.29.58.45,1.23.71,1.84s.86,1.27,1.74,1a1.27,1.27,0,0,0,.73-1.64,12,12,0,0,0-.7-2.1,14.49,14.49,0,0,0-11.91-8.62,14.2,14.2,0,0,0-13.85,6.07c-1,1.41-1.64,1.44-3.09.7C74.23,156.47,59.46,165.23,59.4,180.75Z"/><path class="cls-3" d="M95.34,36.44c-1.53-1-2.36.07-3,1.14a56.81,56.81,0,0,0-7.74,24,65.05,65.05,0,0,0,0,11,1.26,1.26,0,0,0,0,.43c1,10.4,5.6,19.6,10.07,28.84s8.81,18.43,13.5,27.51c1.11,2.17,2.42,3.21,4.89,2.48,5.16-.3,5.15-.3,3.76-5.05q-3.23-11.09-6.4-22.2c-.3-1-1.23-2.39.45-2.93s1.77,1.13,2.07,2.13c2.4,8.17,4.8,16.35,7.07,24.56.5,1.84,1.24,2.24,3,1.46,1.44-.65,3-1,4.35-1.88.12-4.3-.93-8.48-1.52-12.7-1.68-12-3.24-24.1-5.18-36.1a66.63,66.63,0,0,0-20.21-38.34C98.88,39.2,96.87,38.1,95.34,36.44Z"/><path class="cls-4" d="M140.91,97.46,129.4,91c.61,4.21,1.13,7.92,1.69,11.58.78,5.1,1.62,10.18,2.39,15.28a2.32,2.32,0,0,0,1.43,2.1c6,2.64,12,5.35,17.93,8,1.79-.83,1.69-2.33,1.39-3.82C152.22,114.2,148.35,105,140.91,97.46Z"/><path class="cls-3" d="M87.05,105a25.86,25.86,0,0,0-2.83,5c-4.13,10.4-3.31,20.84-.22,31.3.32,1.09.62,2.19,1,3.25.36.89.74,1.9,2,1.32l10.11-15.2a3.72,3.72,0,0,0-.35-3c-2.67-6.79-5.29-13.62-8-20.4C88.5,106.33,88.44,105.07,87.05,105Z"/><path class="cls-5" d="M96.4,36a2.41,2.41,0,0,0,1.09,1.84C110,48.33,116.84,62.1,119.91,78c1.25,6.51,1.75,13.16,2.64,19.75,1,7.63,2.1,15.27,3.23,22.88.37,2.47.18,5,1.28,7.39,3.49-1.59,3.64-1.91,3.12-5.58q-3-20.92-5.8-41.91a65.27,65.27,0,0,0-13.69-32A61.52,61.52,0,0,0,97.48,36.41,4.47,4.47,0,0,0,96.4,36Z"/><path class="cls-6" d="M110.94,131.37c-2,.3-3-.81-3.87-2.77C100.69,114.2,94.23,99.83,88.63,85a49.46,49.46,0,0,1-2.77-11.68c-.06-.5,0-1-.46-1.33a47.78,47.78,0,0,0,3.06,15.91c4.83,13.71,9.85,27.35,14.81,41C104.4,132.06,106.57,132.71,110.94,131.37Z"/><path class="cls-7" d="M139.4,98c.55,2.59,2.71,4.16,4.13,6.16,4.68,6.57,6.64,14.16,8.5,21.75.31,1.26-.38,2.26-.91,3.3,1.71.73,3.34,2.69,5.29,1.31s.46-3.45.13-5.13a46.55,46.55,0,0,0-12.73-24.16A15.08,15.08,0,0,0,139.4,98Z"/><path class="cls-6" d="M89.4,105.93c2,3.23,2.89,6.92,4.28,10.41,2,5.19,3.92,10.46,5.86,15.69,2.25-2.2,2.29-4.43,1-7.42-3-7-5.53-14.25-8.25-21.4a12.23,12.23,0,0,0-.65-1.18A15.6,15.6,0,0,0,89.4,105.93Z"/><path class="cls-8" d="M88.4,147.45c-1,0-1.13-.73-1.41-1.59A65.27,65.27,0,0,1,83.8,122.2c.19-3.83,1.3-7.44,1.87-11.17-2.75,4.17-3.6,9-4.07,14a55.55,55.55,0,0,0,2.84,22.14C85.2,149.55,86.72,149.65,88.4,147.45Z"/><path class="cls-3" d="M123.54,132l-9.12,2.47c-.19,3.25,1.2,6,2.62,8.56.81,1.49,2.39.87,3.69.68a10.44,10.44,0,0,0,4.67-1.69C124.91,138.68,124.87,135.21,123.54,132Z"/><path class="cls-9" d="M123.43,132.93c-.27,2.88,1.39,5.56,1.2,8.45,0,.43.57.57,1,.65,4-1.41,4.12-1.64,3.44-5.08-.11-.55-.21-1.1-.35-1.65C127.78,131.47,127.78,131.47,123.43,132.93Z"/><path class="cls-6" d="M120.4,145.21c-2.65.4-4-1-4.69-3.53-.51-1.93-1.35-3.77-2-5.65-3.76.13-3.76.13-2.55,3.73.14.42.27.83.42,1.24C113.4,146.12,115.11,146.94,120.4,145.21Z"/><path class="cls-6" d="M85.4,72V62A13,13,0,0,0,85.4,72Z"/><path class="cls-10" d="M92.4,65.47a9.38,9.38,0,1,0,2.79-6.74A9.34,9.34,0,0,0,92.4,65.47Z"/><path class="cls-11" d="M108.36,96a1.88,1.88,0,0,0,2-2,1.93,1.93,0,0,0-.58-1.45,1.89,1.89,0,0,0-1.48-.53,2,2,0,0,0,0,4Z"/><path class="cls-12" d="M93.4,65.13a7,7,0,1,0,6.93-7.1A7,7,0,0,0,93.4,65.13Z"/></svg>