<svg id="Layer_1" data-name="Layer 1" xmlns="http://www.w3.org/2000/svg" viewBox="0 0 367.35 345.48"><defs><style>.cls-1{fill:#d6d6d5;}.cls-2{fill:#e0ecf5;}.cls-3{fill:#fee1d8;}.cls-3,.cls-4,.cls-5,.cls-6,.cls-7,.cls-8{stroke:#020202;stroke-miterlimit:10;stroke-width:0.5px;}.cls-4{fill:#2649b8;}.cls-5{fill:#ffe0d1;}.cls-6{fill:#94a3aa;}.cls-7{fill:#f0f1f1;}.cls-8{fill:#d1d6d6;}.cls-9{fill:#443748;}.cls-10{fill:#e7ebf3;}.cls-11{fill:#020200;}</style></defs><title>images</title><circle class="cls-1" cx="176.45" cy="155" r="76.97"/><circle class="cls-2" cx="167.35" cy="151.1" r="76.97"/><polygon class="cls-3" points="198.21 254.49 189.54 248.86 188.9 238.9 196.26 239.12 201.24 239.55 198.21 254.49"/><polygon class="cls-4" points="122.42 241.5 119.39 246.7 117.66 257.95 135.41 258.82 140.61 249.73 147.11 237.17 122.42 241.5"/><polygon class="cls-4" points="127.95 257.79 113.84 243.34 111.92 249.88 111.49 260.19 128.38 261.57 127.95 257.79"/><ellipse class="cls-3" cx="106.85" cy="254.54" rx="6.87" ry="3.73"/><path class="cls-4" d="M138,239.33c.44,1.3,0,19.49,0,19.49l34.21.87-1.73-20.79Z"/><polygon class="cls-4" points="237.83 243.5 230.85 232.62 222.08 241.07 221.91 244.15 237.83 243.5"/><circle class="cls-5" cx="208.79" cy="150.55" r="6.5"/><circle class="cls-5" cx="136.29" cy="150.55" r="6.5"/><polygon class="cls-5" points="136.17 144.93 136.82 169.29 204.38 170.91 208.92 161.82 208.92 157.6 208.6 142.33 203.08 127.39 177.75 122.85 136.17 144.93"/><path class="cls-6" d="M209,141.47s1.3-30.75-13-33.78c0,0-6.06-13.86-36.81-6.5,0,0-5.19,5.63-14.29-3.89,0,0-12.12,3-9.09,47.85,4.33.21,28.8,2.16,52.83-17.76C188.68,127.39,197.12,141,209,141.47Z"/><rect class="cls-7" x="121.23" y="160.2" width="109.45" height="81.84" rx="4"/><polygon class="cls-8" points="158.26 259.25 196.58 259.25 191.06 252.43 191.06 228.4 165.08 228.4 165.08 251.78 158.26 259.25"/><rect class="cls-9" x="73.72" y="257.45" width="204.61" height="5.2" rx="1.32"/><rect class="cls-10" x="228.38" y="125.8" width="80.72" height="4.3" rx="1.32"/><rect class="cls-10" x="240.79" y="138.05" width="80.72" height="4.3" rx="1.32"/><rect class="cls-10" x="229.62" y="149.07" width="80.72" height="4.3" rx="1.32"/><rect class="cls-10" x="33.1" y="84.47" width="79.61" height="4.3" rx="1.32"/><rect class="cls-10" x="45.34" y="96.72" width="79.61" height="4.3" rx="1.32"/><rect class="cls-10" x="34.32" y="107.74" width="79.61" height="4.3" rx="1.32"/><path class="cls-4" d="M196.47,242.66h41a3.81,3.81,0,0,1,3.81,3.81v7.19a3.61,3.61,0,0,1-3.61,3.61H196.47a0,0,0,0,1,0,0V242.66A0,0,0,0,1,196.47,242.66Z"/><ellipse class="cls-3" cx="106.62" cy="247.22" rx="9.09" ry="6.19"/><circle class="cls-1" cx="176.55" cy="199.93" r="10.83"/><circle class="cls-11" cx="155.48" cy="154.74" r="1.52"/><circle class="cls-11" cx="189.88" cy="154.74" r="1.52"/><g id="DLSsNH.tif"><path class="cls-1" d="M59.37,180.24l-9.94-7.45a1.83,1.83,0,0,0-1-.41H20.63a1.74,1.74,0,0,0-.6,0,1.41,1.41,0,0,0-.2,1c0,1.9,0,3.8,0,5.69,0,1.29,0,1.29-1.26,1.29H15.42a1.23,1.23,0,0,0-.89.21V231.7a36,36,0,0,0,4,.06H53.73c.84,0,.89-.05.91-.91,0-.2,0-.4,0-.6,0-1.93,0-3.85,0-5.78,0-.86,0-.89.92-.9,1.18,0,2.37,0,3.56,0,.83,0,.88-.08.88-.88q0-20.58,0-41.16A1.48,1.48,0,0,0,59.37,180.24Zm-6.29,49.4c0,.52-.12.68-.66.68q-17.93,0-35.86,0c-.53,0-.67-.13-.67-.67,0-7.84,0-15.67,0-23.51s0-15.63,0-23.45c0-.58.12-.73.72-.73q12.29,0,24.58,0c.59,0,.75.13.73.73-.06,2.35-.05,4.7-.11,7.05,0,.48.14.59.6.58,3.33,0,6.67,0,10,0,.5,0,.67.1.66.65Q53.07,210.3,53.08,229.64Zm4.82-7.59c-1-.05-1.93,0-2.89,0-.47,0-.59-.11-.59-.58q0-7.23,0-14.45c0-5.73,0-11.46,0-17.19a1.13,1.13,0,0,0-.53-1Q48.69,184.9,43.5,181a1.81,1.81,0,0,0-1.16-.39c-6.74,0-13.48,0-20.21,0-.6,0-.75-.14-.74-.73,0-1.88,0-3.76,0-5.65,0-.39.09-.53.51-.53q12.5,0,25,0c.51,0,.52.23.51.61,0,2.31,0,4.62-.09,6.92,0,.65.1.87.81.86,3.18-.05,6.36,0,9.54,0,1.06,0,.9-.14.9.94q0,9.5,0,19c0,6.44,0,12.89,0,19.34C58.59,221.91,58.47,222.08,57.9,222.05Z"/><path class="cls-1" d="M43.23,182.5l8.4,6.31c-.08.22-.24.13-.35.13H43.77c-.32,0-.56,0-.55-.44C43.24,186.57,43.23,184.63,43.23,182.5Z"/><path class="cls-1" d="M57.29,180.66H53.91c-1.57,0-3.13,0-4.69,0-.37,0-.51-.07-.5-.47,0-1.92,0-3.84,0-5.95Z"/><path class="cls-1" d="M34.4,200.53c-4.36,0-8.73,0-13.09,0-.59,0-.69-.17-.69-.71s.17-.69.71-.68H47.46c.22,0,.58-.15.65.13a2.4,2.4,0,0,1,0,1.13c0,.21-.35.1-.54.1H34.4Z"/><path class="cls-1" d="M34.37,206c-4.36,0-8.73,0-13.09,0-.64,0-.64-.27-.66-.75s.17-.65.68-.65l26.19,0c.22,0,.57-.16.63.15a2.54,2.54,0,0,1,0,1.13c0,.18-.36.08-.55.08Z"/><path class="cls-1" d="M34.43,210.17c4.36,0,8.73,0,13.09,0,.57,0,.64.2.64.68s0,.73-.66.72q-13.09,0-26.19,0c-.57,0-.69-.17-.69-.71s.17-.69.71-.69Q27.89,210.18,34.43,210.17Z"/><path class="cls-2" d="M34.42,215.67c4.36,0,8.73,0,13.09,0,.54,0,.67.16.65.67s0,.74-.65.74q-13.12,0-26.25,0c-.6,0-.63-.24-.63-.7s0-.71.62-.71C25.64,215.68,30,215.67,34.42,215.67Z"/><path class="cls-1" d="M27.55,195c-2.12,0-4.25,0-6.38,0-.63,0-.53-.33-.54-.7s0-.7.56-.69q6.35,0,12.69,0c.72,0,.49.42.53.77s0,.63-.55.62C31.76,195,29.66,195,27.55,195Z"/></g><circle class="cls-10" cx="314.64" cy="127.82" r="1.91"/><circle class="cls-10" cx="323.64" cy="127.82" r="1.91"/><circle class="cls-10" cx="334.27" cy="95.28" r="1.91"/><circle class="cls-10" cx="314.08" cy="151.24" r="1.91"/></svg>