<svg id="Layer_1" data-name="Layer 1" xmlns="http://www.w3.org/2000/svg" xmlns:xlink="http://www.w3.org/1999/xlink" viewBox="0 0 228.83 221.59"><defs><style>.cls-1{fill:#fff;}.cls-1,.cls-2,.cls-3,.cls-4,.cls-5,.cls-6,.cls-7{fill-rule:evenodd;}.cls-2{fill:#263c97;}.cls-3{fill:#263c96;}.cls-4{fill:#283c95;}.cls-5{fill:#f7991d;}.cls-6{fill:#2a3579;}.cls-7{fill:#28397d;}.cls-8{mask:url(#mask);}.cls-9{mask:url(#mask-2-2);}</style><mask id="mask" x="53.78" y="63.74" width="96.55" height="99.69" maskUnits="userSpaceOnUse"><g id="mask-2"><polygon id="path-1" class="cls-1" points="53.78 63.74 150.32 63.74 150.32 163.43 53.78 163.43 53.78 63.74"/></g></mask><mask id="mask-2-2" x="120.89" y="101.07" width="35.19" height="35.31" maskUnits="userSpaceOnUse"><g id="mask-4"><polygon id="path-3" class="cls-1" points="120.89 101.07 156.08 101.07 156.08 136.38 120.89 136.38 120.89 101.07"/></g></mask></defs><title>images</title><g id="Page-1"><g id="Landing-page"><g id="Group-55"><path id="Fill-1" class="cls-2" d="M116.9,144.9c1.32-.07,2.09.58,1.94,1.66a1.52,1.52,0,0,1-1.59,1.35h-28c-1.41,0-2-.53-2-1.92V127.71c0-1,.38-1.57,1.14-1.76a1.51,1.51,0,0,1,1.92,1.55c0,4.16,0,8.31,0,12.47v4.31c0,.23-.08.49.22.61s.38.08.58.08h25.18a.94.94,0,0,0,.57-.07"/><path id="Fill-3" class="cls-3" d="M107.85,88.57H89.11a1.77,1.77,0,0,1-1.44-.48,1.28,1.28,0,0,1-.23-1.55,1.54,1.54,0,0,1,1.5-.84h37.68c1,0,1.53.32,1.76,1.09a1.41,1.41,0,0,1-1.32,1.77H107.85"/><path id="Fill-5" class="cls-3" d="M92.46,80.89c-1.22,0-2.44,0-3.66,0a1.43,1.43,0,1,1,0-2.86h37.8a1.64,1.64,0,0,1,1.6.78,1.41,1.41,0,0,1-1.11,2.06,1.79,1.79,0,0,0-.65,0H93.12a1.63,1.63,0,0,0-.66,0"/><path id="Fill-7" class="cls-2" d="M126.13,97.12c-.43.17-.85-.05-1.28,0-.7,0-1.41,0-2.12,0-.17-.14-.38-.07-.57-.07H89a1.45,1.45,0,0,0-.51,0,1.42,1.42,0,0,1-1.18-1.45,1.52,1.52,0,0,1,1.4-1.31,4.66,4.66,0,0,1,.65,0h36.26a2.1,2.1,0,0,1,1.08.12.53.53,0,0,1,.15.39,1.48,1.48,0,0,0,.58,1.35.2.2,0,0,1,.07.22c-.06.22-.26.33-.43.47-.63.06-1.4-.59-1.29-1.14.07-.34,0-.4-.31-.35s-.4-.21-.69-.24a1.14,1.14,0,0,0,.55,1,1.55,1.55,0,0,1,.83.93"/><path id="Fill-9" class="cls-2" d="M119.82,103a2,2,0,0,1-2.1.89c-.88-.09-1.74,0-2.61-.06H90.05a6,6,0,0,0-1.59,0,1.38,1.38,0,0,1-1.18-1.47,1.54,1.54,0,0,1,1.5-1.3c.29,0,.58,0,.87,0h28.56a1.11,1.11,0,0,1,.65.1c.14.69.77,1.18,1,1.85"/><path id="Fill-11" class="cls-4" d="M94.88,111.54H88.94a1.54,1.54,0,0,1-1.62-1.09,1.4,1.4,0,0,1,.65-1.53,2,2,0,0,1,1.07-.25h11.75c1.11,0,1.81.59,1.8,1.45s-.74,1.41-1.84,1.41H94.88"/><path id="Fill-13" class="cls-5" d="M111.2,137c0-1.86,0-3.72,0-5.58a1.53,1.53,0,0,1,1.43-1.7,1.47,1.47,0,0,1,1.43,1.62q0,5.57,0,11.15a1.44,1.44,0,1,1-2.85-.05V137Z"/><path id="Fill-15" class="cls-5" d="M99.73,138.8c0-1.19,0-2.37,0-3.56s.57-1.68,1.46-1.68a1.5,1.5,0,0,1,1.39,1.64q0,3.59,0,7.18c0,1.05-.61,1.73-1.44,1.71s-1.41-.65-1.42-1.73,0-2.37,0-3.56Z"/><path id="Fill-17" class="cls-5" d="M108.33,139.77c0,.92,0,1.83,0,2.75a1.53,1.53,0,0,1-1,1.51,1.37,1.37,0,0,1-1.6-.7.84.84,0,0,1-.14-.42,56.24,56.24,0,0,1,0-6.09,1.32,1.32,0,0,1,1.46-1.35,1.41,1.41,0,0,1,1.31,1.48c0,.94,0,1.88,0,2.82Z"/><path id="Fill-19" class="cls-5" d="M94,141.23c0-.51,0-1,0-1.54a1.38,1.38,0,0,1,1.46-1.35,1.41,1.41,0,0,1,1.4,1.35c0,1,0,2,0,3a1.34,1.34,0,0,1-1.48,1.43A1.36,1.36,0,0,1,94,142.6v-1.37"/><path id="Fill-21" class="cls-2" d="M88.23,103.57c.17-.68.4-.41.61-.41,8.13,0,16.25,0,24.38,0,.27,0,.62-.84.85.38-.17.41-.37.27-.56.27H89.32c-.36,0-.73.17-1.09-.28"/><path id="Fill-23" class="cls-2" d="M89.19,96.25c.18-.18.41-.1.63-.1q16.58,0,33.16,0c.22,0,.49-.1.67.14l-.66,0q-16.24,0-32.5,0a4.74,4.74,0,0,1-1.3-.07"/><path id="Fill-25" class="cls-6" d="M92.06,81c.23-.21.51-.12.76-.12h33.07c.21,0,.44-.07.63.11-.22,0-.44,0-.66,0H92.72c-.22,0-.44,0-.66,0"/><path id="Fill-27" class="cls-2" d="M77.66,139.19a1.63,1.63,0,0,1-1.17,1.05,1.37,1.37,0,0,1-1.58-.88,1.57,1.57,0,0,1,.63-1.79,1.36,1.36,0,0,1,1.8.42,4.8,4.8,0,0,1,.32.54,1.23,1.23,0,0,1,0,.66"/><path id="Fill-29" class="cls-7" d="M117,146c-.2.22-.46.12-.7.12q-12.68,0-25.35,0c-.25,0-.54.11-.75-.13.15,0,.31,0,.46,0h25.87a3.75,3.75,0,0,1,.47,0"/><path id="Fill-31" class="cls-2" d="M126.77,96.22c-.33-.24-.47-.67-.91-.82-.25-.09-.18-.52-.3-.78,0-.06.09-.22.18-.28s.16.07.22.14.25.29.45.09.17-.06.25,0,.16.18.07.26c-.42.36,0,.55.15.77s.29.45.59.39a.82.82,0,0,1-.7.2"/><path id="Fill-33" class="cls-2" d="M128.25,95.27a1.65,1.65,0,0,1-.73-1.91c.94.48,1.09.89.73,1.91"/><path id="Fill-35" class="cls-2" d="M61.43,65.6c-.21.41-.61.56-1,.78.16.2.3.4.45.57s.21.27,0,.44a.34.34,0,0,1-.51,0c-.27-.21-.34-.75-.85-.57a6.78,6.78,0,0,1,1.91-1.23"/><path id="Fill-37" class="cls-2" d="M119.7,102.93c-.35-.6-1-1.05-.82-1.92.87.35,1.11.92.82,1.92"/><path id="Fill-39" class="cls-2" d="M77.64,137.39a.87.87,0,0,1-.89-.92.89.89,0,0,1,.89-1,7.26,7.26,0,0,1,0,1.92"/><path id="Fill-41" class="cls-2" d="M58.55,65.6a1.67,1.67,0,0,1-1.9,1.91,6.78,6.78,0,0,1,1.9-1.91"/><path id="Fill-43" class="cls-2" d="M74.86,140.26c.16.13.32.25.5.09s.32,0,.4.17-.07.35-.18.45-.47.35-.75.11l0-.82"/><g id="Group-47"><g class="cls-8"><path id="Fill-45" class="cls-2" d="M74.89,80.27c0,.52-.33.41-.62.41H57.43c-.44,0-.62-.08-.6-.56a40.11,40.11,0,0,1,.23-6.1,9,9,0,0,1,17.74.86c.19,1.79,0,3.59.09,5.38m74.25,80.1a3.91,3.91,0,0,0-.84-.06,8.94,8.94,0,0,1-8.47-8.45c-.07-3.63,0-7.27,0-10.91a1.56,1.56,0,1,0-3.11,0c0,3.48,0,7,0,10.46a11.92,11.92,0,0,0,1.49,5.71,14.28,14.28,0,0,0,2.49,3.19H87a8.16,8.16,0,0,1-1.31-.07,9,9,0,0,1-7.75-9.15q0-6.25,0-12.5c-.31,0-.34.29-.5.45a1.27,1.27,0,1,1-1.83-1.75,1.2,1.2,0,0,1,1.79.12c.17.18.21.5.53.5,0-.34,0-.68,0-1-.76-.74-.76-.87,0-1.61,0-.22,0-.44,0-.66V75.77a12,12,0,0,0-1.87-6.4,16.78,16.78,0,0,0-2-2.47,3,3,0,0,1,1.11-.06h51.4a15.16,15.16,0,0,1,2.61.11,9.14,9.14,0,0,1,7.56,9.2c-.08,6.53,0,13.06,0,19.6,0,1.12.57,1.81,1.53,1.81s1.56-.64,1.56-1.78q0-9.93,0-19.86A11.69,11.69,0,0,0,138,69.56a11.91,11.91,0,0,0-10.58-5.81c-5.64,0-11.28,0-16.92,0H65.86a11.5,11.5,0,0,0-5.12,1.17,6,6,0,0,1-.63.46c-.6.32-.6.33-.21.94.06.11.19.22.07.34s-.28,0-.4-.06-.25-.24-.38-.35-.36-.27-.55,0h0a1.74,1.74,0,0,1-1.45,1.3A5.23,5.23,0,0,0,56,68.94a11.2,11.2,0,0,0-2.24,6.85c0,2.06,0,4.12,0,6.18,0,1.23.57,1.78,1.81,1.78,6.16,0,12.32,0,18.48,0,.66,0,.82.16.82.83q0,26.26,0,52.52c0,1,0,2,0,3,.17.4.59.16.86.33-.18.42-.58.34-.89.43-.18.34,0,.66,0,1,0,3.13,0,6.27,0,9.4a11.81,11.81,0,0,0,.53,3.69,12.08,12.08,0,0,0,11.89,8.54h60.26c.44,0,.87,0,1.31,0a1.52,1.52,0,0,0,1.44-1.36,1.55,1.55,0,0,0-1.17-1.68"/></g></g><g id="Group-50"><g class="cls-9"><path id="Fill-48" class="cls-5" d="M150.09,127.51c-.27.37-.44.35-.74,0q-4.07-4.31-8.17-8.59c-.4-.41-.51-.64,0-1.1q4.08-4,8.1-8.12c.32-.32.46-.26.68,0a14.39,14.39,0,0,1,3,8.13l0,.81a14.73,14.73,0,0,1-2.92,8.8m-2.94,3A14.59,14.59,0,0,1,138,133.3a14.57,14.57,0,0,1-1.61-29c.5-.08.59.11.59.54,0,2.25,0,4.5,0,6.75h0c0,2.19,0,4.37,0,6.56a2,2,0,0,0,.6,1.46l9.64,10.08c.28.29.42.45,0,.76M140,105.08c0-.87-.17-.88.85-.72a15.13,15.13,0,0,1,6.19,2.59c.39.26.2.39,0,.61l-6.9,6.93a.84.84,0,0,1-.12-.63c0-2.93,0-5.85,0-8.78m-1.38-4a17.66,17.66,0,1,0,17.44,17.87,17.55,17.55,0,0,0-17.44-17.87"/></g></g><path id="Fill-51" class="cls-2" d="M115,101.4c0,.41-.15.57-.46.57s-.49,0-.5-.34a.57.57,0,0,1,.53-.61c.29,0,.36.22.43.38"/><path id="Fill-53" class="cls-2" d="M77.7,138.12c0,.66-.44,1.22-.92,1.18a1,1,0,1,1,0-1.91.86.86,0,0,1,1,.73"/></g></g></g></svg>