<?xml version="1.0" encoding="UTF-8"?>
<svg width="53px" height="52px" viewBox="0 0 53 52" version="1.1" xmlns="http://www.w3.org/2000/svg" xmlns:xlink="http://www.w3.org/1999/xlink">
    <!-- Generator: Sketch 57.1 (83088) - https://sketch.com -->
    <title>Group 5</title>
    <desc>Created with Sketch.</desc>
    <g id="Page-1" stroke="none" stroke-width="1" fill="none" fill-rule="evenodd">
        <g id="Landing-page-Copy" transform="translate(-80.000000, -33.000000)">
            <g id="Group-5" transform="translate(80.000000, 32.000000)">
                <path d="M26.1664,33.1401 L26.1664,19.0311" id="Stroke-1" stroke="#FFFFFF" stroke-width="4" stroke-linecap="round"></path>
                <g id="Group-4" transform="translate(0.000000, 0.570800)" fill="#FFFFFF">
                    <path d="M52.2392,31.9082 C52.2392,26.3582 52.4492,20.7992 52.1822,15.2662 C51.8702,8.7502 49.4352,4.3362 43.4812,2.1382 C40.8662,1.1732 38.1112,0.7782 35.3472,0.7432 C29.2092,0.6552 23.0662,0.6592 16.9272,0.7432 C14.6242,0.7732 12.3382,1.1372 10.0922,1.7562 C4.2432,3.3712 1.2642,7.3722 0.3562,13.1812 C0.0712,14.9892 0.0442,16.8022 0.0442,18.6182 C0.0402,28.5342 0.1062,38.4502 -0.000228280702,48.3612 C-0.0308,50.9412 1.6242,52.4722 3.9532,52.3852 C5.4932,52.3282 7.0292,52.3102 8.5692,52.3052 L8.5692,52.3232 L12.5092,52.3232 C13.6812,52.3322 14.8522,52.3412 16.0282,52.3412 C16.0682,52.3452 16.1202,52.3412 16.1692,52.3412 L16.3702,52.3412 C16.5072,52.3412 16.6382,52.3372 16.7702,52.3232 L20.4642,52.3232 L20.4642,50.4452 L20.4642,49.8452 C20.4642,47.0542 18.2262,44.7862 15.4532,44.7422 C15.4232,44.7372 15.3922,44.7372 15.3612,44.7372 L14.0102,44.7372 L10.2592,44.7372 L8.5692,44.7372 L8.5692,44.7602 C7.8102,44.7632 7.6172,44.5092 7.6212,43.7592 C7.6742,34.5272 7.6352,25.2962 7.7492,16.0642 C7.8012,11.6552 10.5002,8.8112 14.9672,8.3822 C21.8552,7.7232 28.7702,8.1662 35.6762,8.1452 C36.7462,8.1402 37.8352,8.4082 38.8832,8.6842 C42.3712,9.5972 44.5432,12.2212 44.5742,15.8762 C44.6492,25.1992 44.6002,34.5232 44.6312,43.8462 C44.6352,44.5792 44.4032,44.7632 43.7052,44.7512 C43.6922,44.7502 43.6732,44.7512 43.6592,44.7512 L37.0252,44.7512 C36.9942,44.7512 36.9632,44.7512 36.9322,44.7562 C34.1592,44.8002 31.9222,47.0682 31.9222,49.8582 L31.9222,52.3382 L43.8172,52.3382 L43.8172,52.2922 L48.6242,52.3542 C51.0762,52.3452 52.3182,51.1352 52.3272,48.6902 C52.3442,43.0962 52.3312,37.5022 52.3312,31.9082 L52.2392,31.9082 Z" id="Fill-3"></path>
                </g>
            </g>
        </g>
    </g>
</svg>