<svg id="Layer_1" data-name="Layer 1" xmlns="http://www.w3.org/2000/svg" xmlns:xlink="http://www.w3.org/1999/xlink" viewBox="0 0 63 63"><defs><style>.cls-1{fill:url(#linear-gradient);}.cls-2{fill:url(#linear-gradient-2);}.cls-3{fill:url(#linear-gradient-3);}.cls-4{fill:url(#linear-gradient-4);}.cls-5{fill:url(#linear-gradient-5);}.cls-6{fill:url(#linear-gradient-6);}.cls-7{fill:url(#linear-gradient-7);}.cls-8{fill:url(#linear-gradient-8);}.cls-9{fill:url(#linear-gradient-9);}.cls-10{fill:url(#linear-gradient-10);}</style><linearGradient id="linear-gradient" x1="3.06" y1="44.35" x2="57.48" y2="44.35" gradientUnits="userSpaceOnUse"><stop offset="0" stop-color="#0067ff"/><stop offset="1" stop-color="#77ffa2"/></linearGradient><linearGradient id="linear-gradient-2" x1="8.53" y1="19.03" x2="62.13" y2="19.03" xlink:href="#linear-gradient"/><linearGradient id="linear-gradient-3" x1="36.77" y1="30.23" x2="53.68" y2="30.23" xlink:href="#linear-gradient"/><linearGradient id="linear-gradient-4" x1="32.4" y1="13.54" x2="33.58" y2="13.54" xlink:href="#linear-gradient"/><linearGradient id="linear-gradient-5" x1="40.35" y1="15.99" x2="43.23" y2="15.99" xlink:href="#linear-gradient"/><linearGradient id="linear-gradient-6" x1="40.17" y1="46.35" x2="43.07" y2="46.35" xlink:href="#linear-gradient"/><linearGradient id="linear-gradient-7" x1="22.7" y1="46.23" x2="25.56" y2="46.23" xlink:href="#linear-gradient"/><linearGradient id="linear-gradient-8" x1="22.77" y1="15.89" x2="25.69" y2="15.89" xlink:href="#linear-gradient"/><linearGradient id="linear-gradient-9" x1="32.38" y1="48.64" x2="33.38" y2="48.64" xlink:href="#linear-gradient"/><linearGradient id="linear-gradient-10" x1="12.01" y1="30.69" x2="39.75" y2="30.69" xlink:href="#linear-gradient"/></defs><title>mock_vector</title><g id="ZErrdF.tif"><path class="cls-1" d="M5.32,31.91,4,33.46c-.21.24-.49.41-.78.17s-.23-.6,0-.87l2.32-2.32a.62.62,0,0,1,1,0L9,32.76c.23.24.38.5.12.79s-.61.2-.85-.08A10.72,10.72,0,0,0,6.9,32.1a7.18,7.18,0,0,0,0,3.36c2,10.76,8.26,17.9,18.74,21.09C36.31,59.78,48.48,55,54.41,45.62a32.4,32.4,0,0,0,1.94-3.57c.16-.35.26-.87.81-.63s.28.66.12,1A26.17,26.17,0,0,1,45.42,55.27,26.93,26.93,0,0,1,8.36,43.43,25.37,25.37,0,0,1,5.72,33.7c0-.46-.06-.92-.1-1.38C5.61,32.26,5.54,32.21,5.32,31.91Z"/><path class="cls-2" d="M60,31.63c.42-.51.84-1,1.27-1.51a.47.47,0,0,1,.71-.1.5.5,0,0,1,0,.79q-1.22,1.25-2.46,2.46c-.34.33-.65.21-1-.09l-2.25-2.25c-.25-.25-.48-.54-.16-.86s.68-.12.93.18a7.24,7.24,0,0,0,1.25,1.29,7.58,7.58,0,0,0,.1-2.91A26,26,0,0,0,28.9,5.88,25.44,25.44,0,0,0,10,18.84c-.14.23-.28.45-.4.69s-.38.59-.77.39-.29-.53-.13-.85a25,25,0,0,1,2.5-3.94A27,27,0,0,1,57.6,21.38a27.84,27.84,0,0,1,2,9.58,3.91,3.91,0,0,0,0,.48Z"/><path class="cls-3" d="M40.55,23.26l.6,0a10.07,10.07,0,0,1,2.91.92c1,.35,1.86-.63,2.92-.45a3.88,3.88,0,0,1,3.07,2.08,1.92,1.92,0,0,0,.85.91,5.18,5.18,0,0,1-3.11,9.73,2.14,2.14,0,0,0-1.4.25,3.54,3.54,0,0,1-3.26.1,2.7,2.7,0,0,0-1.88-.29c-.29.07-.68.17-.73-.37s.19-.59.62-.66a2.82,2.82,0,0,1,2.32.32,2.25,2.25,0,0,0,2.7-.17,1.48,1.48,0,0,1,1.36-.27,4.16,4.16,0,0,0,2.57-7.89,1.21,1.21,0,0,1-.79-.77A2.69,2.69,0,0,0,45,25.4c-.49.37-.75.27-1.17,0a5.49,5.49,0,0,0-5.92-.45c-.45.23-.78.33-1-.18s.31-.57.56-.72A6.07,6.07,0,0,1,40.55,23.26Z"/><path class="cls-4" d="M33.58,13.69c0,.49,0,1,0,1.48s-.16.66-.64.65-.55-.26-.54-.64V12c0-.4.09-.73.58-.73s.6.32.6.73C33.57,12.56,33.58,13.12,33.58,13.69Z"/><path class="cls-5" d="M41,18.1c-.4-.16-.85-.33-.57-.85.57-1.08,1.19-2.13,1.81-3.19.15-.25.38-.21.6-.07s.49.21.33.5c-.63,1.16-1.28,2.31-1.94,3.46C41.2,18,41.09,18.05,41,18.1Z"/><path class="cls-6" d="M43.07,47.91c0,.19-.21.32-.41.44s-.48,0-.62-.28l-1.79-3a.35.35,0,0,1,.08-.52c.19-.13.38-.28.64-.19A19.53,19.53,0,0,1,43.07,47.91Z"/><path class="cls-7" d="M25.56,44.78c-.1.2-.2.41-.32.61-.49.86-1,1.71-1.48,2.56-.16.27-.33.5-.72.3s-.42-.45-.21-.81c.57-1,1.14-2,1.71-3,.12-.21.24-.45.52-.22S25.58,44.42,25.56,44.78Z"/><path class="cls-8" d="M23.29,13.84c.37,0,.47.26.61.49l1.67,2.79c.19.3.18.52-.19.71s-.55.15-.74-.18l-1.76-3.08C22.56,14,23,14,23.29,13.84Z"/><path class="cls-9" d="M32.38,48.64c0-.55,0-1.11,0-1.67,0-.38.17-.53.55-.52s.45.2.45.51v3.35c0,.37-.17.53-.54.52s-.46-.2-.46-.51Z"/><path class="cls-10" d="M37.83,29a2.73,2.73,0,0,1-1.11-1.54,8.4,8.4,0,0,0-12.24-4.42,1.26,1.26,0,0,1-1.44,0,4.69,4.69,0,0,0-6.47,2.17,2,2,0,0,1-1,1A6.25,6.25,0,0,0,12,31.91a6.53,6.53,0,0,0,7.7,6.64,1.53,1.53,0,0,1,1.21.18,4.58,4.58,0,0,0,5.07,0,1.35,1.35,0,0,1,1.12-.18,7.14,7.14,0,0,0,4.76-.43,6.48,6.48,0,0,1,3.21-.59,4.49,4.49,0,0,0,4.45-3.29A4.64,4.64,0,0,0,37.83,29Zm.65,5.17A3.7,3.7,0,0,1,34,36.4a1.45,1.45,0,0,0-1.29.18A7.17,7.17,0,0,1,27,37.5a1.43,1.43,0,0,0-1.36.21,3.51,3.51,0,0,1-4.34,0,1.55,1.55,0,0,0-1.44-.25c-3.58.85-6.88-1.83-6.81-5.94A5.34,5.34,0,0,1,16.43,27a1.41,1.41,0,0,0,.9-.91,3.67,3.67,0,0,1,5.82-1.74.79.79,0,0,0,1.18,0A7.34,7.34,0,0,1,36,28.62a1.36,1.36,0,0,0,.76.94A3.69,3.69,0,0,1,38.48,34.21Z"/></g></svg>