<svg id="Layer_1" data-name="Layer 1" xmlns="http://www.w3.org/2000/svg" xmlns:xlink="http://www.w3.org/1999/xlink" viewBox="0 0 63 63"><defs><style>.cls-1{fill:url(#linear-gradient);}.cls-2{fill:url(#linear-gradient-2);}.cls-3{fill:url(#linear-gradient-3);}.cls-4{fill:url(#linear-gradient-4);}</style><linearGradient id="linear-gradient" x1="14.19" y1="23.36" x2="47.72" y2="23.36" gradientUnits="userSpaceOnUse"><stop offset="0" stop-color="#0067ff"/><stop offset="1" stop-color="#77ffa2"/></linearGradient><linearGradient id="linear-gradient-2" x1="19.02" y1="23.71" x2="42.98" y2="23.71" xlink:href="#linear-gradient"/><linearGradient id="linear-gradient-3" x1="20.75" y1="44.71" x2="41.19" y2="44.71" xlink:href="#linear-gradient"/><linearGradient id="linear-gradient-4" x1="24.76" y1="25.44" x2="37.17" y2="25.44" xlink:href="#linear-gradient"/></defs><title>mock_vector</title><g id="fnuUZ4.tif"><path class="cls-1" d="M14.19,25.73a16.76,16.76,0,0,1,33.33-2.84,16.5,16.5,0,0,1-5,14.73c-.61.59-1.31.59-1.67,0s-.06-1,.37-1.43a14.68,14.68,0,0,0,4-6.58,14.84,14.84,0,1,0-28.9-6.45,14.37,14.37,0,0,0,3.9,12.5c.71.76.83,1.27.37,1.73s-1,.36-1.77-.41A16.45,16.45,0,0,1,14.19,25.73Z"/><path class="cls-2" d="M31.86,13.43a11.35,11.35,0,0,1,10,7.23c2,4.7,1.12,9.06-2.26,12.9a1,1,0,1,1-1.42-1.28,10,10,0,1,0-17-9,9.69,9.69,0,0,0,1.94,8.39c.15.19.32.36.47.55a1,1,0,1,1-1.49,1.22,11.85,11.85,0,0,1-2.83-5.53C17.69,20.44,23.4,13.41,31.86,13.43Z"/><path class="cls-3" d="M40.81,41.64a9.12,9.12,0,0,0-6.93-6.8,18.88,18.88,0,0,0-5-.12,6.44,6.44,0,0,0-2.39.61,9.9,9.9,0,0,0-5.27,11.92c.65,2.2,1.43,4.36,2.15,6.53.29.88.49,1,1.42,1h6.18c2.12,0,4.24,0,6.36,0a1.18,1.18,0,0,0,1.28-.89c.67-2.07,1.37-4.14,2-6.21A10,10,0,0,0,40.81,41.64ZM38.74,47.3c-.58,1.69-1.15,3.38-1.69,5.09a.59.59,0,0,1-.68.5c-1.82,0-3.63,0-5.45,0s-3.59,0-5.38,0a.55.55,0,0,1-.64-.46c-.58-1.79-1.21-3.56-1.78-5.34a8.12,8.12,0,0,1,3.15-9.48,5.87,5.87,0,0,1,3.4-1,23.23,23.23,0,0,1,3.54.07,7.46,7.46,0,0,1,5.9,6.1A9.17,9.17,0,0,1,38.74,47.3Z"/><path class="cls-4" d="M31,19.24a6.21,6.21,0,1,0,6.13,6.21A6.17,6.17,0,0,0,31,19.24Zm-.11,10.5a4.3,4.3,0,1,1,4.34-4.33A4.34,4.34,0,0,1,30.93,29.74Z"/></g></svg>