<svg id="Layer_1" data-name="Layer 1" xmlns="http://www.w3.org/2000/svg" xmlns:xlink="http://www.w3.org/1999/xlink" viewBox="0 0 63 63"><defs><style>.cls-1{fill:url(#linear-gradient);}.cls-2{fill:url(#linear-gradient-2);}.cls-3{fill:url(#linear-gradient-3);}.cls-4{fill:url(#linear-gradient-4);}.cls-5{fill:url(#linear-gradient-5);}.cls-6{fill:url(#linear-gradient-6);}.cls-7{fill:url(#linear-gradient-7);}.cls-8{fill:url(#linear-gradient-8);}.cls-9{fill:url(#linear-gradient-9);}.cls-10{fill:url(#linear-gradient-10);}</style><linearGradient id="linear-gradient" x1="14.94" y1="6.58" x2="49.45" y2="6.58" gradientUnits="userSpaceOnUse"><stop offset="0" stop-color="#0067ff"/><stop offset="1" stop-color="#77ffa2"/></linearGradient><linearGradient id="linear-gradient-2" x1="53.58" y1="32.16" x2="60.97" y2="32.16" xlink:href="#linear-gradient"/><linearGradient id="linear-gradient-3" x1="3.43" y1="32.04" x2="10.78" y2="32.04" xlink:href="#linear-gradient"/><linearGradient id="linear-gradient-4" x1="14.81" y1="56.84" x2="49.31" y2="56.84" xlink:href="#linear-gradient"/><linearGradient id="linear-gradient-5" x1="52.59" y1="9.03" x2="58.16" y2="9.03" xlink:href="#linear-gradient"/><linearGradient id="linear-gradient-6" x1="52.31" y1="54.68" x2="57.91" y2="54.68" xlink:href="#linear-gradient"/><linearGradient id="linear-gradient-7" x1="6.09" y1="54.47" x2="11.58" y2="54.47" xlink:href="#linear-gradient"/><linearGradient id="linear-gradient-8" x1="6.35" y1="8.88" x2="11.93" y2="8.88" xlink:href="#linear-gradient"/><linearGradient id="linear-gradient-9" x1="14.85" y1="40.28" x2="49.38" y2="40.28" xlink:href="#linear-gradient"/><linearGradient id="linear-gradient-10" x1="23.97" y1="20.48" x2="40.38" y2="20.48" xlink:href="#linear-gradient"/></defs><title>mock_vector</title><g id="dojAAI.tif"><path class="cls-1" d="M47.08,5.93c-.68-.62-1.24-1.13-1.8-1.66s-.5-.78-.18-1.09.75-.2,1.1.12c.9.82,1.82,1.63,2.72,2.44.69.62.7,1,0,1.66L46.21,9.9a.92.92,0,0,1-.78.29.57.57,0,0,1-.51-.4.52.52,0,0,1,.18-.62L47,7.49c-.16-.18-.37-.09-.54-.09L16,7.27a3.62,3.62,0,0,1-.47,0,.69.69,0,0,1-.61-.73.67.67,0,0,1,.58-.69,3.43,3.43,0,0,1,.64,0l30.07.12Z"/><path class="cls-2" d="M58.09,47l.6-.66c.4-.44.8-.89,1.22-1.32a.68.68,0,0,1,.85-.14c.31.18.2.5.14.78a1.08,1.08,0,0,1-.34.52l-2.8,3c-.37.4-.68.41-1,0-1-1-1.9-2.09-2.84-3.14-.41-.45-.42-.77-.06-1.1s.72-.26,1.1.15l1.72,1.92v-.73L56.79,16a5.62,5.62,0,0,1,0-.58.63.63,0,0,1,.67-.59.67.67,0,0,1,.73.61c0,.21,0,.42,0,.63q-.06,15.27-.13,30.52Z"/><path class="cls-3" d="M7.78,17.15c0,3.91,0,7.66,0,11.41q0,9.81-.08,19.62a2.46,2.46,0,0,1,0,.47.7.7,0,0,1-.88.61c-.37-.12-.71-.32-.39-.82.06-.08,0-.23,0-.34l.12-30.59v-.39c-.66.72-1.23,1.33-1.78,1.95a.67.67,0,0,1-1,.16.64.64,0,0,1-.13-1c.94-1.05,1.9-2.09,2.87-3.11a.85.85,0,0,1,1.35.07L10.43,18c.42.46.46.94.12,1.23s-.76.14-1.16-.29S8.39,17.82,7.78,17.15Z"/><path class="cls-4" d="M17.17,57.45,19,59.17c.43.4.47.74.15,1.09s-.68.33-1.1-.06c-.95-.87-1.91-1.75-2.85-2.64-.59-.54-.57-1,0-1.54L18,53.52c.46-.41.93-.46,1.22-.13s.17.76-.27,1.16-1.12,1-1.69,1.53c.14.17.33.09.48.09L48,56.3a5.3,5.3,0,0,1,.69,0c.32,0,.63.18.64.55a.67.67,0,0,1-.65.7,4.51,4.51,0,0,1-.52,0l-30.28-.12Z"/><path class="cls-5" d="M58.15,10.25c0,.4,0,.81,0,1.22a.72.72,0,1,1-1.43,0c0-.69,0-1.39,0-2.09a2,2,0,0,0-2-2H53.26a.62.62,0,0,1-.67-.65c0-.39.15-.73.57-.75a8,8,0,0,1,2.59.1,3.28,3.28,0,0,1,2.41,3.13C58.17,9.51,58.15,9.88,58.15,10.25Z"/><path class="cls-6" d="M57.9,53.59A11.66,11.66,0,0,1,57.84,55a3.27,3.27,0,0,1-3.05,2.77c-.58,0-1.16,0-1.74,0a.66.66,0,0,1-.74-.71c0-.49.3-.72.78-.72s1,0,1.45,0a2,2,0,0,0,2-2c0-.66,0-1.32,0-2a.69.69,0,0,1,.73-.79c.51,0,.62.38.63.8S57.9,53.11,57.9,53.59Z"/><path class="cls-7" d="M6.1,53.34c0-.5,0-.87,0-1.23,0-.55.3-.88.74-.84s.71.39.7.89,0,1.27,0,1.91a2,2,0,0,0,2.08,2.08h1.33c.32,0,.6.09.63.45a.73.73,0,0,1-.42.86,4,4,0,0,1-4.9-2.24A6,6,0,0,1,6.1,53.34Z"/><path class="cls-8" d="M6.39,10.06a9.84,9.84,0,0,1,0-1.33A3.3,3.3,0,0,1,9.66,5.78c.48,0,1,0,1.45,0s.84.15.82.68-.38.6-.82.58-.85,0-1.28,0a2,2,0,0,0-2,2c0,.69,0,1.39,0,2.09,0,.53-.31.87-.75.83s-.69-.36-.7-.83,0-.73,0-1.1Z"/><path class="cls-9" d="M49.17,40.59A13,13,0,0,0,36.82,30.12a1.06,1.06,0,0,0-1,.64c-.4.8-.81,1.58-1.22,2.37l-2.36,4.55c-1-2-2-3.94-3-5.87s-.93-1.81-3-1.62A12.79,12.79,0,0,0,14.9,42.3c-.06,2.32,0,4.64-.05,7,0,.87.18,1,1.05,1,2.44,0,4.88,0,7.32,0l25.07.11c.86,0,1.06-.2,1.06-1.06,0-1.61,0-3.21,0-4.82A22.24,22.24,0,0,0,49.17,40.59ZM47.44,49c-1.22,0-2.44,0-3.66,0-.36,0-.41-.17-.44-.45l-.69-5.46c0-.32-.12-.62-.46-.74a.66.66,0,0,0-.65.16c-.27.23-.19.53-.15.81.22,1.72.43,3.45.69,5.17.07.43,0,.51-.43.5-3.19,0-6.39,0-9.58,0l-9.52,0c-.42,0-.51-.08-.44-.51.28-1.77.52-3.56.78-5.33.05-.42,0-.75-.52-.81s-.7.16-.76.64c-.22,1.76-.5,3.52-.7,5.28-.06.59-.26.76-.84.73-1.1,0-2.21,0-3.31,0-.18,0-.4.07-.39-.26a71.77,71.77,0,0,1,.16-7.48,10.79,10.79,0,0,1,6.88-8.84,10.7,10.7,0,0,1,3.53-.82.65.65,0,0,1,.75.44c1.19,2.42,2.4,4.83,3.6,7.25.18.34.36.66.8.66s.55-.35.71-.66c1.23-2.41,2.46-4.81,3.68-7.22a.66.66,0,0,1,.74-.43A11.56,11.56,0,0,1,47.65,40.8a27.23,27.23,0,0,1,.19,4.69c0,1,0,2,0,3.07C47.84,48.86,47.8,49,47.44,49Z"/><path class="cls-10" d="M32.23,12.27a8.21,8.21,0,1,0,8.14,8.27A8.27,8.27,0,0,0,32.23,12.27ZM32.1,27.32A6.85,6.85,0,1,1,39,20.59,6.86,6.86,0,0,1,32.1,27.32Z"/></g></svg>