<svg id="Layer_1" data-name="Layer 1" xmlns="http://www.w3.org/2000/svg" xmlns:xlink="http://www.w3.org/1999/xlink" viewBox="0 0 63 63"><defs><style>.cls-1{fill:url(#linear-gradient);}.cls-2{fill:url(#linear-gradient-2);}.cls-3{fill:url(#linear-gradient-3);}.cls-4{fill:url(#linear-gradient-4);}.cls-5{fill:url(#linear-gradient-5);}</style><linearGradient id="linear-gradient" x1="48.59" y1="36.9" x2="48.66" y2="36.9" gradientUnits="userSpaceOnUse"><stop offset="0" stop-color="#0067ff"/><stop offset="1" stop-color="#77ffa2"/></linearGradient><linearGradient id="linear-gradient-2" x1="25.53" y1="5.33" x2="27.13" y2="5.33" xlink:href="#linear-gradient"/><linearGradient id="linear-gradient-3" x1="13.67" y1="17.22" x2="38.95" y2="17.22" xlink:href="#linear-gradient"/><linearGradient id="linear-gradient-4" x1="17.95" y1="16.75" x2="34.65" y2="16.75" xlink:href="#linear-gradient"/><linearGradient id="linear-gradient-5" x1="13.13" y1="37.43" x2="48.66" y2="37.43" xlink:href="#linear-gradient"/></defs><title>mock_vector</title><g id="_5yGUCr.tif" data-name="5yGUCr.tif"><path class="cls-1" d="M48.66,39.84c-.11-.05-.06-.14-.06-.22V34.05s0-.06,0-.08,0,0,0,0Z"/><path class="cls-2" d="M27.12,5.26a.06.06,0,0,0,0,0,.2.2,0,0,1-.12.08,7.72,7.72,0,0,1-1.36,0,.2.2,0,0,1-.12-.08.06.06,0,0,0,0,0Z"/><path class="cls-3" d="M25.53,5.3h1.6A12.09,12.09,0,0,1,36.8,11,12.51,12.51,0,0,1,37,24.69a.79.79,0,0,1-1.16.37.81.81,0,0,1-.21-1.18,11.24,11.24,0,0,0,1.66-6A11.12,11.12,0,0,0,28.17,7,11,11,0,0,0,15.63,15.2,11,11,0,0,0,19,26.38a10.21,10.21,0,0,0,1.68,1.23A.8.8,0,1,1,19.84,29a12.51,12.51,0,0,1-6-9,12.71,12.71,0,0,1,8.59-14.1A11.41,11.41,0,0,1,25.53,5.3Z"/><path class="cls-4" d="M19.53,18.57a7,7,0,0,0,.95,3.54,1,1,0,0,1,.19.61.79.79,0,0,1-.6.7.78.78,0,0,1-.89-.39A8.24,8.24,0,0,1,18.06,20a8.29,8.29,0,0,1,1.88-6.87,7.85,7.85,0,0,1,8-2.84,8.06,8.06,0,0,1,6.34,5.88,8.34,8.34,0,0,1-.43,6.07.8.8,0,1,1-1.44-.66,7,7,0,0,0-2.19-8.6,6.7,6.7,0,0,0-10.36,3.54A7.57,7.57,0,0,0,19.53,18.57Z"/><path class="cls-5" d="M48.63,39.54V34.27a.76.76,0,0,0,0-.3A3.72,3.72,0,0,0,46,30.64a4.28,4.28,0,0,0-2.6,0,.73.73,0,0,1-1.06-.54.42.42,0,0,1,0-.1,3.78,3.78,0,0,0-2.43-2.45,3.43,3.43,0,0,0-3,.21.71.71,0,0,1-1.14-.24,3.75,3.75,0,0,0-4.36-1.51c-.66.24-1.06-.07-1.06-.78,0-2.1,0-4.21,0-6.31a3.63,3.63,0,0,0-1.93-3.4,4,4,0,0,0-4.18.13A3.65,3.65,0,0,0,22.5,19c0,5.19,0,10.39,0,15.59v.29a.7.7,0,0,1-.91.62,1,1,0,0,1-.42-.32,13.53,13.53,0,0,0-2.36-2.24,4.14,4.14,0,0,0-3.25-.88,2.76,2.76,0,0,0-2.38,2.36,5.1,5.1,0,0,0,.38,2.7,64.39,64.39,0,0,0,3.86,8,44.3,44.3,0,0,0,4.26,6.58c.84,1,1.7,2.06,2.43,3.17a7.4,7.4,0,0,1,1.31,4c0,.71.25.93,1,.93H44.6c.72,0,1-.23,1-1a28.47,28.47,0,0,1,.3-3.91c.29-2,.77-3.86,1.25-5.77a43.59,43.59,0,0,0,1.5-8.78s0-.1,0-.11v-.46A.61.61,0,0,1,48.63,39.54Zm-2,3.28c-.28,1.87-.75,3.7-1.18,5.53-.53,2.18-1.06,4.36-1.38,6.59-.11.81-.18,1.64-.23,2.46a.69.69,0,0,1-.77.74H27.72a.67.67,0,0,1-.76-.6,7.74,7.74,0,0,0-1.83-4c-.86-1.07-1.79-2.07-2.62-3.17a50.84,50.84,0,0,1-3.76-5.94,58.4,58.4,0,0,1-3.6-7.37,5.9,5.9,0,0,1-.46-2A1.18,1.18,0,0,1,16,33.68a2.31,2.31,0,0,1,1.53.43A13.44,13.44,0,0,1,21,38a15.38,15.38,0,0,1,1.21,2.31,1.94,1.94,0,0,1,.16.82c0,.3,0,.6,0,.9,0,.6.29.89.85.89S24,42.62,24,42V19.17a3.06,3.06,0,0,1,.12-1,2.18,2.18,0,0,1,2.47-1.45,2.11,2.11,0,0,1,1.86,2c0,.18,0,.36,0,.54V32.55c0,.11,0,.22,0,.34a.77.77,0,0,0,.86.79.75.75,0,0,0,.82-.83c0-1,0-2,0-3.05a2.13,2.13,0,0,1,1.75-2.23,2.18,2.18,0,0,1,2.71,2c0,.15,0,.3,0,.45v4.26c0,.59.28.89.81.89a.76.76,0,0,0,.87-.83c0-1,0-1.94,0-2.91a3.18,3.18,0,0,1,.08-.81,2.13,2.13,0,0,1,2.37-1.59,2.09,2.09,0,0,1,2,1.89,5.44,5.44,0,0,1,0,.57c0,1.43,0,2.87,0,4.31,0,.67.32,1,1,.9a.69.69,0,0,0,.68-.64c.06-.52,0-1.05,0-1.57a3.34,3.34,0,0,1,.11-.89,2.15,2.15,0,0,1,2.45-1.47,2,2,0,0,1,1.88,2A53.84,53.84,0,0,1,46.67,42.82Z"/></g></svg>