<svg id="Layer_1" data-name="Layer 1" xmlns="http://www.w3.org/2000/svg" xmlns:xlink="http://www.w3.org/1999/xlink" viewBox="0 0 63 63"><defs><style>.cls-1{fill:url(#linear-gradient);}.cls-2{fill:url(#linear-gradient-2);}.cls-3{fill:url(#linear-gradient-3);}.cls-4{fill:url(#linear-gradient-4);}</style><linearGradient id="linear-gradient" x1="9.72" y1="31.09" x2="45.46" y2="31.09" gradientUnits="userSpaceOnUse"><stop offset="0" stop-color="#0067ff"/><stop offset="1" stop-color="#77ffa2"/></linearGradient><linearGradient id="linear-gradient-2" x1="40.95" y1="15.57" x2="47.64" y2="15.57" xlink:href="#linear-gradient"/><linearGradient id="linear-gradient-3" x1="45.01" y1="31.43" x2="51.7" y2="31.43" xlink:href="#linear-gradient"/><linearGradient id="linear-gradient-4" x1="41" y1="46.34" x2="47.69" y2="46.34" xlink:href="#linear-gradient"/></defs><title>mock_vector</title><g id="MEFoWZ.tif"><path class="cls-1" d="M45.45,31.77a4.16,4.16,0,0,1,0-.61c0-1,0-1-1-1-2.88,0-5.76,0-8.64,0-.48,0-.61-.13-.6-.61,0-1.45,0-2.9,0-4.35,0-.49.11-.66.64-.65,1.7,0,3.4,0,5.1,0,.12-.19.26-.36.37-.56l2.94-5.29a.47.47,0,0,0-.32-.37c-.52-.11-1-.54-1.55-.37-.77,1.39-1.55,2.77-2.3,4.17a.7.7,0,0,1-.74.44c-1.14,0-2.28,0-3.41,0-.58,0-.77-.11-.76-.74,0-3,0-6,0-9a6.71,6.71,0,1,0-13.41.46c0,.45,0,.57-.53.56a5.52,5.52,0,0,0-4.87,2.5,6.6,6.6,0,0,0-.87,6.22c.13.38.15.53-.32.61a5.08,5.08,0,0,0-2.15,1,8.15,8.15,0,0,0-3.17,8.08c.45,3.24,2.07,5.69,5.47,6.57.31.08.33.19.22.46a6.7,6.7,0,0,0-.42,2.81,6.17,6.17,0,0,0,6.06,6c.58,0,.6.14.58.62A6.5,6.5,0,0,0,25,55a6.33,6.33,0,0,0,6.8.11,6.52,6.52,0,0,0,3.4-6c0-2.89,0-5.77,0-8.66,0-.42.08-.6.56-.59,1.2,0,2.41,0,3.61,0a.67.67,0,0,1,.71.38c.69,1.3,1.41,2.59,2.12,3.88a.35.35,0,0,0,.44.14,9.41,9.41,0,0,1,1-.42c.22-.06.44-.11.46-.39-.93-1.66-1.87-3.32-2.77-5a1,1,0,0,0-1-.58c-1.52,0-3,0-4.57,0-.48,0-.61-.14-.6-.61,0-1.5,0-3,0-4.49,0-.45.12-.58.57-.58,3.18,0,6.36,0,9.54,0C45.47,32.12,45.48,32,45.45,31.77ZM18.9,29.53c1,1.36,1.89,2.73,2.87,4.06.28.38.24.59-.1.88-.7.61-1.35,1.28-2.05,1.9-.27.24-.25.39,0,.65,1,1.14,1,1.14,2.14.1l6.1-5.75a1.31,1.31,0,0,1,1-.41c1.27,0,2.55,0,3.82,0,.31,0,.51,0,.5.43,0,4.31,0,8.63,0,12.93-1.21-.13-2.38,0-3.55-.06h-.07c-.57.42-.16,1-.27,1.53-.07.3.05.46.4.45.61,0,1.23,0,1.84,0a.86.86,0,0,1,.84.43,4.67,4.67,0,0,1-.69,6,4.74,4.74,0,0,1-6.13.32A4.61,4.61,0,0,1,24.24,47a33.07,33.07,0,0,1,2.57-3.35c.34-.4.29-.59-.11-.89-1.1-.81-1.09-.83-1.93.25-.54.7-1.14,1.36-1.62,2.1a2.38,2.38,0,0,1-2.68,1c-2.66-.47-4.15-3.62-3-6.3.07-.16.17-.32.24-.49.13-.33.6-.56.49-.91a8.32,8.32,0,0,0-.77-1.36c-.11-.18-.26-.15-.42-.13a4.24,4.24,0,0,1-4.36-2.43,6.81,6.81,0,0,1,0-7A4.24,4.24,0,0,1,17,25.1a.46.46,0,0,0,.53-.3,2.51,2.51,0,0,1,.32-.52c.42-.49.34-.88,0-1.42A4.75,4.75,0,0,1,18.38,17a3.61,3.61,0,0,1,2.48-1.15A2.15,2.15,0,0,1,23.19,17a15.6,15.6,0,0,0,.92,1.51h0a1.31,1.31,0,0,1,.4.63h0a28.26,28.26,0,0,1,.06,4c0,.57.15.72.72.7,1.28-.05,1.28,0,1.28-1.28v-.27a13.61,13.61,0,0,0-.1-3.73,14.08,14.08,0,0,0-2-3.22,4.58,4.58,0,0,1,.63-5.85,4.66,4.66,0,0,1,5.79-.41,4.74,4.74,0,0,1,1.39,6.39c-.24.39-.49.64-1,.56a3.23,3.23,0,0,0-.54,0c-1.21,0-1.17,0-1.22,1.21,0,.63.15.84.78.78a16.14,16.14,0,0,1,1.84,0,1,1,0,0,0,1-.47v.7c0,3.34,0,6.68,0,10,0,.62-.18.75-.76.73-1.45,0-2.91,0-4.36,0a1.36,1.36,0,0,0-1,.4c-1,1-2.06,1.92-3.06,2.91-.37.37-.53.29-.79-.1-1-1.51-2.12-3-3.16-4.52-.25-.37-.42-.4-.78-.14C18.09,28.37,18.07,28.35,18.9,29.53Z"/></g><circle class="cls-2" cx="44.3" cy="15.57" r="3.35"/><circle class="cls-3" cx="48.35" cy="31.43" r="3.35"/><circle class="cls-4" cx="44.34" cy="46.34" r="3.35"/></svg>