<svg id="Layer_1" data-name="Layer 1" xmlns="http://www.w3.org/2000/svg" xmlns:xlink="http://www.w3.org/1999/xlink" viewBox="0 0 63 63"><defs><style>.cls-1{fill:url(#linear-gradient);}.cls-2{fill:url(#linear-gradient-2);}.cls-3{fill:url(#linear-gradient-3);}.cls-4{fill:url(#linear-gradient-4);}.cls-5{fill:url(#linear-gradient-5);}.cls-6{fill:url(#linear-gradient-6);}.cls-7{fill:url(#linear-gradient-7);}.cls-8{fill:url(#linear-gradient-8);}.cls-9{fill:url(#linear-gradient-9);}.cls-10{fill:url(#linear-gradient-10);}.cls-11{fill:url(#linear-gradient-11);}</style><linearGradient id="linear-gradient" x1="44.63" y1="46.66" x2="45" y2="46.66" gradientUnits="userSpaceOnUse"><stop offset="0" stop-color="#0067ff"/><stop offset="1" stop-color="#77ffa2"/></linearGradient><linearGradient id="linear-gradient-2" x1="7.58" y1="33.37" x2="53.2" y2="33.37" xlink:href="#linear-gradient"/><linearGradient id="linear-gradient-3" x1="42.22" y1="28.52" x2="44.9" y2="28.52" xlink:href="#linear-gradient"/><linearGradient id="linear-gradient-4" x1="42.43" y1="41" x2="43.76" y2="41" xlink:href="#linear-gradient"/><linearGradient id="linear-gradient-5" x1="40.02" y1="32.84" x2="41.33" y2="32.84" xlink:href="#linear-gradient"/><linearGradient id="linear-gradient-6" x1="43.27" y1="43.72" x2="44.55" y2="43.72" xlink:href="#linear-gradient"/><linearGradient id="linear-gradient-7" x1="38.4" y1="27.39" x2="39.66" y2="27.39" xlink:href="#linear-gradient"/><linearGradient id="linear-gradient-8" x1="40.84" y1="35.57" x2="42.1" y2="35.57" xlink:href="#linear-gradient"/><linearGradient id="linear-gradient-9" x1="41.62" y1="38.28" x2="42.91" y2="38.28" xlink:href="#linear-gradient"/><linearGradient id="linear-gradient-10" x1="44.04" y1="46.43" x2="45.35" y2="46.43" xlink:href="#linear-gradient"/><linearGradient id="linear-gradient-11" x1="39.19" y1="30.12" x2="40.47" y2="30.12" xlink:href="#linear-gradient"/></defs><title>mock_vector</title><g id="jYkMjq.tif"><path class="cls-1" d="M44.64,46.36c-.08.33.21.43.36.6C44.9,46.76,45,46.43,44.64,46.36Z"/><path class="cls-2" d="M53,43c-.78-2.7-1.62-5.39-2.38-8.1-1-3.57-2.31-7-3-10.71a2.7,2.7,0,0,0-1.93-2L18.52,11.58c-2-.76-3.27-.14-4,1.86q-3,7.64-6,15.27c-1.58,4-1.42,4.46,2.51,6.12a1,1,0,0,1,.74,1.07c0,1.43,0,2.87,0,4.3s0,2.63,0,3.94c0,2,1,3,3,3.07a5.14,5.14,0,0,0,1.11,0c.85-.15,1.13.31,1.32,1,.46,1.65,1,3.29,1.46,4.93.61,2,1.86,2.72,3.93,2.11l28.26-8.42C52.92,46.21,53.59,45,53,43ZM10.88,33.36c-2.13-.8-2.31-1.1-1.5-3.21.73-1.89,1.48-3.77,2.23-5.65h.15c0,2.74,0,5.49,0,8.23C11.78,33.47,11.65,33.64,10.88,33.36Zm1.19-10c.38-1,.77-2,1.15-3,.86-2.21,1.7-4.42,2.56-6.62.37-.92,1-1.39,2-1l24,9.31s.07.14.15.31c-8.95,0-17.82,0-26.68,0A4.27,4.27,0,0,0,12.07,23.33Zm1,1.58c0-.91.77-1.26,1.67-1.26,2,0,3.94,0,5.92,0H41.11v.21L21.17,29.8c-1.84.55-3.67,1.14-5.52,1.64a4,4,0,0,0-2.59,1.85C13.06,30.5,13,27.7,13.09,24.91Zm1.6,20.93a1.45,1.45,0,0,1-1.64-1.66V35.37l.26,0,3.13,10.5ZM51,45.34a36.7,36.7,0,0,1-6,1.7L45,47l.06.08c-2.91,1.18-6,1.87-9,2.78-4.64,1.42-9.3,2.78-14,4.16-1.28.37-1.83.1-2.21-1.16Q17.27,43.94,14.62,35c-.37-1.25,0-1.86,1.19-2.23,9.49-2.82,19-5.62,28.49-8.47,1.11-.33,1.75,0,2.06,1.05q2.74,9.14,5.46,18.27A1.23,1.23,0,0,1,51,45.34Z"/><path class="cls-3" d="M44.9,28.54a1.21,1.21,0,0,1-1.27,1.31,1.23,1.23,0,0,1-1.41-1.31,1.25,1.25,0,0,1,1.27-1.36A1.29,1.29,0,0,1,44.9,28.54Z"/><path class="cls-4" d="M43.76,41c-.14.32-.23.66-.66.62a.65.65,0,0,1-.67-.7.56.56,0,0,1,.64-.58A.68.68,0,0,1,43.76,41Z"/><path class="cls-5" d="M40.8,32.2a.6.6,0,0,1,.53.6.65.65,0,0,1-.7.67.63.63,0,0,1-.61-.74C40.06,32.35,40.31,32.18,40.8,32.2Z"/><path class="cls-6" d="M44.12,44.35c-.56,0-.79-.22-.84-.57a.56.56,0,0,1,.52-.69.61.61,0,0,1,.75.61C44.55,44,44.38,44.34,44.12,44.35Z"/><path class="cls-7" d="M39.05,26.75c.4.07.63.29.61.66A.59.59,0,0,1,39,28a.61.61,0,0,1-.64-.71C38.42,26.92,38.72,26.79,39.05,26.75Z"/><path class="cls-8" d="M41.56,34.94a.58.58,0,0,1,.54.64.62.62,0,0,1-.75.61.61.61,0,0,1-.51-.71C40.88,35.1,41.13,34.93,41.56,34.94Z"/><path class="cls-9" d="M42.91,38.28c-.13.48-.33.71-.73.62a.61.61,0,0,1-.55-.68.6.6,0,0,1,.78-.55A.62.62,0,0,1,42.91,38.28Z"/><path class="cls-10" d="M45.06,47.05a.73.73,0,0,1-1-.46.58.58,0,0,1,.3-.72.59.59,0,0,1,.77.11c.39.39.14.72-.09,1.06Z"/><path class="cls-11" d="M40.47,30.1c-.07.37-.24.67-.62.65a.64.64,0,0,1-.66-.71.6.6,0,0,1,.68-.55C40.27,29.5,40.42,29.77,40.47,30.1Z"/></g></svg>