<svg id="Layer_1" data-name="Layer 1" xmlns="http://www.w3.org/2000/svg" xmlns:xlink="http://www.w3.org/1999/xlink" viewBox="0 0 1004.91 674.99"><defs><style>.cls-1{fill:#ededfd;}.cls-2{fill:#0064ff;}.cls-10,.cls-12,.cls-13,.cls-14,.cls-15,.cls-16,.cls-17,.cls-18,.cls-3,.cls-4,.cls-44,.cls-53,.cls-54,.cls-55,.cls-6,.cls-67,.cls-68,.cls-7,.cls-8,.cls-9{fill:none;}.cls-3,.cls-4{stroke:#0064ff;stroke-width:0.75px;}.cls-10,.cls-12,.cls-13,.cls-14,.cls-15,.cls-16,.cls-17,.cls-18,.cls-3,.cls-4,.cls-44,.cls-53,.cls-54,.cls-55,.cls-6,.cls-67,.cls-68,.cls-69,.cls-7,.cls-8,.cls-9{stroke-miterlimit:10;}.cls-4{stroke-dasharray:2.01 2.01;}.cls-5{fill:url(#linear-gradient);}.cls-10,.cls-12,.cls-13,.cls-14,.cls-15,.cls-16,.cls-17,.cls-18,.cls-44,.cls-53,.cls-54,.cls-55,.cls-6,.cls-67,.cls-7,.cls-8,.cls-9{stroke-linecap:round;}.cls-6{stroke:url(#linear-gradient-2);}.cls-7{stroke:url(#linear-gradient-3);}.cls-8{stroke:url(#linear-gradient-4);}.cls-9{stroke:url(#linear-gradient-5);}.cls-10{stroke:url(#linear-gradient-6);}.cls-11{fill:url(#linear-gradient-7);}.cls-12,.cls-13,.cls-14,.cls-15,.cls-16,.cls-17,.cls-18,.cls-53,.cls-54,.cls-55{stroke-width:0.5px;}.cls-12{stroke:url(#linear-gradient-8);}.cls-13{stroke:url(#linear-gradient-9);}.cls-14{stroke:url(#linear-gradient-10);}.cls-15{stroke:url(#linear-gradient-11);}.cls-16{stroke:url(#linear-gradient-12);}.cls-17{stroke:url(#linear-gradient-13);}.cls-18{stroke:url(#linear-gradient-14);}.cls-19{fill:url(#linear-gradient-15);}.cls-20{fill:url(#linear-gradient-16);}.cls-21{fill:url(#linear-gradient-17);}.cls-22{fill:url(#linear-gradient-18);}.cls-23{fill:#8f8f8f;}.cls-24{fill:#f0f0f0;}.cls-25{fill:#fff;}.cls-26{fill:url(#linear-gradient-19);}.cls-27{fill:#ccc;}.cls-28{fill:#f5f7ff;}.cls-29{fill:#78c2ff;}.cls-30{fill:#f3f3f3;}.cls-31{fill:#eef0f7;}.cls-32{fill:#e0e0e0;}.cls-33{fill:#b8b8b8;}.cls-34{fill:#d9d9d9;}.cls-35{fill:url(#linear-gradient-20);}.cls-36{fill:url(#linear-gradient-21);}.cls-37{fill:#f5f5f5;}.cls-38{fill:#e1e1e1;}.cls-39{fill:#275a63;}.cls-40{fill:#162d38;}.cls-41{fill:#2f5d66;}.cls-42{fill:#334146;}.cls-43{fill:#2a5b6a;}.cls-44{stroke:#000;}.cls-45{fill:#2f5a65;}.cls-46{fill:#103038;}.cls-47{fill:#fffeff;}.cls-48{fill:#ba6d7c;}.cls-49{fill:#fffdfe;}.cls-50{fill:url(#linear-gradient-22);}.cls-51{fill:url(#linear-gradient-23);}.cls-52{fill:url(#linear-gradient-24);}.cls-53{stroke:url(#linear-gradient-25);}.cls-54{stroke:url(#linear-gradient-26);}.cls-55{stroke:url(#linear-gradient-27);}.cls-56{fill:#ff3857;}.cls-57{fill:#fd9088;}.cls-58{fill:#40375f;}.cls-59{fill:#642b3f;}.cls-60{fill:#fb5f69;}.cls-61{fill:#642c3f;}.cls-62{fill:#451f2b;}.cls-63,.cls-69{fill:#f7a9a4;}.cls-64{fill:#fb606b;}.cls-65{fill:#fa606a;}.cls-66{fill:#66cce9;opacity:0.4;}.cls-67,.cls-68,.cls-69{stroke:#f7a9a4;}</style><linearGradient id="linear-gradient" x1="42.49" y1="524.74" x2="125.75" y2="524.74" gradientUnits="userSpaceOnUse"><stop offset="0" stop-color="#40d5e6"/><stop offset="1" stop-color="#57f"/></linearGradient><linearGradient id="linear-gradient-2" x1="54.71" y1="538.25" x2="113.1" y2="538.25" gradientUnits="userSpaceOnUse"><stop offset="0" stop-color="#fff" stop-opacity="0"/><stop offset="0.14" stop-color="#777" stop-opacity="0.53"/><stop offset="1"/></linearGradient><linearGradient id="linear-gradient-3" x1="86.82" y1="552.19" x2="86.82" y2="565.79" gradientUnits="userSpaceOnUse"><stop offset="0" stop-color="#fff" stop-opacity="0"/><stop offset="0.15" stop-color="#838383" stop-opacity="0.49"/><stop offset="1"/></linearGradient><linearGradient id="linear-gradient-4" x1="63.04" y1="524.62" x2="84.41" y2="524.62" gradientUnits="userSpaceOnUse"><stop offset="0" stop-color="#fff" stop-opacity="0"/><stop offset="1"/></linearGradient><linearGradient id="linear-gradient-5" x1="84.05" y1="502.57" x2="84.05" y2="525.64" gradientUnits="userSpaceOnUse"><stop offset="0" stop-color="#fff" stop-opacity="0"/><stop offset="0.13" stop-color="#a8a8a8" stop-opacity="0.34"/><stop offset="1"/></linearGradient><linearGradient id="linear-gradient-6" x1="108.89" y1="529.1" x2="108.89" y2="562.43" xlink:href="#linear-gradient-3"/><linearGradient id="linear-gradient-7" x1="418.79" y1="531.01" x2="471.33" y2="531.01" gradientUnits="userSpaceOnUse"><stop offset="0" stop-color="#ff9340"/><stop offset="1" stop-color="#ffce45"/></linearGradient><linearGradient id="linear-gradient-8" x1="446.49" y1="498.62" x2="446.49" y2="585.08" xlink:href="#linear-gradient-2"/><linearGradient id="linear-gradient-9" x1="458.6" y1="526.46" x2="458.6" y2="530.37" xlink:href="#linear-gradient-2"/><linearGradient id="linear-gradient-10" x1="449.36" y1="546.43" x2="449.36" y2="550.34" xlink:href="#linear-gradient-2"/><linearGradient id="linear-gradient-11" x1="441.56" y1="563.25" x2="441.56" y2="567.17" xlink:href="#linear-gradient-2"/><linearGradient id="linear-gradient-12" x1="430.87" y1="553.48" x2="430.87" y2="567.1" xlink:href="#linear-gradient-2"/><linearGradient id="linear-gradient-13" x1="439.87" y1="535.56" x2="439.87" y2="550.39" xlink:href="#linear-gradient-2"/><linearGradient id="linear-gradient-14" x1="449.51" y1="514.73" x2="449.51" y2="530.03" xlink:href="#linear-gradient-2"/><linearGradient id="linear-gradient-15" x1="-977.86" y1="272.3" x2="-868.72" y2="272.3" gradientTransform="matrix(-1, -0.05, -0.05, 1, -551.46, 10.74)" xlink:href="#linear-gradient"/><linearGradient id="linear-gradient-16" x1="-1731.06" y1="-125.43" x2="-1731.06" y2="-205.69" gradientTransform="translate(1795.99 -665.59) rotate(-41.45)" xlink:href="#linear-gradient"/><linearGradient id="linear-gradient-17" x1="-967.21" y1="236.8" x2="-915.5" y2="236.8" gradientTransform="matrix(-1, -0.05, -0.05, 1, -551.46, 10.74)" xlink:href="#linear-gradient"/><linearGradient id="linear-gradient-18" x1="-823.09" y1="246.04" x2="-823.09" y2="165.74" gradientTransform="translate(995.92 -276.26) rotate(-29.45)" xlink:href="#linear-gradient"/><linearGradient id="linear-gradient-19" x1="397.34" y1="242.83" x2="708.93" y2="242.83" gradientTransform="translate(1106.27 485.65) rotate(-180)" xlink:href="#linear-gradient"/><linearGradient id="linear-gradient-20" x1="601.82" y1="306.89" x2="429.78" y2="306.89" xlink:href="#linear-gradient"/><linearGradient id="linear-gradient-21" x1="414.65" y1="302.45" x2="583.35" y2="302.45" xlink:href="#linear-gradient"/><linearGradient id="linear-gradient-22" x1="114.39" y1="549.38" x2="133.33" y2="549.38" xlink:href="#linear-gradient-7"/><linearGradient id="linear-gradient-23" x1="104.11" y1="544.86" x2="114.36" y2="544.86" gradientUnits="userSpaceOnUse"><stop offset="0" stop-color="#c97332"/><stop offset="1" stop-color="#ffce45"/></linearGradient><linearGradient id="linear-gradient-24" x1="92.41" y1="570.03" x2="110.05" y2="570.03" xlink:href="#linear-gradient-7"/><linearGradient id="linear-gradient-25" x1="120.9" y1="543.92" x2="120.9" y2="585.58" xlink:href="#linear-gradient-2"/><linearGradient id="linear-gradient-26" x1="110.4" y1="538.67" x2="110.4" y2="586.08" xlink:href="#linear-gradient-2"/><linearGradient id="linear-gradient-27" x1="106.06" y1="567.76" x2="106.06" y2="586.13" xlink:href="#linear-gradient-2"/></defs><title>performance_image</title><ellipse class="cls-1" cx="879.49" cy="513.27" rx="71.43" ry="77.13"/><polygon class="cls-2" points="192.96 273.52 206.49 280.51 207.07 302.14 271.75 257.62 191.2 255.07 198.84 265.88 235.89 261.43 192.96 273.52"/><path class="cls-3" d="M202.35,283.76l-.92.4"/><path class="cls-4" d="M199.6,285c-29.19,12.93-275.74,126.51,1.86,156.64"/><path class="cls-3" d="M202.47,441.71l1,.11"/><path class="cls-5" d="M106.63,573S66,584.53,55.05,547.1c-2.26-8.58,10.19-7,19.4-3.68,4.53,1.58,5.82-7.17-2.75-9.62S42.76,520.86,51,515.44s21.5-2.45,3.39-14S44.22,478,44.22,478s12.12-14.52,26.68,18.37c6,13.29,9.54,1.57,8.08-2.62,1.13-5.08,9.7-7,12.94,7.34s-1.3,43,17.14,14.52,26.52,19.24-1.94,57"/><path class="cls-6" d="M112.6,585.55S95.31,530.83,55.21,491"/><path class="cls-7" d="M104.29,565.29c-5.82-3.94-14.8-8.4-34.93-12.6"/><path class="cls-8" d="M83.91,527.24A69.68,69.68,0,0,0,63.54,522"/><path class="cls-9" d="M83.19,525.14s0-16.56,1.72-22.07"/><path class="cls-10" d="M103.31,561.93s1.7-19.73,11.16-32.33"/><path class="cls-11" d="M431.32,573.67s24.74.53,29.59-10.76-10.92-5-10.92-5,30.56-17.06,3.4-17.84c0,0,33-22.3,8-20.73,0,0,14.07-23.35,8.73-29.91s-15.28,18.1-16.25,23.61c0,0-15.52-19.15-9.7,20.73,0,0-17.22-20.73-11.64,12.86C432.53,546.65,402.45,521.46,431.32,573.67Z"/><path class="cls-12" d="M427.37,584.83c.47-2.59-.83.1,38.25-86"/><line class="cls-13" x1="451.69" y1="530.12" x2="465.52" y2="526.71"/><line class="cls-14" x1="442.44" y1="550.09" x2="456.27" y2="546.68"/><line class="cls-15" x1="434.65" y1="566.92" x2="448.48" y2="563.5"/><line class="cls-16" x1="434.55" y1="566.85" x2="427.2" y2="553.73"/><line class="cls-17" x1="442.4" y1="550.14" x2="437.33" y2="535.81"/><line class="cls-18" x1="451.37" y1="529.78" x2="447.65" y2="514.98"/><path class="cls-19" d="M400.34,338.52c7.05,16.66,11,32.41,5.82,39.44a8.48,8.48,0,0,1-1,1.14c-4,3.81-11.86,3.9-25.15-1.78-35.35-15.1-37-41.17-44.18-66.63-7.05-25.14-31.67-20.89-32.3-20.78C360.89,268.29,388.37,310.3,400.34,338.52Z"/><path class="cls-20" d="M406.16,378a8.48,8.48,0,0,1-1,1.14c-6.64-4.33-19.35-13.5-25.35-23.8a157.09,157.09,0,0,1-7.72-16.11c-4.76-10.94-9.69-22.25-18.29-30.92l1-1.12c8.8,8.88,13.78,20.32,18.6,31.39A153.16,153.16,0,0,0,381,354.49C386.84,364.54,399.69,373.75,406.16,378Z"/><path class="cls-21" d="M394.19,345.33c-.41,1.11-.68,1.73-.71,1.8-.11-.61-.22-1.22-.32-1.8-4.72-26.14-11-28.87-29.94-51.74C343.89,270.2,355,248.42,355,248.42,419.8,268.67,398.6,333.64,394.19,345.33Z"/><path class="cls-22" d="M394.19,345.33c-.41,1.11-.68,1.73-.71,1.8-.11-.61-.22-1.22-.32-1.8,2.1-22.6-10.51-49.12-14.47-53.87-4.09-4.93-6.62-11.71-7.57-14.26-.16-.42-.31-.83-.36-.92l.91-.56a10.8,10.8,0,0,1,.42,1c.93,2.51,3.41,9.15,7.38,13.92C384.49,296.73,396.12,323.37,394.19,345.33Z"/><rect class="cls-23" x="533.56" y="451.51" width="39.15" height="128.64" transform="translate(1106.27 1031.65) rotate(180)"/><rect class="cls-24" x="384.1" y="255.49" width="338.07" height="257.99" rx="61.33" transform="translate(1106.27 768.96) rotate(180)"/><rect class="cls-25" x="397.34" y="228.03" width="311.59" height="245.02" transform="translate(1106.27 701.07) rotate(180)"/><rect class="cls-26" x="397.34" y="228.03" width="311.59" height="29.59" transform="translate(1106.27 485.65) rotate(180)"/><rect class="cls-27" x="465.07" y="575.29" width="176.14" height="9.71"/><rect class="cls-28" x="410.36" y="237.23" width="44.44" height="11.18" rx="2.74"/><path class="cls-29" d="M625.66,432.76h10.58a5.94,5.94,0,0,1,5.94,5.94v12.42a5.94,5.94,0,0,1-5.94,5.94H625.66a5.95,5.95,0,0,1-5.95-5.95V438.71a5.94,5.94,0,0,1,5.94-5.94Z"/><path class="cls-30" d="M630.24,450.27l-5.68-5.36a1.28,1.28,0,0,1-.11-1.7,1.06,1.06,0,0,1,1.58-.12l4,3.79,5.73-6.91a1.06,1.06,0,0,1,1.58-.1,1.27,1.27,0,0,1,.08,1.71Z"/><path class="cls-29" d="M637.08,420.05H624.83a5.35,5.35,0,0,1-5.12-5.54V401.26a5.35,5.35,0,0,1,5.12-5.54h12.25a5.35,5.35,0,0,1,5.12,5.54v13.25A5.35,5.35,0,0,1,637.08,420.05Zm-12.25-22.79a3.86,3.86,0,0,0-3.69,4v13.25a3.85,3.85,0,0,0,3.69,4h12.25a3.85,3.85,0,0,0,3.69-4V401.26a3.86,3.86,0,0,0-3.69-4Z"/><path class="cls-29" d="M670.91,457.08H658.66a5.35,5.35,0,0,1-5.12-5.54V438.29a5.35,5.35,0,0,1,5.12-5.54h12.25a5.35,5.35,0,0,1,5.12,5.54v13.25A5.35,5.35,0,0,1,670.91,457.08ZM658.66,434.3a3.85,3.85,0,0,0-3.69,4v13.25a3.85,3.85,0,0,0,3.69,4h12.25a3.85,3.85,0,0,0,3.69-4V438.29a3.85,3.85,0,0,0-3.69-4Z"/><path class="cls-29" d="M659.5,395.73h10.58a5.94,5.94,0,0,1,5.94,5.94V414.1a5.94,5.94,0,0,1-5.94,5.94H659.5a5.94,5.94,0,0,1-5.94-5.94V401.68a5.95,5.95,0,0,1,5.95-5.95Z"/><path class="cls-30" d="M664.07,413.24l-5.68-5.36a1.28,1.28,0,0,1-.11-1.7,1.06,1.06,0,0,1,1.58-.12l4,3.79,5.73-6.91a1.06,1.06,0,0,1,1.58-.1,1.29,1.29,0,0,1,.09,1.71Z"/><path class="cls-29" d="M670.91,383H658.66a5.35,5.35,0,0,1-5.12-5.54V364.23a5.35,5.35,0,0,1,5.12-5.54h12.25a5.35,5.35,0,0,1,5.12,5.54v13.25A5.35,5.35,0,0,1,670.91,383Zm-12.25-22.78a3.85,3.85,0,0,0-3.69,4v13.25a3.85,3.85,0,0,0,3.69,4h12.25a3.85,3.85,0,0,0,3.69-4V364.23a3.85,3.85,0,0,0-3.69-4Z"/><path class="cls-29" d="M625.66,358.71h10.58a5.94,5.94,0,0,1,5.94,5.94v12.42a5.94,5.94,0,0,1-5.94,5.94H625.66a5.95,5.95,0,0,1-5.95-5.95V364.65A5.95,5.95,0,0,1,625.66,358.71Z"/><path class="cls-30" d="M630.24,376.21l-5.68-5.36a1.28,1.28,0,0,1-.11-1.7A1.06,1.06,0,0,1,626,369l4,3.79,5.73-6.91a1.06,1.06,0,0,1,1.58-.1,1.27,1.27,0,0,1,.08,1.71Z"/><path class="cls-31" d="M680.62,306a37.48,37.48,0,0,1-7.75,23,31.58,31.58,0,0,1-51.55-1.15A37.56,37.56,0,0,1,614.41,306c0-19.78,14.83-35.81,33.11-35.81S680.62,286.22,680.62,306Z"/><path class="cls-29" d="M671.2,325.2a3.81,3.81,0,0,0-.56-.35l0,0h0c-1.45-.87-5.71-3.16-14.11-5.77h0c-1.52-.5-2.68-.83-3.07-.94l-.72-1.22a41.51,41.51,0,0,1-.05-4.32,15.89,15.89,0,0,0,2.85-7.42c.19.15.34-.19.34-.19-.11-.2,1.6-4.7,1.29-5.71-.18-.58-.53-.51-.81-.34,0-.26.09-.53.13-.82,0,0,.68-6.9-2.55-10.75-.33-.34-1.52-.43-1.52-.43-5.19-1.72-8.3-.95-10.24-.05-2.89,2.56-3.11,6.91-3,9.31l.18,1.7h0c0,.23,0,.44.07.66-.27-.19-.62-.28-.82.29-.34,1,.92,5.5,1.08,5.77,0,0,.27.47.48.26h0c.6,3.94,1.67,6.38,2.8,7.88-.08,1.6-.3,3.48-.45,4.69l-1.28,1.45h0l-.2.07h0c-14.49,4.18-18.59,7.1-18.59,7.1a4.26,4.26,0,0,0-1.11,1.85A31.58,31.58,0,0,0,672.87,329,15.58,15.58,0,0,0,671.2,325.2Z"/><rect class="cls-32" x="414.35" y="277.78" width="0.59" height="60.52"/><rect class="cls-32" x="456.51" y="277.78" width="0.59" height="60.52"/><rect class="cls-32" x="498.66" y="277.78" width="0.59" height="60.52"/><rect class="cls-32" x="540.81" y="277.78" width="0.59" height="60.52"/><rect class="cls-32" x="582.97" y="277.78" width="0.59" height="60.52"/><rect class="cls-33" x="414.65" y="341.88" width="6.71" height="2.1"/><rect class="cls-34" x="414.65" y="270.32" width="10.1" height="1.58"/><rect class="cls-34" x="414.65" y="273.24" width="14.32" height="1.58"/><rect class="cls-34" x="456.35" y="270.32" width="11.85" height="1.58"/><rect class="cls-34" x="456.35" y="273.24" width="7.58" height="1.58"/><rect class="cls-34" x="499.25" y="270.32" width="7.35" height="1.58"/><rect class="cls-34" x="499.25" y="273.24" width="8.56" height="1.58"/><rect class="cls-34" x="541.41" y="270.32" width="10.7" height="1.58"/><rect class="cls-34" x="541.41" y="273.24" width="8.56" height="1.58"/><rect class="cls-34" x="583.26" y="270.32" width="6.39" height="1.58"/><rect class="cls-34" x="583.26" y="273.24" width="5.11" height="1.58"/><rect class="cls-33" x="456.8" y="341.88" width="6.71" height="2.1"/><rect class="cls-33" x="499.25" y="341.88" width="6.71" height="2.1"/><rect class="cls-33" x="541.41" y="341.88" width="6.71" height="2.1"/><rect class="cls-33" x="583.56" y="341.88" width="6.71" height="2.1"/><path class="cls-35" d="M568.66,320.31c-13.15,0-24.58-5.53-36.5-11.29-14.71-7.12-29.92-14.48-50.18-12.46C469,297.84,460.91,303,453.75,307.5c-6.49,4.09-12.63,7.69-20.94,8-13.42.5-18.08-5.07-18.16-5.41v-3.58h0c0,.06,3,6.32,18.15,6.24,7.49,0,13-3.52,19.41-7.56,7.43-4.69,15.86-10,29.48-11.37,21.08-2.09,36.66,5.45,51.73,12.74,15.77,7.63,30.82,14.78,49.84,8.57v2.94A44,44,0,0,1,568.66,320.31Z"/><path class="cls-36" d="M489.73,319.63c-9.7,0-17.4-6.35-24.93-12.57-5.72-4.71-11.65-9.53-18.49-11.91-20.88-7.25-31.57,6-31.66,6.11v-4c.11-.14,2-2.54,7.53-4.84,5-2.1,13.44-3.76,25.06.17,7.36,2.49,13.47,7.53,19.38,12.41,12,9.89,22.35,18.43,40.34,5,13.62-10.14,26.46-19.79,39.09-23.32,12.36-3.45,25.24-.93,37.3,10.81l-.09,3.66c-25.61-25-47.42-9.18-74.59,11C501.48,317.56,495.28,319.63,489.73,319.63Z"/><rect class="cls-37" x="112.65" y="382.83" width="62.09" height="201.51"/><polygon class="cls-38" points="118.39 388.69 169 388.69 169 396.56 156.07 396.56 156.07 392.36 129.39 392.36 129.39 395.86 118.39 395.86 118.39 388.69"/><rect class="cls-38" x="117.83" y="407.63" width="51.74" height="16.62"/><rect class="cls-25" x="128.74" y="411.01" width="2.91" height="9.84"/><rect class="cls-25" x="118.86" y="409.74" width="2.91" height="12.37"/><rect class="cls-25" x="132.86" y="411.01" width="2.91" height="9.84"/><rect class="cls-25" x="136.97" y="411.01" width="2.91" height="9.84"/><rect class="cls-25" x="141.09" y="411.01" width="2.91" height="9.84"/><rect class="cls-25" x="145.21" y="411.01" width="2.91" height="9.84"/><rect class="cls-25" x="149.32" y="411.01" width="2.91" height="9.84"/><rect class="cls-25" x="153.44" y="411.01" width="2.91" height="9.84"/><rect class="cls-25" x="157.56" y="411.01" width="2.91" height="9.84"/><rect class="cls-25" x="161.67" y="411.01" width="2.91" height="9.84"/><rect class="cls-25" x="165.79" y="411.01" width="2.91" height="9.84"/><rect class="cls-25" x="123.44" y="411.13" width="1.94" height="2.1"/><rect class="cls-25" x="123.44" y="415.46" width="1.94" height="2.1"/><rect class="cls-38" x="117.83" y="432.82" width="51.74" height="16.62"/><rect class="cls-25" x="128.74" y="436.2" width="2.91" height="9.84"/><rect class="cls-25" x="118.86" y="434.93" width="2.91" height="12.37"/><rect class="cls-25" x="132.86" y="436.2" width="2.91" height="9.84"/><rect class="cls-25" x="136.97" y="436.2" width="2.91" height="9.84"/><rect class="cls-25" x="141.09" y="436.2" width="2.91" height="9.84"/><rect class="cls-25" x="145.21" y="436.2" width="2.91" height="9.84"/><rect class="cls-25" x="149.32" y="436.2" width="2.91" height="9.84"/><rect class="cls-25" x="153.44" y="436.2" width="2.91" height="9.84"/><rect class="cls-25" x="157.56" y="436.2" width="2.91" height="9.84"/><rect class="cls-25" x="161.67" y="436.2" width="2.91" height="9.84"/><rect class="cls-25" x="165.79" y="436.2" width="2.91" height="9.84"/><rect class="cls-25" x="123.44" y="436.32" width="1.94" height="2.1"/><rect class="cls-25" x="123.44" y="440.65" width="1.94" height="2.1"/><rect class="cls-38" x="117.83" y="458.27" width="51.74" height="16.62"/><rect class="cls-25" x="128.74" y="461.65" width="2.91" height="9.84"/><rect class="cls-25" x="118.86" y="460.38" width="2.91" height="12.37"/><rect class="cls-25" x="132.86" y="461.65" width="2.91" height="9.84"/><rect class="cls-25" x="136.97" y="461.65" width="2.91" height="9.84"/><rect class="cls-25" x="141.09" y="461.65" width="2.91" height="9.84"/><rect class="cls-25" x="145.21" y="461.65" width="2.91" height="9.84"/><rect class="cls-25" x="149.32" y="461.65" width="2.91" height="9.84"/><rect class="cls-25" x="153.44" y="461.65" width="2.91" height="9.84"/><rect class="cls-25" x="157.56" y="461.65" width="2.91" height="9.84"/><rect class="cls-25" x="161.67" y="461.65" width="2.91" height="9.84"/><rect class="cls-25" x="165.79" y="461.65" width="2.91" height="9.84"/><rect class="cls-25" x="123.44" y="461.77" width="1.94" height="2.1"/><rect class="cls-25" x="123.44" y="466.1" width="1.94" height="2.1"/><rect class="cls-38" x="117.83" y="483.32" width="51.74" height="16.62"/><rect class="cls-25" x="128.74" y="486.71" width="2.91" height="9.84"/><rect class="cls-25" x="118.86" y="485.44" width="2.91" height="12.37"/><rect class="cls-25" x="132.86" y="486.71" width="2.91" height="9.84"/><rect class="cls-25" x="136.97" y="486.71" width="2.91" height="9.84"/><rect class="cls-25" x="141.09" y="486.71" width="2.91" height="9.84"/><rect class="cls-25" x="145.21" y="486.71" width="2.91" height="9.84"/><rect class="cls-25" x="149.32" y="486.71" width="2.91" height="9.84"/><rect class="cls-25" x="153.44" y="486.71" width="2.91" height="9.84"/><rect class="cls-25" x="157.56" y="486.71" width="2.91" height="9.84"/><rect class="cls-25" x="161.67" y="486.71" width="2.91" height="9.84"/><rect class="cls-25" x="165.79" y="486.71" width="2.91" height="9.84"/><rect class="cls-25" x="123.44" y="486.82" width="1.94" height="2.1"/><rect class="cls-25" x="123.44" y="491.15" width="1.94" height="2.1"/><rect class="cls-38" x="117.83" y="508.38" width="51.74" height="16.62"/><rect class="cls-25" x="128.74" y="511.76" width="2.91" height="9.84"/><rect class="cls-25" x="118.86" y="510.5" width="2.91" height="12.37"/><rect class="cls-25" x="132.86" y="511.76" width="2.91" height="9.84"/><rect class="cls-25" x="136.97" y="511.76" width="2.91" height="9.84"/><rect class="cls-25" x="141.09" y="511.76" width="2.91" height="9.84"/><rect class="cls-25" x="145.21" y="511.76" width="2.91" height="9.84"/><rect class="cls-25" x="149.32" y="511.76" width="2.91" height="9.84"/><rect class="cls-25" x="153.44" y="511.76" width="2.91" height="9.84"/><rect class="cls-25" x="157.56" y="511.76" width="2.91" height="9.84"/><rect class="cls-25" x="161.67" y="511.76" width="2.91" height="9.84"/><rect class="cls-25" x="165.79" y="511.76" width="2.91" height="9.84"/><rect class="cls-25" x="123.44" y="511.88" width="1.94" height="2.1"/><rect class="cls-25" x="123.44" y="516.21" width="1.94" height="2.1"/><rect class="cls-38" x="117.83" y="533.57" width="51.74" height="16.62"/><rect class="cls-25" x="128.74" y="536.95" width="2.91" height="9.84"/><rect class="cls-25" x="118.86" y="535.69" width="2.91" height="12.37"/><rect class="cls-25" x="132.86" y="536.95" width="2.91" height="9.84"/><rect class="cls-25" x="136.97" y="536.95" width="2.91" height="9.84"/><rect class="cls-25" x="141.09" y="536.95" width="2.91" height="9.84"/><rect class="cls-25" x="145.21" y="536.95" width="2.91" height="9.84"/><rect class="cls-25" x="149.32" y="536.95" width="2.91" height="9.84"/><rect class="cls-25" x="153.44" y="536.95" width="2.91" height="9.84"/><rect class="cls-25" x="157.56" y="536.95" width="2.91" height="9.84"/><rect class="cls-25" x="161.67" y="536.95" width="2.91" height="9.84"/><rect class="cls-25" x="165.79" y="536.95" width="2.91" height="9.84"/><rect class="cls-25" x="123.44" y="537.07" width="1.94" height="2.1"/><rect class="cls-25" x="123.44" y="541.4" width="1.94" height="2.1"/><rect class="cls-38" x="117.83" y="559.02" width="51.74" height="16.62"/><rect class="cls-25" x="128.74" y="562.4" width="2.91" height="9.84"/><rect class="cls-25" x="118.86" y="561.14" width="2.91" height="12.37"/><rect class="cls-25" x="132.86" y="562.4" width="2.91" height="9.84"/><rect class="cls-25" x="136.97" y="562.4" width="2.91" height="9.84"/><rect class="cls-25" x="141.09" y="562.4" width="2.91" height="9.84"/><rect class="cls-25" x="145.21" y="562.4" width="2.91" height="9.84"/><rect class="cls-25" x="149.32" y="562.4" width="2.91" height="9.84"/><rect class="cls-25" x="153.44" y="562.4" width="2.91" height="9.84"/><rect class="cls-25" x="157.56" y="562.4" width="2.91" height="9.84"/><rect class="cls-25" x="161.67" y="562.4" width="2.91" height="9.84"/><rect class="cls-25" x="165.79" y="562.4" width="2.91" height="9.84"/><rect class="cls-25" x="123.44" y="562.52" width="1.94" height="2.1"/><rect class="cls-25" x="123.44" y="566.85" width="1.94" height="2.1"/><rect class="cls-39" x="190.95" y="355.65" width="70.87" height="230"/><polygon class="cls-40" points="197.5 362.34 255.27 362.34 255.27 371.32 240.5 371.32 240.5 366.53 210.05 366.53 210.05 370.52 197.5 370.52 197.5 362.34"/><rect class="cls-40" x="196.51" y="383.96" width="59.06" height="18.97"/><rect class="cls-39" x="208.97" y="387.82" width="3.32" height="11.23"/><rect class="cls-39" x="197.69" y="386.37" width="3.32" height="14.12"/><rect class="cls-39" x="213.67" y="387.82" width="3.32" height="11.23"/><rect class="cls-39" x="218.36" y="387.82" width="3.32" height="11.23"/><rect class="cls-39" x="223.06" y="387.82" width="3.32" height="11.23"/><rect class="cls-39" x="227.76" y="387.82" width="3.32" height="11.23"/><rect class="cls-39" x="232.46" y="387.82" width="3.32" height="11.23"/><rect class="cls-39" x="237.16" y="387.82" width="3.32" height="11.23"/><rect class="cls-39" x="241.86" y="387.82" width="3.32" height="11.23"/><rect class="cls-39" x="246.56" y="387.82" width="3.32" height="11.23"/><rect class="cls-39" x="251.25" y="387.82" width="3.32" height="11.23"/><rect class="cls-25" x="202.91" y="387.95" width="2.21" height="2.4"/><rect class="cls-25" x="202.91" y="392.89" width="2.21" height="2.4"/><rect class="cls-40" x="196.51" y="410.96" width="59.06" height="18.97"/><rect class="cls-39" x="208.97" y="414.82" width="3.32" height="11.23"/><rect class="cls-39" x="197.69" y="413.38" width="3.32" height="14.12"/><rect class="cls-39" x="213.67" y="414.82" width="3.32" height="11.23"/><rect class="cls-39" x="218.36" y="414.82" width="3.32" height="11.23"/><rect class="cls-39" x="223.06" y="414.82" width="3.32" height="11.23"/><rect class="cls-39" x="227.76" y="414.82" width="3.32" height="11.23"/><rect class="cls-39" x="232.46" y="414.82" width="3.32" height="11.23"/><rect class="cls-39" x="237.16" y="414.82" width="3.32" height="11.23"/><rect class="cls-39" x="241.86" y="414.82" width="3.32" height="11.23"/><rect class="cls-39" x="246.56" y="414.82" width="3.32" height="11.23"/><rect class="cls-39" x="251.25" y="414.82" width="3.32" height="11.23"/><rect class="cls-25" x="202.91" y="414.96" width="2.21" height="2.4"/><rect class="cls-25" x="202.91" y="419.9" width="2.21" height="2.4"/><rect class="cls-40" x="196.51" y="437.97" width="59.06" height="18.97"/><rect class="cls-39" x="208.97" y="441.83" width="3.32" height="11.23"/><rect class="cls-39" x="197.69" y="440.39" width="3.32" height="14.12"/><rect class="cls-39" x="213.67" y="441.83" width="3.32" height="11.23"/><rect class="cls-39" x="218.36" y="441.83" width="3.32" height="11.23"/><rect class="cls-39" x="223.06" y="441.83" width="3.32" height="11.23"/><rect class="cls-39" x="227.76" y="441.83" width="3.32" height="11.23"/><rect class="cls-39" x="232.46" y="441.83" width="3.32" height="11.23"/><rect class="cls-39" x="237.16" y="441.83" width="3.32" height="11.23"/><rect class="cls-39" x="241.86" y="441.83" width="3.32" height="11.23"/><rect class="cls-39" x="246.56" y="441.83" width="3.32" height="11.23"/><rect class="cls-39" x="251.25" y="441.83" width="3.32" height="11.23"/><rect class="cls-25" x="202.91" y="441.96" width="2.21" height="2.4"/><rect class="cls-25" x="202.91" y="446.91" width="2.21" height="2.4"/><rect class="cls-40" x="196.51" y="464.98" width="59.06" height="18.97"/><rect class="cls-39" x="208.97" y="468.83" width="3.32" height="11.23"/><rect class="cls-39" x="197.69" y="467.39" width="3.32" height="14.12"/><rect class="cls-39" x="213.67" y="468.83" width="3.32" height="11.23"/><rect class="cls-39" x="218.36" y="468.83" width="3.32" height="11.23"/><rect class="cls-39" x="223.06" y="468.83" width="3.32" height="11.23"/><rect class="cls-39" x="227.76" y="468.83" width="3.32" height="11.23"/><rect class="cls-39" x="232.46" y="468.83" width="3.32" height="11.23"/><rect class="cls-39" x="237.16" y="468.83" width="3.32" height="11.23"/><rect class="cls-39" x="241.86" y="468.83" width="3.32" height="11.23"/><rect class="cls-39" x="246.56" y="468.83" width="3.32" height="11.23"/><rect class="cls-39" x="251.25" y="468.83" width="3.32" height="11.23"/><rect class="cls-25" x="202.91" y="468.97" width="2.21" height="2.4"/><rect class="cls-25" x="202.91" y="473.91" width="2.21" height="2.4"/><rect class="cls-40" x="196.51" y="491.98" width="59.06" height="18.97"/><rect class="cls-39" x="208.97" y="495.84" width="3.32" height="11.23"/><rect class="cls-39" x="197.69" y="494.4" width="3.32" height="14.12"/><rect class="cls-39" x="213.67" y="495.84" width="3.32" height="11.23"/><rect class="cls-39" x="218.36" y="495.84" width="3.32" height="11.23"/><rect class="cls-39" x="223.06" y="495.84" width="3.32" height="11.23"/><rect class="cls-39" x="227.76" y="495.84" width="3.32" height="11.23"/><rect class="cls-39" x="232.46" y="495.84" width="3.32" height="11.23"/><rect class="cls-39" x="237.16" y="495.84" width="3.32" height="11.23"/><rect class="cls-39" x="241.86" y="495.84" width="3.32" height="11.23"/><rect class="cls-39" x="246.56" y="495.84" width="3.32" height="11.23"/><rect class="cls-39" x="251.25" y="495.84" width="3.32" height="11.23"/><rect class="cls-25" x="202.91" y="495.98" width="2.21" height="2.4"/><rect class="cls-25" x="202.91" y="500.92" width="2.21" height="2.4"/><rect class="cls-40" x="196.51" y="518.99" width="59.06" height="18.97"/><rect class="cls-39" x="208.97" y="522.85" width="3.32" height="11.23"/><rect class="cls-39" x="197.69" y="521.4" width="3.32" height="14.12"/><rect class="cls-39" x="213.67" y="522.85" width="3.32" height="11.23"/><rect class="cls-39" x="218.36" y="522.85" width="3.32" height="11.23"/><rect class="cls-39" x="223.06" y="522.85" width="3.32" height="11.23"/><rect class="cls-39" x="227.76" y="522.85" width="3.32" height="11.23"/><rect class="cls-39" x="232.46" y="522.85" width="3.32" height="11.23"/><rect class="cls-39" x="237.16" y="522.85" width="3.32" height="11.23"/><rect class="cls-39" x="241.86" y="522.85" width="3.32" height="11.23"/><rect class="cls-39" x="246.56" y="522.85" width="3.32" height="11.23"/><rect class="cls-39" x="251.25" y="522.85" width="3.32" height="11.23"/><rect class="cls-25" x="202.91" y="522.98" width="2.21" height="2.4"/><rect class="cls-25" x="202.91" y="527.93" width="2.21" height="2.4"/><rect class="cls-40" x="196.51" y="545.99" width="59.06" height="18.97"/><rect class="cls-39" x="208.97" y="549.85" width="3.32" height="11.23"/><rect class="cls-39" x="197.69" y="548.41" width="3.32" height="14.12"/><rect class="cls-39" x="213.67" y="549.85" width="3.32" height="11.23"/><rect class="cls-39" x="218.36" y="549.85" width="3.32" height="11.23"/><rect class="cls-39" x="223.06" y="549.85" width="3.32" height="11.23"/><rect class="cls-39" x="227.76" y="549.85" width="3.32" height="11.23"/><rect class="cls-39" x="232.46" y="549.85" width="3.32" height="11.23"/><rect class="cls-39" x="237.16" y="549.85" width="3.32" height="11.23"/><rect class="cls-39" x="241.86" y="549.85" width="3.32" height="11.23"/><rect class="cls-39" x="246.56" y="549.85" width="3.32" height="11.23"/><rect class="cls-39" x="251.25" y="549.85" width="3.32" height="11.23"/><rect class="cls-25" x="202.91" y="549.99" width="2.21" height="2.4"/><rect class="cls-25" x="202.91" y="554.93" width="2.21" height="2.4"/><rect class="cls-38" x="261.77" y="355.64" width="54.98" height="230.03"/><rect class="cls-41" x="276.42" y="531.5" width="26.56" height="30.96"/><rect class="cls-42" x="302.98" y="531.5" width="2.18" height="30.96"/><ellipse class="cls-42" cx="289.68" cy="546.67" rx="8.49" ry="9.18"/><ellipse class="cls-43" cx="289.66" cy="546.69" rx="5.56" ry="6.01"/><ellipse class="cls-42" cx="299.12" cy="535.32" rx="1.09" ry="1.18"/><ellipse class="cls-42" cx="299.12" cy="558.47" rx="1.09" ry="1.18"/><ellipse class="cls-42" cx="280.45" cy="535.32" rx="1.09" ry="1.18"/><ellipse class="cls-42" cx="280.45" cy="558.47" rx="1.09" ry="1.18"/><path class="cls-44" d="M276.54,547.35s-10.43-.92-10.55,16-5.58,17.58-11.16,18"/><rect class="cls-42" x="250.47" y="578.57" width="4.97" height="5.38"/><polygon class="cls-40" points="427.84 585.14 427.84 560.65 419.11 560.65 419.11 555.4 427.52 555.4 427.52 531.97 419.11 531.97 419.11 526.37 427.52 526.37 427.52 503.28 418.78 503.28 418.78 496.98 427.84 496.98 427.84 473.89 326.61 473.89 326.61 496.63 336.64 496.63 336.64 502.58 326.29 502.58 326.29 526.37 338.58 526.37 338.58 531.62 326.29 531.62 326.29 554.71 339.23 554.71 339.23 561.7 325.97 561.7 325.97 584.79 427.84 585.14"/><rect class="cls-45" x="321.34" y="472.33" width="89.26" height="23.88"/><rect class="cls-46" x="325.49" y="476.88" width="17.46" height="2.8"/><rect class="cls-46" x="325.49" y="481.08" width="17.46" height="2.8"/><rect class="cls-46" x="325.49" y="485.27" width="17.46" height="2.8"/><rect class="cls-46" x="345.92" y="477.04" width="2.58" height="2.8"/><rect class="cls-46" x="350.05" y="477.04" width="2.58" height="2.8"/><rect class="cls-46" x="354.17" y="477.04" width="2.58" height="2.8"/><rect class="cls-46" x="358.3" y="477.04" width="2.58" height="2.8"/><rect class="cls-46" x="362.43" y="477.04" width="2.58" height="2.8"/><rect class="cls-46" x="366.55" y="477.04" width="2.58" height="2.8"/><rect class="cls-46" x="370.68" y="477.04" width="2.58" height="2.8"/><rect class="cls-47" x="374.8" y="477.04" width="2.58" height="2.8"/><rect class="cls-46" x="378.93" y="477.04" width="2.58" height="2.8"/><rect class="cls-47" x="383.06" y="477.04" width="2.58" height="2.8"/><rect class="cls-48" x="387.18" y="477.04" width="2.58" height="2.8"/><rect class="cls-46" x="391.31" y="477.04" width="2.58" height="2.8"/><rect class="cls-46" x="395.43" y="477.04" width="2.58" height="2.8"/><rect class="cls-46" x="399.56" y="477.04" width="2.58" height="2.8"/><rect class="cls-49" x="345.84" y="481.15" width="2.58" height="2.8"/><rect class="cls-46" x="349.97" y="481.15" width="2.58" height="2.8"/><rect class="cls-46" x="354.09" y="481.15" width="2.58" height="2.8"/><rect class="cls-46" x="358.22" y="481.15" width="2.58" height="2.8"/><rect class="cls-48" x="362.35" y="481.15" width="2.58" height="2.8"/><rect class="cls-46" x="366.47" y="481.15" width="2.58" height="2.8"/><rect class="cls-47" x="370.6" y="481.15" width="2.58" height="2.8"/><rect class="cls-48" x="374.72" y="481.15" width="2.58" height="2.8"/><rect class="cls-46" x="378.85" y="481.15" width="2.58" height="2.8"/><rect class="cls-47" x="382.98" y="481.15" width="2.58" height="2.8"/><rect class="cls-47" x="387.1" y="481.15" width="2.58" height="2.8"/><rect class="cls-46" x="391.23" y="481.15" width="2.58" height="2.8"/><rect class="cls-46" x="395.35" y="481.15" width="2.58" height="2.8"/><rect class="cls-46" x="399.48" y="481.15" width="2.58" height="2.8"/><rect class="cls-46" x="345.76" y="485.09" width="2.58" height="2.8"/><rect class="cls-46" x="349.89" y="485.09" width="2.58" height="2.8"/><rect class="cls-46" x="354.01" y="485.09" width="2.58" height="2.8"/><rect class="cls-46" x="358.14" y="485.09" width="2.58" height="2.8"/><rect class="cls-46" x="362.26" y="485.09" width="2.58" height="2.8"/><rect class="cls-46" x="366.39" y="485.09" width="2.58" height="2.8"/><rect class="cls-46" x="370.52" y="485.09" width="2.58" height="2.8"/><rect class="cls-47" x="374.64" y="485.09" width="2.58" height="2.8"/><rect class="cls-47" x="378.77" y="485.09" width="2.58" height="2.8"/><rect class="cls-46" x="382.89" y="485.09" width="2.58" height="2.8"/><rect class="cls-48" x="387.02" y="485.09" width="2.58" height="2.8"/><rect class="cls-46" x="391.15" y="485.09" width="2.58" height="2.8"/><rect class="cls-46" x="395.27" y="485.09" width="2.58" height="2.8"/><rect class="cls-46" x="399.4" y="485.09" width="2.58" height="2.8"/><rect class="cls-45" x="321.34" y="502.59" width="89.26" height="23.88"/><rect class="cls-46" x="325.49" y="507.14" width="17.46" height="2.8"/><rect class="cls-46" x="325.49" y="511.34" width="17.46" height="2.8"/><rect class="cls-46" x="325.49" y="515.53" width="17.46" height="2.8"/><rect class="cls-46" x="345.92" y="507.3" width="2.58" height="2.8"/><rect class="cls-46" x="350.05" y="507.3" width="2.58" height="2.8"/><rect class="cls-46" x="354.17" y="507.3" width="2.58" height="2.8"/><rect class="cls-46" x="358.3" y="507.3" width="2.58" height="2.8"/><rect class="cls-46" x="362.43" y="507.3" width="2.58" height="2.8"/><rect class="cls-46" x="366.55" y="507.3" width="2.58" height="2.8"/><rect class="cls-46" x="370.68" y="507.3" width="2.58" height="2.8"/><rect class="cls-47" x="374.8" y="507.3" width="2.58" height="2.8"/><rect class="cls-46" x="378.93" y="507.3" width="2.58" height="2.8"/><rect class="cls-47" x="383.06" y="507.3" width="2.58" height="2.8"/><rect class="cls-48" x="387.18" y="507.3" width="2.58" height="2.8"/><rect class="cls-46" x="391.31" y="507.3" width="2.58" height="2.8"/><rect class="cls-46" x="395.43" y="507.3" width="2.58" height="2.8"/><rect class="cls-46" x="399.56" y="507.3" width="2.58" height="2.8"/><rect class="cls-49" x="345.84" y="511.41" width="2.58" height="2.8"/><rect class="cls-46" x="349.97" y="511.41" width="2.58" height="2.8"/><rect class="cls-46" x="354.09" y="511.41" width="2.58" height="2.8"/><rect class="cls-46" x="358.22" y="511.41" width="2.58" height="2.8"/><rect class="cls-48" x="362.35" y="511.41" width="2.58" height="2.8"/><rect class="cls-46" x="366.47" y="511.41" width="2.58" height="2.8"/><rect class="cls-47" x="370.6" y="511.41" width="2.58" height="2.8"/><rect class="cls-48" x="374.72" y="511.41" width="2.58" height="2.8"/><rect class="cls-46" x="378.85" y="511.41" width="2.58" height="2.8"/><rect class="cls-47" x="382.98" y="511.41" width="2.58" height="2.8"/><rect class="cls-47" x="387.1" y="511.41" width="2.58" height="2.8"/><rect class="cls-46" x="391.23" y="511.41" width="2.58" height="2.8"/><rect class="cls-46" x="395.35" y="511.41" width="2.58" height="2.8"/><rect class="cls-46" x="399.48" y="511.41" width="2.58" height="2.8"/><rect class="cls-46" x="345.76" y="515.35" width="2.58" height="2.8"/><rect class="cls-46" x="349.89" y="515.35" width="2.58" height="2.8"/><rect class="cls-46" x="354.01" y="515.35" width="2.58" height="2.8"/><rect class="cls-46" x="358.14" y="515.35" width="2.58" height="2.8"/><rect class="cls-46" x="362.26" y="515.35" width="2.58" height="2.8"/><rect class="cls-46" x="366.39" y="515.35" width="2.58" height="2.8"/><rect class="cls-46" x="370.52" y="515.35" width="2.58" height="2.8"/><rect class="cls-47" x="374.64" y="515.35" width="2.58" height="2.8"/><rect class="cls-47" x="378.77" y="515.35" width="2.58" height="2.8"/><rect class="cls-46" x="382.89" y="515.35" width="2.58" height="2.8"/><rect class="cls-48" x="387.02" y="515.35" width="2.58" height="2.8"/><rect class="cls-46" x="391.15" y="515.35" width="2.58" height="2.8"/><rect class="cls-46" x="395.27" y="515.35" width="2.58" height="2.8"/><rect class="cls-46" x="399.4" y="515.35" width="2.58" height="2.8"/><rect class="cls-45" x="321.17" y="531.45" width="89.26" height="23.88"/><rect class="cls-46" x="325.32" y="536" width="17.46" height="2.8"/><rect class="cls-46" x="325.32" y="540.2" width="17.46" height="2.8"/><rect class="cls-46" x="325.32" y="544.4" width="17.46" height="2.8"/><rect class="cls-46" x="345.76" y="536.16" width="2.58" height="2.8"/><rect class="cls-46" x="349.88" y="536.16" width="2.58" height="2.8"/><rect class="cls-46" x="354.01" y="536.16" width="2.58" height="2.8"/><rect class="cls-46" x="358.14" y="536.16" width="2.58" height="2.8"/><rect class="cls-46" x="362.26" y="536.16" width="2.58" height="2.8"/><rect class="cls-46" x="366.39" y="536.16" width="2.58" height="2.8"/><rect class="cls-46" x="370.51" y="536.16" width="2.58" height="2.8"/><rect class="cls-47" x="374.64" y="536.16" width="2.58" height="2.8"/><rect class="cls-46" x="378.77" y="536.16" width="2.58" height="2.8"/><rect class="cls-47" x="382.89" y="536.16" width="2.58" height="2.8"/><rect class="cls-48" x="387.02" y="536.16" width="2.58" height="2.8"/><rect class="cls-46" x="391.14" y="536.16" width="2.58" height="2.8"/><rect class="cls-46" x="395.27" y="536.16" width="2.58" height="2.8"/><rect class="cls-46" x="399.4" y="536.16" width="2.58" height="2.8"/><rect class="cls-49" x="345.68" y="540.27" width="2.58" height="2.8"/><rect class="cls-46" x="349.8" y="540.27" width="2.58" height="2.8"/><rect class="cls-46" x="353.93" y="540.27" width="2.58" height="2.8"/><rect class="cls-46" x="358.05" y="540.27" width="2.58" height="2.8"/><rect class="cls-48" x="362.18" y="540.27" width="2.58" height="2.8"/><rect class="cls-46" x="366.31" y="540.27" width="2.58" height="2.8"/><rect class="cls-47" x="370.43" y="540.27" width="2.58" height="2.8"/><rect class="cls-48" x="374.56" y="540.27" width="2.58" height="2.8"/><rect class="cls-46" x="378.68" y="540.27" width="2.58" height="2.8"/><rect class="cls-47" x="382.81" y="540.27" width="2.58" height="2.8"/><rect class="cls-47" x="386.94" y="540.27" width="2.58" height="2.8"/><rect class="cls-46" x="391.06" y="540.27" width="2.58" height="2.8"/><rect class="cls-46" x="395.19" y="540.27" width="2.58" height="2.8"/><rect class="cls-46" x="399.32" y="540.27" width="2.58" height="2.8"/><rect class="cls-46" x="345.6" y="544.21" width="2.58" height="2.8"/><rect class="cls-46" x="349.72" y="544.21" width="2.58" height="2.8"/><rect class="cls-46" x="353.85" y="544.21" width="2.58" height="2.8"/><rect class="cls-46" x="357.97" y="544.21" width="2.58" height="2.8"/><rect class="cls-46" x="362.1" y="544.21" width="2.58" height="2.8"/><rect class="cls-46" x="366.23" y="544.21" width="2.58" height="2.8"/><rect class="cls-46" x="370.35" y="544.21" width="2.58" height="2.8"/><rect class="cls-47" x="374.48" y="544.21" width="2.58" height="2.8"/><rect class="cls-47" x="378.6" y="544.21" width="2.58" height="2.8"/><rect class="cls-46" x="382.73" y="544.21" width="2.58" height="2.8"/><rect class="cls-48" x="386.86" y="544.21" width="2.58" height="2.8"/><rect class="cls-46" x="390.98" y="544.21" width="2.58" height="2.8"/><rect class="cls-46" x="395.11" y="544.21" width="2.58" height="2.8"/><rect class="cls-46" x="399.23" y="544.21" width="2.58" height="2.8"/><rect class="cls-45" x="320.53" y="561.36" width="89.26" height="23.88"/><rect class="cls-46" x="324.68" y="565.91" width="17.46" height="2.8"/><rect class="cls-46" x="324.68" y="570.11" width="17.46" height="2.8"/><rect class="cls-46" x="324.68" y="574.31" width="17.46" height="2.8"/><rect class="cls-46" x="345.11" y="566.07" width="2.58" height="2.8"/><rect class="cls-46" x="349.24" y="566.07" width="2.58" height="2.8"/><rect class="cls-46" x="353.36" y="566.07" width="2.58" height="2.8"/><rect class="cls-46" x="357.49" y="566.07" width="2.58" height="2.8"/><rect class="cls-46" x="361.61" y="566.07" width="2.58" height="2.8"/><rect class="cls-46" x="365.74" y="566.07" width="2.58" height="2.8"/><rect class="cls-46" x="369.87" y="566.07" width="2.58" height="2.8"/><rect class="cls-47" x="373.99" y="566.07" width="2.58" height="2.8"/><rect class="cls-46" x="378.12" y="566.07" width="2.58" height="2.8"/><rect class="cls-47" x="382.24" y="566.07" width="2.58" height="2.8"/><rect class="cls-48" x="386.37" y="566.07" width="2.58" height="2.8"/><rect class="cls-46" x="390.5" y="566.07" width="2.58" height="2.8"/><rect class="cls-46" x="394.62" y="566.07" width="2.58" height="2.8"/><rect class="cls-46" x="398.75" y="566.07" width="2.58" height="2.8"/><rect class="cls-49" x="345.03" y="570.18" width="2.58" height="2.8"/><rect class="cls-46" x="349.16" y="570.18" width="2.58" height="2.8"/><rect class="cls-46" x="353.28" y="570.18" width="2.58" height="2.8"/><rect class="cls-46" x="357.41" y="570.18" width="2.58" height="2.8"/><rect class="cls-48" x="361.53" y="570.18" width="2.58" height="2.8"/><rect class="cls-46" x="365.66" y="570.18" width="2.58" height="2.8"/><rect class="cls-47" x="369.79" y="570.18" width="2.58" height="2.8"/><rect class="cls-48" x="373.91" y="570.18" width="2.58" height="2.8"/><rect class="cls-46" x="378.04" y="570.18" width="2.58" height="2.8"/><rect class="cls-47" x="382.16" y="570.18" width="2.58" height="2.8"/><rect class="cls-47" x="386.29" y="570.18" width="2.58" height="2.8"/><rect class="cls-46" x="390.42" y="570.18" width="2.58" height="2.8"/><rect class="cls-46" x="394.54" y="570.18" width="2.58" height="2.8"/><rect class="cls-46" x="398.67" y="570.18" width="2.58" height="2.8"/><rect class="cls-46" x="344.95" y="574.12" width="2.58" height="2.8"/><rect class="cls-46" x="349.08" y="574.12" width="2.58" height="2.8"/><rect class="cls-46" x="353.2" y="574.12" width="2.58" height="2.8"/><rect class="cls-46" x="357.33" y="574.12" width="2.58" height="2.8"/><rect class="cls-46" x="361.45" y="574.12" width="2.58" height="2.8"/><rect class="cls-46" x="365.58" y="574.12" width="2.58" height="2.8"/><rect class="cls-46" x="369.71" y="574.12" width="2.58" height="2.8"/><rect class="cls-47" x="373.83" y="574.12" width="2.58" height="2.8"/><rect class="cls-47" x="377.96" y="574.12" width="2.58" height="2.8"/><rect class="cls-46" x="382.08" y="574.12" width="2.58" height="2.8"/><rect class="cls-48" x="386.21" y="574.12" width="2.58" height="2.8"/><rect class="cls-46" x="390.34" y="574.12" width="2.58" height="2.8"/><rect class="cls-46" x="394.46" y="574.12" width="2.58" height="2.8"/><rect class="cls-46" x="398.59" y="574.12" width="2.58" height="2.8"/><path class="cls-50" d="M116.34,558.9s6.63,3.85,15.52-12.42S106,545.52,116.34,558.9Z"/><path class="cls-51" d="M110.52,556.5s-5.46.26-6.31-10.1,3.64-21.52,9.22-4.07C115.61,549.41,113.67,554,110.52,556.5Z"/><path class="cls-52" d="M110,572.76s1.09-11.15-12.25-6.69,1.94,5.51,5.58,5.25,4.37,3.68,4.37,3.68S109.79,575.52,110,572.76Z"/><path class="cls-53" d="M112.6,585.33s-5-29.23,17.08-41.16"/><path class="cls-54" d="M112.94,585.83c.06-.32-2.3-36.68-5.09-46.91"/><path class="cls-55" d="M112.76,585.88s-1.15-21.58-13.4-17.31"/><path class="cls-56" d="M769.88,502.65c-.13-1.13,1-1.45,1.87-1.73a31.61,31.61,0,0,1,15.35-1.63,13.19,13.19,0,0,0,3.7.32c.74-.1,1.75,0,1.88-1.11s-.71-1.5-1.45-1.77a32,32,0,0,0-9.91-2.15c-8.8-.32-17.61-.59-26.11,2.65-1.26.48-2.6,1-3.89,0-1.08-1.77-.77-3.77-.77-5.7q0-36.78,0-73.56c0-1,0-2,0-2.93.08-2.67-.86-3-2.93-1.52a115.56,115.56,0,0,1-13.83,8.43c-9.35,4.72-9.29,6.06-13-.55-6.81-12-13.95-23.81-20.92-35.72-.64-1.1-1.62-2.09-1.27-3.62,4.75-5.24,10.4-9.29,15.83-13.6,19.68-15.64,40.82-28.11,64.81-34.22,2.08-.53,4.18-1,6.27-1.44,1.29-.55,2.12.43,3,1.08,11.92,8.48,24.4,7.84,35.59-1.78,1.49-1.27,2.78-2.88,4.68-3.54a169.6,169.6,0,0,1,28.6-.52c15.28.86,30.45,2.72,45.65,4.49,1.32.15,2.72.12,3.81,1.19a8.52,8.52,0,0,1,.81,4.59c0,12.76,0,25.52,0,38.28a38.41,38.41,0,0,1-.48,4.69c.48,2.68-1.5,2.63-2.93,2.88-9,1.56-18.09,3-27.14,4.54-.47.07-1.52.23-2,.27-2.41.18-3.21,1.47-3.13,4.46.39,14,.5,28,.66,42.07q.48,40.25.89,80.49c.11,8.9.32,17.8.47,26.7a5,5,0,0,1-.77,3.19c-.89,1.15-6.59.08-6.61.79-.31-.1-.7.7-3.83.71q-50,.06-100,0c-1,0-7.51-1.39-9.9-1.29-1.54.07-1.16-1.47-1.18-2.46,0-4-.09-19.86-.1-23.86,1.22-2.11,3.67-2.81,5.58-3.28"/><path class="cls-57" d="M907.25,381.24c-.7-.63-.6-1.52-.6-2.36q0-22.45.08-44.9c2.88-.92,5.79-.52,8.65-.06,3.22.52,6.49.19,9.8.83a71.43,71.43,0,0,0-9-10.21c-7.21-6.68-13.59-14.26-20.35-21.43-10.69-11.37-21.26-22.87-31.14-35.08-1.77-2.19-3.18-4.7-5.19-6.66.25-6.57.72-13.15-1.89-19.38a3.52,3.52,0,0,1-.23-1.79c1-8.06-2.58-14.31-6.83-20.3-.83-1.17-2.36-2.11-1.41-4,8.55,2.45,14.27,9.05,19.55,16.07,4.33,5.76,8.17,11.94,12.3,17.88,5.94,8.53,14.3,14.07,21.87,20.57,19.06,16.37,38.3,32.49,57.41,48.8a50,50,0,0,1,9.21,10.65c10.16,15.48,6.24,33.14-9.34,42-7,4-14.59,5.61-22.35,6.55q-14.41,1.77-28.94,2.36A6.46,6.46,0,0,0,907.25,381.24Z"/><path class="cls-58" d="M871.59,586.8c.09,2.4-.49,3.13-2.76,3.13q-55.86-.12-111.71,0c-2.18,0-2.91-.61-2.82-3.08.35-10.61.5-21.23.73-31.85,0-1.36-.06-2.13,0-3.09.19-6,.74-5.71,6.47-5.71,34.68,0,69.37.05,104.06-.07,3.27,0,6.6-1,6,3.09"/><path class="cls-57" d="M786.1,310.27c-11.22-6.3-16.58-16.7-17.63-29.95-.86-10.89,1.84-21,6.56-30.51a8.42,8.42,0,0,0,1-5.5,17.81,17.81,0,0,1,1.36-10.67c2.87-6.11,5.56-6.75,10.46-2.37.32,0,.19.75.6.6,7.39-2.77,15.18-4.41,21.8-9.31a7.66,7.66,0,0,1,1.82-.77c4.05.42,6.76,3.61,10,5.75,1.13.75.64,1.63-.48,2.05-1.48.57-3.1-.05-5,.67a85.14,85.14,0,0,0,21.34,16.24,74.26,74.26,0,0,0,8.31,4.07c1.73.65,2,1.78.86,3.31-.86,1.14-1.72,2.27-2.55,3.42a21,21,0,0,0-4.1,13.25c.14,5.36.41,10.77-2.47,15.59a4.63,4.63,0,0,0-.51,2.11,1.52,1.52,0,0,0,.34,1.35c.6.48,1-.08,1.44-.45,1.19-1.07,2.11-2.61,3.89-2.69a7.31,7.31,0,0,1,3.71,1.62c3.07,2.45,3.59,6,1.08,9.13-3,3.68-6.91,5.12-11.4,5.31-3,.12-6-1.36-8.92.55-5.77,3.29-11.37,6.93-17.73,8.91-5.76,1.81-11.58,1.74-17.43,1.27C790.09,313.07,787.71,312.5,786.1,310.27Z"/><path class="cls-59" d="M839.43,290.28c-.65.55-1.19,1.94-2.14,1.18a4.17,4.17,0,0,1-.87-2.65,8.56,8.56,0,0,1,1.34-4.45,13.36,13.36,0,0,0,1.82-7.64c-.89-9.43.64-18,8.31-24.5A86.87,86.87,0,0,1,814.35,229H822c-3.48-2.29-6.05-5.93-10.16-6.69-.06-2.67-1.69-4.82-2.11-7.37,1-3-1-5.28-1.64-7.85-.79-3.29.34-3.65,2.72-3a103.57,103.57,0,0,1,10.35,3.27c3.06,1.26,3.67.15,3.53-2.94-.17-3.74,0-7.49,0-11.76,8.1,4.71,13.66,11.46,18,20.12.61-2.15,1.1-3.89,1.68-6,2.4,2.79,3.4,6,4.77,9,.44,2.44,2.5,3.63,3.65,5.55,3.47,5.79,6.62,11.6,5.42,19-.15,1,.48,2.08.82,3.09a35.6,35.6,0,0,1,1.06,18.29c.8,1.52,0,2.88-.51,4.15-3.42,8-8.79,14.41-14.68,20.35"/><path class="cls-57" d="M827.9,329.58c-10.54,12.82-27.85,14.79-40.42,4.59-.63-.51-1.3-.94-2-1.41q.33-7.61.65-15.2c1.29-1.23,2.77-.78,4.17-.45,9.56,2.21,18.67.06,27.74-3.06,3-1,5-3.4,7.3-5.34.22.26.5.22.51.57C825.91,316,827.2,322.92,827.9,329.58Z"/><path class="cls-60" d="M825.92,309.23c-2.18,3.94-5.22,4.9-8.35,6-9.68,3.54-19.55,5.23-29.7,2.35a7.27,7.27,0,0,0-1.69-.07c0-2.43,0-4.86-.08-7.29,12.42,4.82,24,2,35.13-4.59,2-1.22,4.16-2.31,6.24-3.46C828,304.92,826.74,307.75,825.92,309.23Z"/><path class="cls-61" d="M810.47,223.14c-7.06,5.77-15.63,7.26-24.21,10.06l1.58-1.93c5.44-5.45,11.13-10.53,17.87-14.06C807.89,218.63,810.18,219.94,810.47,223.14Z"/><path class="cls-62" d="M810.47,223.14l-4.76-5.93a10.13,10.13,0,0,1,4-2.23c1.54,2.18,3.43,4.24,2.11,7.37Z"/><path class="cls-63" d="M794.82,507.55c.31-1.62-1.07-2.32-2.49-2.69-7.58-1.95-14.06-2-22-1.79a9.69,9.69,0,0,1,1-1.22,6.35,6.35,0,0,1,2-1.14c5.73-1.89,11.32-1,17.16.13,1.57.29,3.56.29,3.94-1.78.41-2.22-1.43-3-3.12-3.52a57.93,57.93,0,0,0-10.57-2.14,73.39,73.39,0,0,0-29,3.62c-3.33,1-6.56,2.88-10.16,2.19-4.1-.78-7.24-3.32-9.54-7-11.7-18.81-23.31-37.69-35.1-56.45-1.77-2.82-1.43-3.74,1.43-5,7.61-3.37,14.32-6.79,21.83-10.41h0c-7.45-12.64-14.18-25.66-21.63-38.31a446.5,446.5,0,0,0-36.89,34.28c-6.17,6.37-7.3,13.91-6,22.4,1.65,10.55,6.65,19.35,12.72,27.46,16,21.33,39.94,31.89,59.48,49.2,8.24,7.29,11.16,9.88,22.16,8.66,8.81-3.59,13.1-2.49,22.41-1.27,2,.26,6.41.75,8.43.78,1.25,0,5.8.49,5.94-.61a2.07,2.07,0,0,0-1.43-2.53,14.47,14.47,0,0,0-3.5-.75c-4.12-.42-7.34-1.17-12-1.72,2.14-1.25,1.22-1.1,4.37-1.58a39.23,39.23,0,0,1,10.73,0c2.28.26,7.42.95,6.63-1.57-.47-1.53-6.22-2.6-9.86-3.5-4.93-1.23-11.72-.79-11.72-.79s.1-.85,3.86-1.53a49,49,0,0,1,8.34-.66C789.16,508.34,794.41,509.65,794.82,507.55Z"/><path class="cls-64" d="M836.68,299.27a3.41,3.41,0,0,1-1,0c-1.18-.39-3.27-.07-3.09-1.8s1.81-1.84,3.51-1.33c2.19.65,4.27.42,4.9-2.78.38-1.94,1.74-2.51,3.34-1.6s1.27,2.4.37,3.7C842.7,298.34,839.83,299.18,836.68,299.27Z"/><path class="cls-65" d="M782.81,231.93a1.75,1.75,0,0,1,1.77,1.39c.28,1,.17,2.24-.69,2.61-2.44,1.06-3.35,3.2-4,5.65-.15.53-.6,1.11-1.27.91s-.57-.94-.61-1.52c-.22-3.28,1.31-5.82,3-8.27A1.94,1.94,0,0,1,782.81,231.93Z"/><rect class="cls-66" x="411.5" y="402.88" width="9.6" height="39.97"/><rect class="cls-66" x="411.38" y="448.85" width="9.6" height="4.16"/><rect class="cls-66" x="430.22" y="403.4" width="9.6" height="39.97"/><rect class="cls-66" x="430.1" y="449.37" width="9.6" height="4.16"/><rect class="cls-66" x="449.42" y="403.53" width="9.6" height="39.97"/><rect class="cls-66" x="449.3" y="449.5" width="9.6" height="4.16"/><rect class="cls-66" x="468.37" y="403.27" width="9.6" height="39.97"/><rect class="cls-66" x="468.25" y="449.24" width="9.6" height="4.16"/><rect class="cls-2" x="486.85" y="377.51" width="9.6" height="65.08"/><rect class="cls-66" x="486.73" y="448.59" width="9.6" height="4.16"/><rect class="cls-2" x="506.41" y="388.87" width="9.6" height="55.15"/><rect class="cls-66" x="506.29" y="450.02" width="9.6" height="4.16"/><rect class="cls-2" x="525.36" y="381.23" width="9.6" height="63.18"/><rect class="cls-66" x="525.24" y="450.41" width="9.6" height="4.16"/><rect class="cls-2" x="544.08" y="395.37" width="9.6" height="48.65"/><rect class="cls-66" x="543.96" y="450.02" width="9.6" height="4.16"/><rect class="cls-2" x="563.76" y="409.49" width="9.6" height="34.27"/><rect class="cls-66" x="563.64" y="449.76" width="9.6" height="4.16"/><rect class="cls-66" x="583.98" y="444.83" width="9.6" height="4.16"/><rect class="cls-66" x="583.98" y="434.19" width="9.6" height="4.16"/><rect class="cls-66" x="583.98" y="423.54" width="9.6" height="4.16"/><rect class="cls-66" x="583.98" y="413.42" width="9.6" height="4.16"/><rect class="cls-66" x="583.98" y="402.78" width="9.6" height="4.16"/><rect class="cls-66" x="583.98" y="392.65" width="9.6" height="4.16"/><rect class="cls-66" x="583.98" y="383.05" width="9.6" height="4.16"/><rect class="cls-66" x="583.98" y="372.41" width="9.6" height="4.16"/><path class="cls-67" d="M855.18,469.38s-2,40.07,11.2,63.28"/><path class="cls-67" d="M754.49,413.56s5.82,3.14,7.76,11.89"/><path class="cls-68" d="M781.19,342.72s15.47,23.23,47.2,14.43"/><path class="cls-67" d="M779,346.06a33.63,33.63,0,0,0,14.84,17.56"/><line class="cls-69" x1="705.46" y1="382.06" x2="729.3" y2="418.28"/><path class="cls-67" d="M868.88,390.78a20.68,20.68,0,0,0-10.18,3.67"/><line class="cls-69" x1="897.47" y1="335.62" x2="901.86" y2="379.82"/></svg>