<svg id="Layer_1" data-name="Layer 1" xmlns="http://www.w3.org/2000/svg" xmlns:xlink="http://www.w3.org/1999/xlink" viewBox="0 0 286.06 259.03"><defs><style>.cls-1{opacity:0.15;fill:url(#linear-gradient);}.cls-2{fill:url(#linear-gradient-2);}.cls-3{fill:url(#linear-gradient-3);}.cls-4{fill:url(#linear-gradient-4);}.cls-5{fill:url(#linear-gradient-5);}.cls-6{fill:url(#linear-gradient-6);}.cls-7{fill:url(#linear-gradient-7);}.cls-10,.cls-12,.cls-15,.cls-18,.cls-19,.cls-8{fill:#fff;stroke-linecap:round;stroke-width:3px;}.cls-10,.cls-11,.cls-12,.cls-13,.cls-15,.cls-16,.cls-17,.cls-18,.cls-19,.cls-8,.cls-9{stroke-miterlimit:10;}.cls-8{stroke:url(#linear-gradient-8);}.cls-13,.cls-16,.cls-17,.cls-9{fill:none;}.cls-10,.cls-11,.cls-9{stroke:#000102;}.cls-11,.cls-9{stroke-width:3.5px;}.cls-11{fill:#9fb4db;}.cls-12{stroke:url(#linear-gradient-9);}.cls-13,.cls-16,.cls-17{stroke-width:4px;}.cls-13{stroke:url(#linear-gradient-10);}.cls-14{fill:url(#linear-gradient-11);}.cls-15{stroke:url(#linear-gradient-12);}.cls-16{stroke:url(#linear-gradient-13);}.cls-17{stroke:url(#linear-gradient-14);}.cls-18{stroke:url(#linear-gradient-15);}.cls-19{stroke:url(#linear-gradient-16);}.cls-20{fill:url(#linear-gradient-17);}.cls-21{fill:url(#linear-gradient-18);}</style><linearGradient id="linear-gradient" x1="22.42" y1="153.09" x2="261.92" y2="153.09" gradientUnits="userSpaceOnUse"><stop offset="0" stop-color="#0067ff"/><stop offset="1" stop-color="#77ffa2"/></linearGradient><linearGradient id="linear-gradient-2" x1="37.98" y1="205.65" x2="48.46" y2="205.65" gradientUnits="userSpaceOnUse"><stop offset="0" stop-color="#fff"/><stop offset="1" stop-color="#7cd334"/></linearGradient><linearGradient id="linear-gradient-3" x1="59.55" y1="212.32" x2="70.04" y2="212.32" gradientUnits="userSpaceOnUse"><stop offset="0" stop-color="#fff"/><stop offset="1" stop-color="#cb93f5"/></linearGradient><linearGradient id="linear-gradient-4" x1="81.56" y1="216.52" x2="92.05" y2="216.52" gradientUnits="userSpaceOnUse"><stop offset="0" stop-color="#fff"/><stop offset="1" stop-color="#fe5f8e"/></linearGradient><linearGradient id="linear-gradient-5" x1="53.88" y1="86.19" x2="134.34" y2="86.19" gradientUnits="userSpaceOnUse"><stop offset="0" stop-color="#40d5e6"/><stop offset="1" stop-color="#57f"/></linearGradient><linearGradient id="linear-gradient-6" x1="101.03" y1="78.59" x2="148.71" y2="78.59" xlink:href="#linear-gradient-2"/><linearGradient id="linear-gradient-7" x1="67" y1="43.75" x2="134.28" y2="43.75" xlink:href="#linear-gradient-4"/><linearGradient id="linear-gradient-8" x1="162.69" y1="105.1" x2="207.64" y2="105.1" xlink:href="#linear-gradient"/><linearGradient id="linear-gradient-9" x1="183.04" y1="189.1" x2="198.54" y2="189.1" xlink:href="#linear-gradient"/><linearGradient id="linear-gradient-10" x1="-879.59" y1="237.07" x2="-629" y2="237.07" gradientTransform="matrix(-1, 0, 0, 1, -613.8, 0)" gradientUnits="userSpaceOnUse"><stop offset="0" stop-color="#fff"/><stop offset="1" stop-color="#0067ff"/></linearGradient><linearGradient id="linear-gradient-11" x1="201.24" y1="74.14" x2="218.19" y2="74.14" gradientUnits="userSpaceOnUse"><stop offset="0" stop-color="#ff9340"/><stop offset="1" stop-color="#ffce45"/></linearGradient><linearGradient id="linear-gradient-12" x1="123.99" y1="144.38" x2="152.53" y2="144.38" xlink:href="#linear-gradient"/><linearGradient id="linear-gradient-13" x1="27.58" y1="156.2" x2="27.58" y2="226.48" gradientTransform="matrix(1, 0, 0, 1, 0, 0)" xlink:href="#linear-gradient-10"/><linearGradient id="linear-gradient-14" x1="-874.72" y1="226.48" x2="-785.35" y2="226.48" gradientTransform="matrix(-1, 0, 0, 1, -759.52, 0)" xlink:href="#linear-gradient-10"/><linearGradient id="linear-gradient-15" x1="76.94" y1="141.93" x2="201.91" y2="141.93" xlink:href="#linear-gradient"/><linearGradient id="linear-gradient-16" x1="191.01" y1="207.73" x2="233.62" y2="207.73" gradientTransform="translate(-84.5 189.54) rotate(-40.7)" xlink:href="#linear-gradient"/><linearGradient id="linear-gradient-17" x1="109.25" y1="155.31" x2="126.21" y2="155.31" xlink:href="#linear-gradient-11"/><linearGradient id="linear-gradient-18" x1="150.19" y1="133.79" x2="167.14" y2="133.79" xlink:href="#linear-gradient-11"/></defs><title>slide3</title><path class="cls-1" d="M196.76,225.81l-89.6.18A44.23,44.23,0,0,1,66,198a80.71,80.71,0,0,0-9.41-16.64c-25.43-35.84-87.5-157.12,65.66-70.69,43.31,24.44,72,.26,83.6-13.36a44,44,0,0,1,25.22-14.89c21.51-4,49,5.17,14.55,100a110,110,0,0,1-11.55,22.71A44.13,44.13,0,0,1,196.76,225.81Z"/><path class="cls-2" d="M41,185h4.49a3,3,0,0,1,3,3v38.34a0,0,0,0,1,0,0H38a0,0,0,0,1,0,0V188A3,3,0,0,1,41,185Z"/><path class="cls-3" d="M62.55,198.33H67a3,3,0,0,1,3,3v25a0,0,0,0,1,0,0H59.55a0,0,0,0,1,0,0v-25A3,3,0,0,1,62.55,198.33Z"/><path class="cls-4" d="M84.56,206.72H89a3,3,0,0,1,3,3v16.6a0,0,0,0,1,0,0H81.56a0,0,0,0,1,0,0v-16.6A3,3,0,0,1,84.56,206.72Z"/><path class="cls-5" d="M134.34,112.43a1.62,1.62,0,0,1-.18.19,47.08,47.08,0,0,1-9.06,7.09l0,0A47,47,0,0,1,67.64,46.15l.19-.18L101.09,79.2Z"/><path class="cls-6" d="M133.54,112.78l.56-.56.19-.19L101,78.8l33-34.41a1.71,1.71,0,0,0,.2.18,47,47,0,0,1,1.35,66.48c-.4.42-.8.82-1.21,1.21"/><path class="cls-7" d="M133.13,33.1a46.38,46.38,0,0,0-65.95,1.17l-.18.2,34,33.12,33.1-33.16c.06.06.13.11.19.18"/><line class="cls-8" x1="164.19" y1="130.86" x2="206.14" y2="79.34"/><circle class="cls-9" cx="139.45" cy="141.95" r="60.58"/><path class="cls-10" d="M139.43,80.94a61,61,0,1,0,61,61A61,61,0,0,0,139.43,80.94Zm0,110.6A49.59,49.59,0,1,1,189,142,49.59,49.59,0,0,1,139.45,191.54Z"/><path class="cls-11" d="M192.52,202h36.81A6.67,6.67,0,0,1,236,208.7v0a6.67,6.67,0,0,1-6.67,6.67H192.52a2,2,0,0,1-2-2V204A2,2,0,0,1,192.52,202Z" transform="translate(187.66 -88.6) rotate(40.7)"/><line class="cls-12" x1="184.54" y1="183.73" x2="197.04" y2="194.47"/><line class="cls-13" x1="265.79" y1="237.07" x2="15.2" y2="237.07"/><circle class="cls-14" cx="209.72" cy="74.14" r="8.48"/><line class="cls-15" x1="125.49" y1="151.16" x2="151.03" y2="137.61"/><line class="cls-16" x1="27.58" y1="156.2" x2="27.58" y2="226.48"/><line class="cls-17" x1="115.2" y1="226.48" x2="25.83" y2="226.48"/><path class="cls-18" d="M139.43,80.94a61,61,0,1,0,61,61A61,61,0,0,0,139.43,80.94Zm0,110.6A49.59,49.59,0,1,1,189,142,49.59,49.59,0,0,1,139.45,191.54Z"/><path class="cls-19" d="M192.52,202h36.81A6.67,6.67,0,0,1,236,208.7v0a6.67,6.67,0,0,1-6.67,6.67H192.52a2,2,0,0,1-2-2V204A2,2,0,0,1,192.52,202Z" transform="translate(187.66 -88.6) rotate(40.7)"/><circle class="cls-20" cx="117.73" cy="155.31" r="8.48"/><circle class="cls-21" cx="158.66" cy="133.79" r="8.48"/></svg>