<svg id="Layer_1" data-name="Layer 1" xmlns="http://www.w3.org/2000/svg" xmlns:xlink="http://www.w3.org/1999/xlink" viewBox="0 0 286.06 259.03"><defs><style>.cls-1,.cls-15,.cls-2,.cls-3,.cls-4,.cls-5,.cls-8,.cls-9{fill:none;}.cls-1,.cls-2,.cls-3,.cls-4,.cls-5,.cls-7,.cls-8,.cls-9{stroke-miterlimit:10;}.cls-1,.cls-3,.cls-4{stroke-width:4px;}.cls-1{stroke:url(#linear-gradient);}.cls-2,.cls-5,.cls-7,.cls-9{stroke-width:3px;}.cls-2{stroke:url(#linear-gradient-2);}.cls-3{stroke:url(#linear-gradient-3);}.cls-4{stroke:url(#linear-gradient-4);}.cls-5{stroke:url(#linear-gradient-5);}.cls-6{opacity:0.15;fill:url(#linear-gradient-6);}.cls-7{fill:#fff;stroke:url(#linear-gradient-7);}.cls-7,.cls-9{stroke-linecap:round;}.cls-8{stroke-width:3.5px;stroke:url(#linear-gradient-8);}.cls-9{stroke:url(#linear-gradient-9);}.cls-10{fill:url(#linear-gradient-10);}.cls-11{fill:url(#linear-gradient-11);}.cls-12{fill:url(#linear-gradient-12);}.cls-13{fill:url(#linear-gradient-13);}.cls-14{fill:url(#linear-gradient-14);}</style><linearGradient id="linear-gradient" x1="166.83" y1="170.56" x2="179.37" y2="170.56" gradientUnits="userSpaceOnUse"><stop offset="0" stop-color="#0067ff"/><stop offset="1" stop-color="#77ffa2"/></linearGradient><linearGradient id="linear-gradient-2" x1="209.44" y1="134.74" x2="226.61" y2="134.74" xlink:href="#linear-gradient"/><linearGradient id="linear-gradient-3" x1="76.58" y1="149.72" x2="126.88" y2="149.72" xlink:href="#linear-gradient"/><linearGradient id="linear-gradient-4" x1="347.12" y1="831.37" x2="396.35" y2="831.37" gradientTransform="matrix(0.85, -0.53, -0.53, -0.85, 295.03, 1030.72)" xlink:href="#linear-gradient"/><linearGradient id="linear-gradient-5" x1="46.56" y1="157.92" x2="63.72" y2="157.92" xlink:href="#linear-gradient"/><linearGradient id="linear-gradient-6" x1="29.2" y1="122.54" x2="267.49" y2="122.54" xlink:href="#linear-gradient"/><linearGradient id="linear-gradient-7" x1="82.36" y1="133.09" x2="182.24" y2="133.09" xlink:href="#linear-gradient"/><linearGradient id="linear-gradient-8" x1="172.72" y1="185.35" x2="207.68" y2="185.35" gradientTransform="translate(-75.18 169.53) rotate(-40.7)" xlink:href="#linear-gradient"/><linearGradient id="linear-gradient-9" x1="21.47" y1="139.66" x2="252.17" y2="139.66" xlink:href="#linear-gradient"/><linearGradient id="linear-gradient-10" x1="115.77" y1="133.46" x2="147.77" y2="133.46" xlink:href="#linear-gradient"/><linearGradient id="linear-gradient-11" x1="191.27" y1="127.54" x2="213.29" y2="127.54" xlink:href="#linear-gradient"/><linearGradient id="linear-gradient-12" x1="220.61" y1="142.58" x2="235.08" y2="142.58" xlink:href="#linear-gradient"/><linearGradient id="linear-gradient-13" x1="59.96" y1="166.74" x2="81.98" y2="166.74" xlink:href="#linear-gradient"/><linearGradient id="linear-gradient-14" x1="38.17" y1="151.71" x2="52.64" y2="151.71" xlink:href="#linear-gradient"/></defs><title>slide2</title><line class="cls-1" x1="168.14" y1="166.29" x2="178.07" y2="174.82"/><line class="cls-2" x1="210.23" y1="129.94" x2="225.82" y2="139.54"/><line class="cls-3" x1="77.63" y1="164.75" x2="125.82" y2="134.7"/><line class="cls-4" x1="143.82" y1="130.47" x2="197.26" y2="126.67"/><line class="cls-5" x1="47.34" y1="153.12" x2="62.94" y2="162.72"/><circle class="cls-6" cx="148.34" cy="122.54" r="119.15"/><path class="cls-7" d="M132.3,84.64a48.45,48.45,0,1,0,48.44,48.45A48.45,48.45,0,0,0,132.3,84.64Zm0,87.85A39.39,39.39,0,1,1,171.7,133.1,39.38,39.38,0,0,1,132.31,172.49Z"/><path class="cls-8" d="M174.47,180.82h29.24a5.3,5.3,0,0,1,5.3,5.3v0a5.3,5.3,0,0,1-5.3,5.3H174.47a1.55,1.55,0,0,1-1.55-1.55v-7.49a1.55,1.55,0,0,1,1.55-1.55Z" transform="translate(167.55 -79.51) rotate(40.7)"/><circle class="cls-9" cx="136.82" cy="139.66" r="113.85"/><circle class="cls-10" cx="131.77" cy="133.46" r="16"/><circle class="cls-11" cx="202.28" cy="127.54" r="11.01"/><circle class="cls-12" cx="227.85" cy="142.58" r="7.24"/><circle class="cls-13" cx="70.97" cy="166.74" r="11.01"/><circle class="cls-14" cx="45.4" cy="151.71" r="7.24"/><line class="cls-15" x1="144.99" y1="131.83" x2="202.76" y2="128.03"/></svg>