<svg id="Layer_1" data-name="Layer 1" xmlns="http://www.w3.org/2000/svg" xmlns:xlink="http://www.w3.org/1999/xlink" viewBox="0 0 286.06 259.03"><defs><style>.cls-1{opacity:0.15;fill:url(#linear-gradient);}.cls-2{fill:url(#linear-gradient-2);}.cls-3{fill:url(#linear-gradient-3);}.cls-4,.cls-5{fill:none;stroke-linecap:round;stroke-linejoin:round;stroke-width:6px;}.cls-4{stroke:url(#linear-gradient-4);}.cls-5{stroke:url(#linear-gradient-5);}.cls-6{fill:#626262;}</style><linearGradient id="linear-gradient" x1="38.53" y1="129.13" x2="252.82" y2="129.13" gradientUnits="userSpaceOnUse"><stop offset="0" stop-color="#0067ff"/><stop offset="1" stop-color="#77ffa2"/></linearGradient><linearGradient id="linear-gradient-2" x1="60.45" y1="166.68" x2="186.77" y2="166.68" xlink:href="#linear-gradient"/><linearGradient id="linear-gradient-3" x1="90.8" y1="104.48" x2="156.41" y2="104.48" xlink:href="#linear-gradient"/><linearGradient id="linear-gradient-4" x1="21.29" y1="137.17" x2="225.92" y2="137.17" xlink:href="#linear-gradient"/><linearGradient id="linear-gradient-5" x1="165.36" y1="61.35" x2="205.81" y2="61.35" xlink:href="#linear-gradient"/></defs><title>slide1</title><circle class="cls-1" cx="145.67" cy="129.13" r="107.15"/><path class="cls-2" d="M154.45,136.75c2,1.18,4,2.45,5.87,3.77a6.42,6.42,0,0,1,1.85,1.25,61.65,61.65,0,0,1,10.25,10.33,1.27,1.27,0,0,1,.34.66,88.08,88.08,0,0,1,5.74,8.81,2.33,2.33,0,0,1,.66.89c.71,1.42,1.43,2.84,2.07,4.3a3.21,3.21,0,0,1,.26,1c1,2.59,2,5.17,2.73,7.84A90.83,90.83,0,0,1,186.61,187c0,.18,0,.41.16.55v2.86a7,7,0,0,1-1.54,2.7,1.08,1.08,0,0,1-.71.37c-1.94.48-3.9.9-5.85,1.36-1.11.22-2.23.43-3.34.67-.85.15-1.7.35-2.56.52-4,.71-8,1.31-12,1.9a3.54,3.54,0,0,0-1.25.18,3,3,0,0,1-1.29.18c-1.3,0-2.57.28-3.86.38-.54.1-1.1,0-1.63.17a10.53,10.53,0,0,0-1.48.11L151,199c-1.07.07-2.13.16-3.19.29s-1.87.15-2.8.2c-1.2.16-2.4.1-3.6.24a1.92,1.92,0,0,1-.41.05c-3.66.07-7.31.39-11,.33a2.33,2.33,0,0,0-.36.08,17.52,17.52,0,0,1-2.71,0c-1,0-2,0-3,0s-2.08,0-3.12,0-1.94.05-2.91,0l-.27,0a2.13,2.13,0,0,0-.75-.07c-2.42.12-4.83-.11-7.25-.19-1.22,0-2.44,0-3.66-.13a.8.8,0,0,1-.26,0,5.64,5.64,0,0,0-1.64-.08,4.11,4.11,0,0,1-.78-.07c-1.17-.11-2.35-.16-3.52-.25l-.26-.05c-1.41-.16-2.82-.27-4.22-.36a15.14,15.14,0,0,0-2-.17,11.69,11.69,0,0,1-2.76-.32A33.34,33.34,0,0,0,86.7,198a3.79,3.79,0,0,1-1.42-.19c-1.2-.26-2.41-.42-3.62-.59-3.2-.44-6.37-1-9.53-1.66-.81-.18-1.62-.33-2.43-.49-2.13-.49-4.28-.89-6.39-1.45a3.11,3.11,0,0,1-2.23-1.89c-.2-.46-.62-.83-.63-1.38v-3c.13-.5,0-1,.19-1.52.24-1.37.57-2.73.72-4.12a6.45,6.45,0,0,1,.48-2.16c.31-1,.52-2,.78-3a10.81,10.81,0,0,1,.71-2.62c.65-1.37,1-2.86,1.59-4.27,1.08-2.67,2.25-5.29,3.58-7.83,1.29-2.14,2.48-4.34,3.93-6.38a60.74,60.74,0,0,1,4.35-5.63,71.63,71.63,0,0,1,5.44-5.58c1.71-1.55,3.55-2.93,5.34-4.36,1.84-1.2,3.66-2.44,5.59-3.49a68.34,68.34,0,0,1,6.32-3.09c1-.43,1.28-.31,1.63.69s.79,2.05,1.1,3.11c.25.84.1,1.1-.67,1.47-1.57.77-3.2,1.42-4.71,2.31a51.42,51.42,0,0,0-9.4,6.26,25.4,25.4,0,0,0-2.74,2.44,20.8,20.8,0,0,0-3,3,55.66,55.66,0,0,0-8.25,11.87,66.93,66.93,0,0,0-5.82,15.56c-.17.74-.3,1.49-.44,2.24a40.88,40.88,0,0,0-.81,5.17c0,.35-.2.84.4,1,3.47.89,7,1.54,10.5,2.2l1.18.21c1.12.22,2.26.35,3.39.54,4.87.77,9.76,1.36,14.66,1.82.65.06,1.3.11,1.94.19a10.41,10.41,0,0,0,2.15.18,27.46,27.46,0,0,0,3.51.23,1.83,1.83,0,0,1,.4,0c1.44.12,2.88.2,4.32.23,1,0,2,.22,3,.15s2.33.19,3.5.17c3.84-.08,7.67.24,11.51.14a3.15,3.15,0,0,0,.81-.09,3.72,3.72,0,0,1,1-.07c1.54,0,3.08-.06,4.62,0a2.26,2.26,0,0,0,.73-.1,10,10,0,0,1,1.81-.06c1.55,0,3.09-.13,4.63-.23a2.69,2.69,0,0,1,.69-.06c2-.1,4.08-.18,6.11-.39,5.05-.44,10.09-1,15.12-1.68,1.56-.22,3.1-.51,4.66-.71.63-.1,1.25-.19,1.88-.32,3.79-.68,7.58-1.34,11.31-2.3.91-.23,1-.34.85-1.24-.09-.67-.14-1.34-.29-2a67.11,67.11,0,0,0-2.71-11.19c-.36-1.24-.84-2.44-1.32-3.65a59.77,59.77,0,0,0-9.7-16.31,54.74,54.74,0,0,0-10.9-9.94,29.56,29.56,0,0,0-5.22-3.1c-1.62-1-3.38-1.71-5.09-2.54a2.11,2.11,0,0,1-.75-.47,1.3,1.3,0,0,1,.07-1.09c.42-1.12.81-2.25,1.26-3.36a.75.75,0,0,1,1.11-.51,53.33,53.33,0,0,1,6.58,3.21A1.16,1.16,0,0,1,154.45,136.75Z"/><path class="cls-3" d="M155.7,97.47a32,32,0,0,0-2.87-7.85,2.15,2.15,0,0,0-.27-.77,22.93,22.93,0,0,0-2.13-3.3,7.19,7.19,0,0,0-1.84-2.12,45.06,45.06,0,0,0-6.56-6,43.59,43.59,0,0,0-6.32-3.47l-1.13-.38a31.94,31.94,0,0,0-18.51-1A32.39,32.39,0,0,0,106,77a2.94,2.94,0,0,0-1.34.78,38,38,0,0,0-8.49,8.91,34,34,0,0,0-3,5.75c-.47,1.12-.78,2.29-1.2,3.43a32.3,32.3,0,0,0,1,20.21,37,37,0,0,0,3.4,6.44,33.81,33.81,0,0,0,9.28,9.3,36.83,36.83,0,0,0,6.43,3.38,20,20,0,0,0,2.9,1,31.76,31.76,0,0,0,9.8,1.1,33,33,0,0,0,8.14-1.25c1-.39,2.07-.68,3.07-1.1a34.07,34.07,0,0,0,5.92-3.18c.69-.53,1.4-1.05,2.09-1.59a34.2,34.2,0,0,0,6.7-7.15,1.62,1.62,0,0,0,.32-.75c.25-.4.49-.81.73-1.21C156.25,113.73,157.32,105.82,155.7,97.47Zm-31.88,34.71a27.67,27.67,0,1,1,27.66-27.66A27.66,27.66,0,0,1,123.82,132.18Z"/><path class="cls-4" d="M222.92,137.17A99.26,99.26,0,1,1,172,50.45"/><circle class="cls-5" cx="185.58" cy="61.35" r="17.23"/><path class="cls-6" d="M263,259.37h-9.93A23.25,23.25,0,0,1,263,259.37Z"/></svg>