<svg id="Layer_1" data-name="Layer 1" xmlns="http://www.w3.org/2000/svg" xmlns:xlink="http://www.w3.org/1999/xlink" viewBox="0 0 732.06 584.95"><defs><style>.cls-1,.cls-13,.cls-14,.cls-15,.cls-19,.cls-20,.cls-21,.cls-25,.cls-26,.cls-27,.cls-41,.cls-43,.cls-8,.cls-9{fill:none;stroke-miterlimit:10;}.cls-1,.cls-13,.cls-19,.cls-25{stroke-width:4px;}.cls-1{stroke:url(#linear-gradient);}.cls-2{opacity:0.53;}.cls-3{fill:url(#linear-gradient-2);}.cls-4{fill:url(#linear-gradient-3);}.cls-5,.cls-6{font-size:18px;font-family:ProximaNova-Semibold, Proxima Nova;font-weight:600;}.cls-5{fill:#2a2788;}.cls-31,.cls-33,.cls-6{fill:#29278a;}.cls-7{letter-spacing:-0.02em;}.cls-14,.cls-15,.cls-20,.cls-21,.cls-26,.cls-27,.cls-8,.cls-9{stroke-width:2px;}.cls-8{stroke:url(#linear-gradient-4);}.cls-9{stroke:url(#linear-gradient-5);}.cls-10{fill:url(#linear-gradient-6);}.cls-11{fill:url(#linear-gradient-7);}.cls-12{fill:url(#linear-gradient-8);}.cls-13{stroke:url(#linear-gradient-9);}.cls-14{stroke:url(#linear-gradient-10);}.cls-15{stroke:url(#linear-gradient-11);}.cls-16{fill:url(#linear-gradient-12);}.cls-17{fill:#00347e;}.cls-18{fill:url(#linear-gradient-13);}.cls-19{stroke:url(#linear-gradient-14);}.cls-20{stroke:url(#linear-gradient-15);}.cls-21{stroke:url(#linear-gradient-16);}.cls-22{fill:url(#linear-gradient-17);}.cls-23{fill:url(#linear-gradient-18);}.cls-24{fill:url(#linear-gradient-19);}.cls-25{stroke:url(#linear-gradient-20);}.cls-26{stroke:url(#linear-gradient-21);}.cls-27{stroke:url(#linear-gradient-22);}.cls-28{fill:url(#linear-gradient-23);}.cls-29{fill:url(#linear-gradient-24);}.cls-30{fill:#1771ff;}.cls-31,.cls-33{font-size:14px;font-family:ProximaNova-Medium, Proxima Nova;font-weight:500;}.cls-32{letter-spacing:-0.01em;}.cls-33{letter-spacing:-0.01em;}.cls-34{letter-spacing:0em;}.cls-35{letter-spacing:-0.02em;}.cls-36{letter-spacing:-0.08em;}.cls-37{fill:url(#linear-gradient-25);}.cls-38{fill:url(#linear-gradient-26);}.cls-39{fill:url(#linear-gradient-27);}.cls-40{fill:url(#linear-gradient-28);}.cls-41{stroke:url(#linear-gradient-29);}.cls-42{fill:url(#linear-gradient-30);}.cls-43{stroke:url(#linear-gradient-31);}.cls-44{fill:#0e99fe;}.cls-45{fill:#cb93f5;}.cls-46{fill:#00e5c0;}.cls-47{fill:#fe5f8e;}.cls-48{fill:#acd8f9;}.cls-49{fill:#f86691;}.cls-50{fill:#7cd334;}.cls-51{fill:#2891dd;}.cls-52{fill:url(#linear-gradient-32);}</style><linearGradient id="linear-gradient" x1="376.65" y1="342.3" x2="674.76" y2="342.3" gradientUnits="userSpaceOnUse"><stop offset="0" stop-color="#fff"/><stop offset="1" stop-color="#0067ff"/></linearGradient><linearGradient id="linear-gradient-2" x1="310.3" y1="314.42" x2="452.42" y2="314.42" gradientUnits="userSpaceOnUse"><stop offset="0" stop-color="#0067ff"/><stop offset="1" stop-color="#77ffa2"/></linearGradient><linearGradient id="linear-gradient-3" x1="273.07" y1="198.64" x2="489.28" y2="198.64" xlink:href="#linear-gradient-2"/><linearGradient id="linear-gradient-4" x1="348.66" y1="319.12" x2="539.83" y2="319.12" xlink:href="#linear-gradient"/><linearGradient id="linear-gradient-5" x1="356.82" y1="322.26" x2="598.51" y2="322.26" gradientUnits="userSpaceOnUse"><stop offset="0" stop-color="#fff"/><stop offset="1" stop-color="#cb93f5"/></linearGradient><linearGradient id="linear-gradient-6" x1="590.34" y1="136.37" x2="604.49" y2="136.37" xlink:href="#linear-gradient-5"/><linearGradient id="linear-gradient-7" x1="660.16" y1="140.75" x2="684.94" y2="140.75" gradientUnits="userSpaceOnUse"><stop offset="0" stop-color="#0e99fe"/><stop offset="1" stop-color="#00347e"/></linearGradient><linearGradient id="linear-gradient-8" x1="528.35" y1="139.76" x2="547.72" y2="139.76" xlink:href="#linear-gradient"/><linearGradient id="linear-gradient-9" x1="408.18" y1="319.22" x2="711.36" y2="319.22" xlink:href="#linear-gradient"/><linearGradient id="linear-gradient-10" x1="380.19" y1="293.78" x2="571.37" y2="293.78" gradientUnits="userSpaceOnUse"><stop offset="0" stop-color="#fff"/><stop offset="1" stop-color="#afdc6b"/></linearGradient><linearGradient id="linear-gradient-11" x1="388.36" y1="296.92" x2="630.05" y2="296.92" gradientUnits="userSpaceOnUse"><stop offset="0" stop-color="#fff"/><stop offset="1" stop-color="#fe5f8e"/></linearGradient><linearGradient id="linear-gradient-12" x1="622.57" y1="110.87" x2="635.26" y2="110.87" xlink:href="#linear-gradient-11"/><linearGradient id="linear-gradient-13" x1="557.11" y1="114.19" x2="581.89" y2="114.19" gradientUnits="userSpaceOnUse"><stop offset="0" stop-color="#fff"/><stop offset="1" stop-color="#7cd334"/></linearGradient><linearGradient id="linear-gradient-14" x1="-7455.85" y1="333.54" x2="-7157.74" y2="333.54" gradientTransform="matrix(-1, 0, 0, 1, -7082.24, 0)" xlink:href="#linear-gradient"/><linearGradient id="linear-gradient-15" x1="-7483.84" y1="310.35" x2="-7292.66" y2="310.35" gradientTransform="matrix(-1, 0, 0, 1, -7082.24, 0)" xlink:href="#linear-gradient-5"/><linearGradient id="linear-gradient-16" x1="-7354.83" y1="503.7" x2="-7354.83" y2="123.29" gradientTransform="matrix(-1, 0, 0, 1, -7082.24, 0)" xlink:href="#linear-gradient"/><linearGradient id="linear-gradient-17" x1="140.49" y1="127.45" x2="165.26" y2="127.45" xlink:href="#linear-gradient"/><linearGradient id="linear-gradient-18" x1="70.02" y1="132" x2="85.47" y2="132" gradientUnits="userSpaceOnUse"><stop offset="0" stop-color="#154bff"/><stop offset="1" stop-color="#77ffa2"/></linearGradient><linearGradient id="linear-gradient-19" x1="202.93" y1="130.77" x2="221.65" y2="130.77" xlink:href="#linear-gradient-5"/><linearGradient id="linear-gradient-20" x1="-7424.31" y1="312.86" x2="-7124.81" y2="312.86" gradientTransform="matrix(-1, 0, 0, 1, -7082.24, 0)" xlink:href="#linear-gradient"/><linearGradient id="linear-gradient-21" x1="-7452.3" y1="285.01" x2="-7261.13" y2="285.01" gradientTransform="matrix(-1, 0, 0, 1, -7082.24, 0)" xlink:href="#linear-gradient"/><linearGradient id="linear-gradient-22" x1="-7444.14" y1="288.16" x2="-7202.45" y2="288.16" gradientTransform="matrix(-1, 0, 0, 1, -7082.24, 0)" xlink:href="#linear-gradient-13"/><linearGradient id="linear-gradient-23" x1="108.95" y1="102.11" x2="133.73" y2="102.11" xlink:href="#linear-gradient-13"/><linearGradient id="linear-gradient-24" x1="32.52" y1="108.63" x2="50.89" y2="108.63" xlink:href="#linear-gradient-7"/><linearGradient id="linear-gradient-25" x1="385.54" y1="507.96" x2="401.52" y2="507.96" xlink:href="#linear-gradient-7"/><linearGradient id="linear-gradient-26" x1="344.93" y1="479.86" x2="360.09" y2="479.86" xlink:href="#linear-gradient-18"/><linearGradient id="linear-gradient-27" x1="365.34" y1="498.08" x2="381.08" y2="498.08" xlink:href="#linear-gradient-11"/><linearGradient id="linear-gradient-28" x1="385.23" y1="480.5" x2="401.1" y2="480.5" xlink:href="#linear-gradient-13"/><linearGradient id="linear-gradient-29" x1="655.73" y1="140.75" x2="689.36" y2="140.75" xlink:href="#linear-gradient"/><linearGradient id="linear-gradient-30" x1="273.52" y1="144.89" x2="489.13" y2="144.89" xlink:href="#linear-gradient-2"/><linearGradient id="linear-gradient-31" x1="104.17" y1="102.39" x2="137.8" y2="102.39" xlink:href="#linear-gradient-13"/><linearGradient id="linear-gradient-32" x1="343.55" y1="506.81" x2="359.39" y2="506.81" xlink:href="#linear-gradient-5"/></defs><title>tunnel</title><path class="cls-1" d="M378.94,542.46S367.67,437.15,485.93,351s144.72-95.16,187-208.35"/><g class="cls-2"><path class="cls-3" d="M321.49,252.47H310.3c2.46,2.3,5.1,4.57,7.89,6.81a5.32,5.32,0,0,0,1.49,2.25l.11.09c46,41.16,54.09,93.69,55.49,109.81a5.39,5.39,0,0,0,5.37,4.93h1.05a5.4,5.4,0,0,0,5.37-4.93c1.4-16.12,9.45-68.65,55.49-109.81l.1-.09a5.42,5.42,0,0,0,1.32-1.8q4.5-3.59,8.44-7.26H440.86"/><path class="cls-4" d="M488.91,148.5l.37-1.35H273.07l.38,1.37c-.74,7.7-2.91,46.65,23.42,85.12a139.09,139.09,0,0,0,13.24,16.5H452.23a138.21,138.21,0,0,0,13.24-16.49C491.83,195.14,489.64,156.14,488.91,148.5Z"/></g><text class="cls-5" transform="translate(427.53 543.91)">Prioritization Scores</text><text class="cls-5" transform="translate(343.48 571.02)">Emotions</text><text class="cls-6" transform="translate(459.9 493.48)">Engagement <tspan class="cls-7" x="106.74" y="0">R</tspan><tspan x="117.68" y="0">atios</tspan></text><text class="cls-5" transform="translate(151.58 493.48)">Feature Adoption</text><text class="cls-5" transform="translate(227.88 544.73)">Sentiments</text><path class="cls-8" d="M537.17,137.57s20,96-78.83,177.1C390.9,370,355.28,430.39,349.65,500.78"/><path class="cls-9" d="M596.64,132.22s16.55,98.83-94.38,176C416.43,367.89,365,438.7,357.82,512.37"/><ellipse class="cls-10" cx="597.41" cy="136.37" rx="7.07" ry="6.75"/><ellipse class="cls-11" cx="672.55" cy="140.75" rx="12.39" ry="11.83"/><ellipse class="cls-12" cx="538.03" cy="139.76" rx="9.68" ry="9.24"/><path class="cls-13" d="M410.47,517.12s-11.26-105.31,107-191.47,149.79-90.66,192-203.84"/><path class="cls-14" d="M568.71,112.23s20,96-78.84,177.1c-67.43,55.33-103,115.72-108.68,186.11"/><path class="cls-15" d="M628.17,106.88s16.56,98.83-94.38,176C448,342.55,396.52,413.36,389.35,487"/><ellipse class="cls-16" cx="628.92" cy="110.87" rx="6.34" ry="6.06"/><ellipse class="cls-17" cx="709.77" cy="115.89" rx="7.81" ry="7.46"/><ellipse class="cls-18" cx="569.5" cy="114.19" rx="12.39" ry="11.83"/><path class="cls-19" d="M371.32,533.69s11.26-105.3-107-191.46-144.72-95.17-187-208.35"/><path class="cls-20" d="M213.08,128.81s-20,96,78.84,177.1C359.35,361.24,395,421.63,400.6,492"/><path class="cls-21" d="M153.62,123.46s-16.56,98.82,94.38,176c85.83,59.69,137.27,130.5,144.44,204.18"/><ellipse class="cls-22" cx="152.87" cy="127.45" rx="12.39" ry="11.83"/><ellipse class="cls-23" cx="77.75" cy="132" rx="7.72" ry="7.37"/><ellipse class="cls-24" cx="212.29" cy="130.77" rx="9.36" ry="8.93"/><path class="cls-25" d="M339.79,508.35s11.26-105.3-107-191.46-146.11-85.84-188.35-199"/><path class="cls-26" d="M181.55,103.47s-20,96,78.84,177.1c67.43,55.33,103.05,115.72,108.68,186.11"/><path class="cls-27" d="M122.08,98.12s-16.55,98.82,94.38,176c85.83,59.69,137.27,130.5,144.44,204.18"/><ellipse class="cls-28" cx="121.34" cy="102.11" rx="12.39" ry="11.83"/><ellipse class="cls-29" cx="41.71" cy="108.63" rx="9.19" ry="8.77"/><ellipse class="cls-30" cx="180.65" cy="105.57" rx="7.78" ry="7.42"/><text class="cls-31" transform="translate(71.4 37.04)">Behavioral</text><text class="cls-31" transform="translate(11.17 72.69)"><tspan class="cls-32">P</tspan><tspan x="8.16" y="0">erformance</tspan></text><text class="cls-31" transform="translate(141.99 68.27)">Feedback data</text><text class="cls-33" transform="translate(655.48 98.13)">A<tspan class="cls-34" x="9.16" y="0">udio</tspan></text><text class="cls-31" transform="translate(201.92 37.74)"><tspan class="cls-35">P</tspan><tspan x="8.08" y="0">age Views</tspan></text><text class="cls-31" transform="translate(563.47 71.59)">Survey data</text><text class="cls-31" transform="translate(528.97 37.14)"><tspan class="cls-36">T</tspan><tspan x="6.9" y="0">ransactional</tspan></text><ellipse class="cls-37" cx="393.53" cy="507.96" rx="7.99" ry="7.63"/><ellipse class="cls-38" cx="352.51" cy="479.86" rx="7.58" ry="7.24"/><ellipse class="cls-39" cx="373.21" cy="498.08" rx="7.87" ry="7.51"/><ellipse class="cls-40" cx="393.16" cy="480.5" rx="7.94" ry="7.58"/><ellipse class="cls-41" cx="672.55" cy="140.75" rx="16.32" ry="15.57"/><ellipse class="cls-42" cx="381.32" cy="144.89" rx="107.81" ry="26.75"/><ellipse class="cls-43" cx="120.98" cy="102.39" rx="16.32" ry="15.57"/><circle class="cls-44" cx="384.85" cy="69.3" r="45.89"/><circle class="cls-45" cx="424.27" cy="38.89" r="12.32"/><circle class="cls-46" cx="475.7" cy="46.77" r="22.48"/><circle class="cls-47" cx="305.26" cy="80.56" r="22.48"/><circle class="cls-48" cx="353.22" cy="108.91" r="9.88"/><circle class="cls-49" cx="383.35" cy="24.62" r="6.99"/><circle class="cls-49" cx="433.44" cy="72.66" r="6.99"/><circle class="cls-50" cx="339.7" cy="125.52" r="15.7"/><circle class="cls-17" cx="315.21" cy="119.89" r="5.64"/><circle class="cls-17" cx="370.11" cy="133.68" r="7.76"/><circle class="cls-51" cx="388.35" cy="140.19" r="5.49"/><circle class="cls-51" cx="459.53" cy="80.58" r="3.44"/><circle class="cls-46" cx="411.06" cy="142.59" r="8.14"/><ellipse class="cls-52" cx="351.47" cy="506.81" rx="7.92" ry="7.56"/></svg>