<svg id="Layer_1" data-name="Layer 1" xmlns="http://www.w3.org/2000/svg" xmlns:xlink="http://www.w3.org/1999/xlink" viewBox="0 0 228.83 221.59"><defs><style>.cls-1{fill:#fff;}.cls-1,.cls-3,.cls-5,.cls-6,.cls-7,.cls-8,.cls-9{fill-rule:evenodd;}.cls-2{mask:url(#mask);}.cls-3{fill:#263c95;}.cls-4{mask:url(#mask-2-2);}.cls-5{fill:#253f8e;}.cls-6{fill:#29377b;}.cls-7{fill:#273d93;}.cls-8{fill:#f79b1d;}.cls-9{fill:#f79a1d;}</style><mask id="mask" x="73.98" y="68.43" width="85.2" height="78.52" maskUnits="userSpaceOnUse"><g id="mask-2"><polygon id="path-1" class="cls-1" points="73.98 68.43 159.18 68.43 159.18 146.95 73.98 146.95 73.98 68.43"/></g></mask><mask id="mask-2-2" x="126.04" y="69.53" width="33.1" height="67.5" maskUnits="userSpaceOnUse"><g id="mask-4"><polygon id="path-3" class="cls-1" points="126.04 69.53 159.13 69.53 159.13 137.04 126.04 137.04 126.04 69.53"/></g></mask></defs><title>images</title><g id="Page-1"><g id="Landing-page"><g id="Group-39"><g id="Group-3"><g class="cls-2"><path id="Fill-1" class="cls-3" d="M111.64,68.48c3.38-.07,6.75-.06,10.13,0a1.8,1.8,0,0,0,.8.06h33.58a2,2,0,0,1,1.65.45,2.83,2.83,0,0,1,1.37,2.79c0,2.76.06,5.52,0,8.28,0,.34,0,.65-.44.71-.19,0-.26.36-.42.54s-.34.39-.63.26-.28-.36-.28-.61V74.05c0,2.22,0,4.43,0,6.65a12.38,12.38,0,0,1,.06,1.36,1,1,0,0,1-.15.61c-.11.13-.23.26-.4.2s-.18-.21-.2-.35a4.15,4.15,0,0,1,0-.79v-9a1.74,1.74,0,0,0-.16-1c-.14-.28-.4-.28-.65-.3s-.54,0-.81,0H78.12c-1.3,0-1.3,0-1.3,1.38V132c0,1.4,0,1.4,1.29,1.4,5.16,0,10.32.06,15.48,0A3.26,3.26,0,0,1,97,137c-.08,2.85,0,5.71,0,8.57a4.25,4.25,0,0,1-.06,1.07c-.11.3-.34.4-.51.16a2.56,2.56,0,0,0-2.2-1c0-2.93,0-5.86,0-8.79,0-.59-.13-.75-.7-.75-5.45,0-10.91,0-16.36,0a2.81,2.81,0,0,1-3-2,5.31,5.31,0,0,1-.13-1.49V80.74c0-3.12,0-6.24,0-9.36a2.72,2.72,0,0,1,1.9-2.78,2,2,0,0,1,.81-.06h34.15a2,2,0,0,0,.8-.06"/></g></g><path id="Fill-4" class="cls-3" d="M127.36,136c-.25.17-.52.09-.79.09h-10a1.24,1.24,0,0,0-1,.43q-7.71,8.18-15.44,16.32c-.38.41-.75.82-1.16,1.19a2.11,2.11,0,0,1-1.76.7c-.06-.34.2-.5.37-.69.53-.58,1.07-1.14,1.6-1.7,1.15-1.21,1.19-1.43.53-2.93a1.48,1.48,0,0,1,.51-.74l13.63-14.39a3.09,3.09,0,0,1,2.4-1.06c3,0,6,0,9,0a4.78,4.78,0,0,1,1.07.07,4.29,4.29,0,0,0,1.07,0h27.8a7,7,0,0,1,1.21.05.76.76,0,0,0,.91-.68,5.08,5.08,0,0,0,0-.78c0-4.69,0-9.38,0-14.07a2.16,2.16,0,0,1,0-.36c.07-.5.25-.57.68-.26a3.09,3.09,0,0,1,1.16,2.78v10.66c0,.45,0,.9,0,1.35a3.79,3.79,0,0,1-1.64,3.5,2.69,2.69,0,0,1-1.72.48H127.76a.9.9,0,0,1-.4,0"/><g id="Group-8"><g class="cls-4"><path class="cls-5" d="M156,134.47c1,.17,1.33-.12,1.33-1.21V117.77a3.64,3.64,0,0,1,1.62,3.44c0,3.92,0,7.85,0,11.77a4.52,4.52,0,0,1-.16,1.44,1,1,0,0,1,.3-.11,4.93,4.93,0,0,0,0-.55q0-7.57,0-15.15V71.88a2.63,2.63,0,0,0-.95-2.19c-.43-.21-.43-.21-.55,0a2.26,2.26,0,0,1,1.22,1.71,4.93,4.93,0,0,1,.05.76c.15,2.64,0,5.29.06,7.93,0,.49-.16.69-.43.79a.12.12,0,0,0-.08.1c0,.29-.29.36-.39.56s-.14.56-.48.45-.22-.43-.22-.68q0-3.44,0-6.86c0-.25.12-.57-.24-.78,0,2.9,0,5.73,0,8.57,0,.38.16.85-.41,1.11v-.76q0-4.77,0-9.54c0-.25.08-.53-.1-.76-.33.33-.24.76-.24,1.16,0,4.11,0,8.23,0,12.34v46.72c0,1.67.1,1.54-1.4,1.54H127.26c-.41,0-.86-.11-1.22.22.24.27.55.15.83.15h28.55A4.12,4.12,0,0,1,156,134.47Z"/></g></g><path id="Fill-9" class="cls-3" d="M94.55,153.62a1.68,1.68,0,0,1-.48-1,5.69,5.69,0,0,0-.14-2.75c0-1.55,0-3.11,0-4.66.48-.61,1.08-.43,1.58-.11a4.62,4.62,0,0,1,1.65,1.72,38.12,38.12,0,0,1,0,4.78.67.67,0,0,1-.33.51,5.71,5.71,0,0,0-1.53,1.23c-.21.2-.43.41-.77.29"/><path id="Fill-11" class="cls-3" d="M95,153.62a1.34,1.34,0,0,0,.66-.54,5,5,0,0,1,1.48-1.19.44.44,0,0,1,.29-.09c.49,0,1,.22,1.47-.13.68-.51.81-1,.54-2,.05-.28.17-.48.48-.45a1.69,1.69,0,0,1,.06,2.57c-.77.85-1.57,1.68-2.36,2.52-.13.14-.24.29-.36.44A2.52,2.52,0,0,1,95,153.62"/><path id="Fill-13" class="cls-6" d="M158.16,69.36c-.17.42-.39-.46-.56,0a1.68,1.68,0,0,0-1.65-.79h-8.37q-12.6,0-25.2,0c-.26,0-.55.15-.77-.18.2,0,.4,0,.6,0H156a2.06,2.06,0,0,1,2.17,1"/><path id="Fill-15" class="cls-6" d="M111.64,68.32c-.16.19-.37.13-.57.13H76.46l-.27,0a1.06,1.06,0,0,1,.77-.14h34.35c.11,0,.22,0,.33,0"/><path id="Fill-17" class="cls-3" d="M97.07,147c-.25-.32-.51-.62-.74-.95-.37-.55-.8-.69-1.31-.37,0-.25,0-.5,0-.74a1.16,1.16,0,0,1,1.62.52c.13.18.19.48.43.51a.89.89,0,0,1,0,1"/><path id="Fill-19" class="cls-3" d="M94,150.33c1.07.72,1.48,1.45.3,2.22-.69-.73-.26-1.48-.3-2.22"/><path id="Fill-21" class="cls-5" d="M157,70.58a5.2,5.2,0,0,1,.05,2.22,4.76,4.76,0,0,1-.05-2.22"/><path id="Fill-23" class="cls-7" d="M157.48,116c.8.61.62,1.27.62,1.91,0,4.66,0,9.31,0,14,0,.26.33.73-.45.74s-.52-.45-.52-.71q0-7.59,0-15.18c0-.24-.23-.52.37-.72"/><path id="Fill-25" class="cls-3" d="M97.24,152.41a25.06,25.06,0,0,1,1.9-2.08,1,1,0,0,1,.16,1.25c-.31.44-.55,1.13-1.29.93-.24-.06-.52,0-.77-.1"/><path id="Fill-27" class="cls-8" d="M142.49,118c.06.67-.16.87-.77.85-1.43-.07-2.86,0-4.29,0-.36-.17-.21-.53-.21-.81,0-4.37.06-8.74,0-13.11,0-.41,0-.82,0-1.23a1.17,1.17,0,0,0-.24-.32,2,2,0,0,1-.46-2.07,2.13,2.13,0,0,0-.09-1.45,2,2,0,0,1,.36-2.38,2,2,0,0,0,.42-.64c.13-3.62,0-7.23.07-10.84,0-.14,0-.29.08-.4,1.51,0,3,0,4.53-.06.5,0,.67.17.67.77,0,3.48,0,7,0,10.42a1.73,1.73,0,0,1,.14.31c.11.14.25.26.37.39a2.55,2.55,0,0,1,.26,3.16,4.6,4.6,0,0,1-.64.68,1.75,1.75,0,0,1-.12.32v.28c0,.23,0,.46,0,.69h0c.05.31.22.46.43.22a10.81,10.81,0,0,0,1.93-2.35s0-.09,0-.14c0-5.09,0-10.18,0-15.27a1.93,1.93,0,0,0-2-2.18c-1.94,0-3.89,0-5.83,0-1.45,0-2.13.8-2.13,2.45v33.91c0,1.48.67,2.33,1.95,2.35q3,.08,6,0c1.23,0,2-.87,2-2.29,0-5.24,0-10.47,0-15.71-.3-.09-.46.14-.63.35-.37.44-.74.89-1.14,1.31a2.12,2.12,0,0,0-.61,1.24"/><path id="Fill-29" class="cls-8" d="M136.92,85q0,8.42,0,16.82,0,7.85,0,15.68c0,.25-.09.52.19.73-.66,0-.38-.46-.38-.71,0-4.49,0-9,0-13.47a1.26,1.26,0,0,0-.67-1.24,1.44,1.44,0,0,1-.66-2,1.71,1.71,0,0,0-.19-1.75,1.45,1.45,0,0,1,.49-2.19,2.17,2.17,0,0,0,1-2c-.07-3,0-6.09,0-9.13,0-.24-.15-.53.2-.72"/><path id="Fill-31" class="cls-8" d="M142.67,101.6c0-1.85,0-3.69,0-5.54a5.07,5.07,0,0,1,1.75,1.39c1,1.39.36,2.88-1.12,3.75-.21.12-.41.26-.61.4"/><path id="Fill-33" class="cls-9" d="M110.86,118.82c-1.32,0-2.64,0-4,0-.52,0-.62-.21-.62-.74q0-6,0-12h0c0-4,0-8,0-12,0-.63.14-.9.72-.88,1.24,0,2.48,0,3.71,0,.6,0,.79.24.77.91,0,1.37,0,2.75,0,4.12q0,9.93,0,19.86c0,.55-.15.75-.65.73m3-12.95c0-4.39,0-8.78,0-13.16,0-1.42-.71-2.16-2-2.17-2,0-4,0-5.93,0a1.67,1.67,0,0,0-1.12.32,2.64,2.64,0,0,0-.92,2.26c0,5.64,0,11.29,0,16.93,0,3,0,6,0,9,0,1.49.76,2.41,2,2.42q3,0,6,0c1.24,0,2-.91,2-2.35v-13.3h0"/><path id="Fill-35" class="cls-8" d="M126.48,118.82c-1.34,0-2.68,0-4,0-.58,0-.72-.21-.71-.83,0-5.41,0-10.81,0-16.22,0-.49,0-1,0-1.48s.12-.45.41-.45c1.44,0,2.88,0,4.32,0,.42,0,.46.22.46.61q0,4.47,0,8.92h0c0,3,0,5.9,0,8.85,0,.39,0,.6-.46.59m2.86-7.62c0-3.91,0-7.83,0-11.75a2,2,0,0,0-2-2.28c-1.93,0-3.87,0-5.8,0-1.38,0-2.08.82-2.09,2.41v9.63h0c0,3.28,0,6.56,0,9.84,0,1.66.68,2.43,2.12,2.45,1.84,0,3.67,0,5.5,0,1.57,0,2.35-.91,2.34-2.69q0-3.82,0-7.65"/><path id="Fill-37" class="cls-9" d="M95.31,118.86c-1.35,0-2.69,0-4,0-.58,0-.51-.39-.51-.79,0-2.58,0-5.17,0-7.76,0-.7,0-1.4,0-2.09,0-.5.2-.63.54-.62,1.43,0,2.85,0,4.27,0,.36,0,.39.21.39.53,0,1.7,0,3.41,0,5.11h0c0,1.6,0,3.21,0,4.82,0,.59-.17.77-.68.75m3-5.53c0-2,0-3.91,0-5.87,0-1.7-.75-2.53-2.25-2.54l-5.51,0c-1.44,0-2.19.82-2.19,2.43,0,4,0,8,0,11.95a2,2,0,0,0,2,2.21c1.92,0,3.84,0,5.76,0,1.53,0,2.19-.73,2.2-2.46,0-1.91,0-3.82,0-5.73"/></g></g></g></svg>